<svg width="168" height="49" viewBox="0 0 168 49" fill="none" xmlns="http://www.w3.org/2000/svg">
<path fill-rule="evenodd" clip-rule="evenodd" d="M47.3433 0.75H35.962L29.8054 6.83961H41.185V37.2859H0V48.25H6.15836V43.3773H47.3433V0.75ZM0 25.1084V31.1986H35.0395V12.9298H6.15836V6.83961H24.6522L30.8088 0.75H0V19.0188H28.8811V25.1084H0Z" fill="url(#paint0_linear_528_20)"/>
<path d="M56.3322 41.0821C56.5507 41.1197 56.7498 41.23 56.8968 41.395C57.034 41.5652 57.1046 41.7789 57.0957 41.9967C57.1026 42.138 57.0741 42.2787 57.0126 42.4062C56.951 42.5337 56.8585 42.644 56.7433 42.7271C56.507 42.8981 56.16 42.9816 55.6995 42.9816H53.9937V39.2954H55.5954C55.934 39.2754 56.2703 39.3622 56.5564 39.5432C56.6677 39.6223 56.7572 39.7277 56.8169 39.85C56.8766 39.9722 56.9045 40.1074 56.8981 40.2431C56.9044 40.4278 56.8516 40.6097 56.7473 40.7627C56.6433 40.9071 56.499 41.0182 56.3322 41.0821ZM54.3847 39.6174V40.9549H55.5687C55.8118 40.9699 56.0537 40.9102 56.2614 40.7839C56.3375 40.7248 56.3989 40.6492 56.4412 40.563C56.4835 40.4767 56.5055 40.3821 56.5055 40.2862C56.5055 40.1903 56.4835 40.0956 56.4412 40.0094C56.3989 39.9231 56.3375 39.8476 56.2614 39.7884C56.0537 39.6621 55.8118 39.6024 55.5687 39.6174H54.3847ZM55.6955 42.6661C55.9575 42.6831 56.2189 42.6247 56.4483 42.4978C56.5337 42.4392 56.6022 42.3595 56.647 42.2664C56.6917 42.1734 56.7111 42.0704 56.7032 41.9676C56.7032 41.5072 56.3673 41.277 55.6955 41.277H54.3847V42.6622L55.6955 42.6661ZM59.4862 43.0187C59.0057 43.0187 58.6311 42.8817 58.3624 42.6078C58.0936 42.3339 57.9601 41.9362 57.9619 41.4148V39.2954H58.3624V41.3923C58.3624 41.8204 58.4585 42.1386 58.6533 42.3493C58.7625 42.4592 58.8942 42.5444 59.0396 42.5991C59.185 42.6538 59.3405 42.6766 59.4956 42.6661C59.6517 42.6769 59.8083 42.6542 59.9548 42.5995C60.1012 42.5449 60.2342 42.4595 60.3445 42.3493C60.5394 42.1399 60.6368 41.8209 60.6368 41.3923V39.2954H61.0185V41.4069C61.0185 41.9318 60.8851 42.3294 60.6181 42.5998C60.3418 42.8769 59.9667 43.0134 59.4862 43.0134V43.0187ZM63.2142 43.0187C62.9447 43.0199 62.677 42.9751 62.4227 42.8862C62.2022 42.8179 62.0009 42.6989 61.8354 42.5389L61.9903 42.238C62.1424 42.383 62.3246 42.4934 62.5242 42.5614C62.7442 42.6442 62.9776 42.6864 63.2129 42.686C63.475 42.7043 63.7363 42.6408 63.9604 42.5044C64.0381 42.4528 64.1017 42.3827 64.1453 42.3006C64.1888 42.2184 64.2111 42.1267 64.21 42.0339C64.2133 41.9689 64.2032 41.904 64.1802 41.8431C64.1573 41.7823 64.122 41.7267 64.0765 41.6799C63.9818 41.5892 63.8684 41.52 63.7441 41.4771C63.5653 41.4151 63.383 41.3633 63.1982 41.322C62.9718 41.268 62.7489 41.2003 62.5308 41.1193C62.3666 41.0556 62.2201 40.9538 62.1037 40.8223C61.9777 40.6688 61.9139 40.474 61.9248 40.2762C61.9234 40.0959 61.9749 39.919 62.073 39.7672C62.1853 39.6031 62.3442 39.4758 62.5295 39.4014C62.7718 39.3044 63.0319 39.2593 63.293 39.2688C63.5034 39.2681 63.7128 39.2971 63.915 39.355C64.1048 39.4058 64.2852 39.4868 64.4489 39.5949L64.3154 39.9051C64.0129 39.7076 63.659 39.6017 63.297 39.6002C63.0379 39.5819 62.7799 39.6475 62.5615 39.7871C62.4845 39.842 62.4219 39.9145 62.3792 39.9985C62.3364 40.0825 62.3147 40.1755 62.3159 40.2696C62.3127 40.3347 62.3229 40.3998 62.3458 40.4609C62.3688 40.5219 62.404 40.5777 62.4494 40.6248C62.5449 40.7177 62.6604 40.788 62.7871 40.8303C62.9206 40.878 63.1061 40.9297 63.337 40.9854C63.5634 41.0374 63.7863 41.1034 64.0044 41.1829C64.1684 41.2457 64.3149 41.3466 64.4315 41.4771C64.5528 41.6268 64.6145 41.8155 64.6051 42.0073C64.6067 42.1881 64.5542 42.3653 64.4542 42.5163C64.3392 42.6806 64.1775 42.807 63.9897 42.8795C63.7453 42.9754 63.4836 43.0205 63.2209 43.0121L63.2142 43.0187ZM65.4526 39.3073H65.8451V42.9935H65.4526V39.3073ZM70.1564 39.3073V42.9935H69.832L67.4468 40.0032V42.9935H67.0544V39.2954H67.3774L69.7693 42.291V39.2954L70.1564 39.3073ZM73.9898 42.6568V42.9935H71.3643V39.2954H73.9111V39.64H71.7581V40.9509H73.6775V41.2823H71.7581V42.6515L73.9898 42.6568ZM75.9359 43.0253C75.6659 43.0266 75.3977 42.9818 75.1431 42.8928C74.923 42.8243 74.7222 42.7054 74.5571 42.5455L74.7119 42.2446C74.8641 42.3897 75.0463 42.5 75.2458 42.568C75.4659 42.6509 75.6993 42.6931 75.9346 42.6926C76.1971 42.7106 76.4588 42.6472 76.6834 42.511C76.7608 42.4592 76.824 42.389 76.8674 42.3069C76.9107 42.2248 76.9328 42.1332 76.9317 42.0405C76.9352 41.9755 76.9252 41.9105 76.9023 41.8496C76.8793 41.7887 76.8438 41.7332 76.7982 41.6866C76.704 41.5965 76.5917 41.5273 76.4685 41.4838C76.2894 41.4225 76.1072 41.3707 75.9226 41.3287C75.6961 41.2748 75.4732 41.207 75.2552 41.1259C75.091 41.0622 74.9445 40.9604 74.8281 40.829C74.7035 40.6762 74.6402 40.4831 74.6505 40.2868C74.6491 40.1065 74.7005 39.9296 74.7987 39.7778C74.9113 39.614 75.0701 39.4867 75.2552 39.412C75.4976 39.3153 75.7576 39.2702 76.0187 39.2794C76.2295 39.2789 76.4394 39.3079 76.642 39.3656C76.8295 39.4172 77.0075 39.4982 77.1692 39.6055L77.0358 39.9157C76.8825 39.8147 76.7146 39.7374 76.5379 39.6864C76.3693 39.6371 76.1945 39.6116 76.0187 39.6108C75.7601 39.5928 75.5025 39.6584 75.2845 39.7977C75.2071 39.8523 75.1442 39.9247 75.1012 40.0087C75.0581 40.0928 75.0363 40.1859 75.0376 40.2802C75.0346 40.3453 75.0449 40.4103 75.0679 40.4714C75.0908 40.5324 75.1259 40.5882 75.1711 40.6354C75.2676 40.7284 75.3839 40.7986 75.5115 40.8409C75.6476 40.8886 75.8305 40.9403 76.06 40.996C76.2838 41.0479 76.5041 41.1139 76.7194 41.1935C76.8838 41.2556 77.0304 41.3566 77.1465 41.4877C77.2683 41.6372 77.3305 41.8259 77.3214 42.0179C77.323 42.1987 77.2705 42.3759 77.1706 42.5269C77.0558 42.6915 76.894 42.818 76.7061 42.8901C76.4616 42.986 76.1999 43.0311 75.9372 43.0227L75.9359 43.0253ZM79.1981 43.0253C78.9281 43.0266 78.6599 42.9818 78.4052 42.8928C78.1852 42.8243 77.9844 42.7054 77.8193 42.5455L77.9728 42.2446C78.1249 42.3897 78.3071 42.5 78.5067 42.568C78.7272 42.6508 78.961 42.693 79.1968 42.6926C79.4589 42.7107 79.7201 42.6472 79.9442 42.511C80.0216 42.4592 80.0849 42.389 80.1282 42.3069C80.1715 42.2248 80.1936 42.1332 80.1925 42.0405C80.1962 41.9755 80.1862 41.9105 80.1632 41.8496C80.1402 41.7887 80.1048 41.7331 80.059 41.6866C79.9646 41.5961 79.8517 41.527 79.728 41.4838C79.549 41.4221 79.3668 41.3703 79.1821 41.3287C78.9557 41.2744 78.7329 41.2067 78.5147 41.1259C78.3507 41.0625 78.2046 40.9606 78.0889 40.829C77.9638 40.6764 77.9001 40.4833 77.91 40.2868C77.909 40.1063 77.9609 39.9295 78.0595 39.7778C78.1713 39.6137 78.3298 39.4864 78.5147 39.412C78.7571 39.3153 79.0171 39.2702 79.2782 39.2794C79.489 39.2787 79.6989 39.3077 79.9015 39.3656C80.0913 39.4165 80.2716 39.4975 80.4354 39.6055L80.3019 39.9157C80.1485 39.8149 79.9807 39.7376 79.8041 39.6864C79.6349 39.6372 79.4597 39.6118 79.2835 39.6108C79.0249 39.5928 78.7674 39.6584 78.5494 39.7977C78.4721 39.8523 78.4094 39.9248 78.3666 40.0088C78.3238 40.0929 78.3023 40.186 78.3038 40.2802C78.3005 40.3453 78.3106 40.4104 78.3336 40.4715C78.3565 40.5326 78.3918 40.5884 78.4373 40.6354C78.5333 40.7284 78.6492 40.7986 78.7763 40.8409C78.9124 40.8886 79.0953 40.9403 79.3249 40.996C79.5514 41.0476 79.7743 41.1136 79.9923 41.1935C80.1564 41.256 80.303 41.3569 80.4194 41.4877C80.5411 41.6372 80.6033 41.8259 80.5943 42.0179C80.5961 42.1989 80.5431 42.3763 80.4421 42.5269C80.3276 42.6911 80.1663 42.8176 79.9789 42.8901C79.7344 42.9858 79.4728 43.0309 79.2101 43.0227L79.1981 43.0253Z" fill="white"/>
<path d="M85.4989 43.0251C85.1319 43.0306 84.7696 42.9474 84.4467 42.7833C84.1407 42.6266 83.8865 42.3935 83.7123 42.1097C83.5372 41.8154 83.4453 41.4837 83.4453 41.1465C83.4453 40.8092 83.5372 40.4776 83.7123 40.1832C83.8865 39.8988 84.1418 39.6659 84.4495 39.511C84.7735 39.3467 85.1366 39.2631 85.5046 39.2678C85.7803 39.2638 86.0545 39.3088 86.3124 39.4007C86.5519 39.4859 86.7671 39.6224 86.9409 39.7993L86.6782 40.0477C86.527 39.9034 86.3457 39.7899 86.1456 39.7145C85.9456 39.639 85.7312 39.6032 85.5159 39.6093C85.2196 39.6053 84.9274 39.6745 84.6684 39.8099C84.42 39.9377 84.2134 40.127 84.071 40.3573C83.9293 40.5963 83.8548 40.8655 83.8548 41.1392C83.8548 41.4129 83.9293 41.682 84.071 41.921C84.2139 42.1513 84.4203 42.3409 84.6684 42.4698C84.9274 42.6052 85.2196 42.6743 85.5159 42.6704C85.7318 42.6771 85.9469 42.641 86.1471 42.5646C86.3473 42.4881 86.5283 42.373 86.6782 42.2266L86.9409 42.4751C86.765 42.6509 86.5492 42.7872 86.3096 42.8737C86.0508 42.9661 85.7757 43.0112 85.4989 43.0065V43.0251ZM90.6046 42.6558V42.9932H87.8265V39.2984H90.5213V39.6438H88.2431V40.9578H90.2741V41.29H88.2431V42.6624L90.6046 42.6558ZM94.8601 39.2984V42.9932H94.5211L91.9972 39.9959V42.9932H91.582V39.2984H91.9238L94.4547 42.301V39.2984H94.8601ZM96.9024 39.6372H95.5211V39.2984H98.7017V39.6438H97.3218V42.9999H96.9066V39.6438L96.9024 39.6372ZM102.137 42.6558V42.9932H99.3641V39.2984H102.063V39.6438H99.7808V40.9578H101.812V41.29H99.7808V42.6624L102.137 42.6558ZM105.796 42.9932L104.899 41.8055C104.795 41.8167 104.689 41.8225 104.584 41.8227H103.529V42.9932H103.114V39.2984H104.584C105.086 39.2984 105.479 39.4113 105.762 39.6372C105.903 39.7516 106.015 39.8949 106.088 40.0561C106.162 40.2173 106.195 40.3921 106.186 40.5672C106.2 40.8281 106.118 41.0857 105.955 41.2969C105.791 41.5082 105.556 41.6604 105.288 41.7284L106.247 42.9946L105.796 42.9932ZM104.573 41.4893C104.892 41.5094 105.208 41.4233 105.466 41.2461C105.563 41.1572 105.641 41.0507 105.694 40.9331C105.746 40.8154 105.774 40.689 105.774 40.5612C105.774 40.4335 105.746 40.307 105.694 40.1894C105.641 40.0717 105.563 39.9653 105.466 39.8763C105.206 39.7016 104.891 39.6171 104.573 39.6372H103.529V41.4893H104.573Z" fill="white"/>
<path d="M110.493 40.3248C110.735 40.3215 110.974 40.3792 111.186 40.4922C111.39 40.602 111.558 40.7651 111.67 40.9628C111.786 41.1769 111.846 41.4148 111.846 41.6562C111.846 41.8977 111.786 42.1355 111.67 42.3496C111.558 42.5481 111.39 42.7121 111.186 42.8229C110.974 42.9373 110.735 42.9959 110.493 42.9929C110.281 42.9963 110.071 42.9482 109.882 42.8532C109.701 42.76 109.551 42.6204 109.447 42.4498V42.9679H109.097V39.2676H109.462V40.8495C109.569 40.6854 109.719 40.5521 109.897 40.4632C110.082 40.3729 110.286 40.3277 110.493 40.3314V40.3248ZM110.469 42.6778C110.649 42.6798 110.826 42.6366 110.984 42.5526C111.138 42.4676 111.264 42.3418 111.347 42.1901C111.434 42.0249 111.479 41.8422 111.479 41.6569C111.479 41.4715 111.434 41.2888 111.347 41.1237C111.265 40.9714 111.139 40.8454 110.984 40.7611C110.825 40.6783 110.647 40.6349 110.467 40.6349C110.286 40.6349 110.108 40.6783 109.949 40.7611C109.796 40.8463 109.671 40.9721 109.589 41.1237C109.502 41.2888 109.457 41.4715 109.457 41.6569C109.457 41.8422 109.502 42.0249 109.589 42.1901C109.672 42.3411 109.796 42.4667 109.949 42.5526C110.108 42.6372 110.287 42.6804 110.469 42.6778ZM114.797 40.3446L113.433 43.2829C113.355 43.4877 113.224 43.6694 113.051 43.8102C112.9 43.9158 112.717 43.97 112.531 43.9644C112.406 43.9654 112.281 43.9454 112.164 43.9051C112.053 43.8679 111.952 43.806 111.87 43.7245L112.04 43.4609C112.104 43.5249 112.181 43.5757 112.266 43.6101C112.351 43.6445 112.442 43.6619 112.535 43.6612C112.649 43.6637 112.761 43.6284 112.852 43.5611C112.96 43.4679 113.044 43.3519 113.098 43.2223L113.216 42.9679L112.003 40.3485H112.386L113.406 42.5776L114.427 40.3485L114.797 40.3446Z" fill="white"/>
<path fill-rule="evenodd" clip-rule="evenodd" d="M154.043 27.9674H159.864L156.953 24.1181L154.043 27.9674ZM162.034 30.8371H151.868L149.75 33.6308H145.908L155.857 20.4799H158.058L168 33.6308H164.148L162.034 30.8371ZM131.147 30.74H141.916L139.375 33.6097L125.396 33.6181L126.255 30.9201L126.346 30.8427L135.331 23.351L125.549 23.3581L128.1 20.487L141.206 20.4785L140.77 22.7149L131.149 30.7371L131.147 30.74ZM107.097 27.9674H112.919L110.007 24.1181L107.097 27.9674ZM115.089 30.8371H104.922L102.804 33.6308H98.9639L108.91 20.4799H111.111L121.057 33.6308H117.205L115.087 30.8371H115.089ZM56.8769 23.4003V33.6308H53.9937V20.4799H67.142C67.806 20.4688 68.4655 20.5895 69.0821 20.8351C69.6988 21.0807 70.2602 21.4462 70.7337 21.9102C71.2071 22.3743 71.5832 22.9277 71.8398 23.5381C72.0965 24.1485 72.2287 24.8038 72.2287 25.4657C72.2287 26.1276 72.0965 26.7828 71.8398 27.3933C71.5832 28.0037 71.2071 28.5571 70.7337 29.0211C70.2602 29.4852 69.6988 29.8507 69.0821 30.0962C68.4655 30.3418 67.806 30.4626 67.142 30.4514H59.0429V27.5296H67.142C67.6914 27.5296 68.2183 27.3121 68.6067 26.9249C68.9952 26.5377 69.2134 26.0126 69.2134 25.465C69.2134 24.9174 68.9952 24.3922 68.6067 24.005C68.2183 23.6178 67.6914 23.4003 67.142 23.4003H56.8769ZM80.5982 30.7512H95.962L93.0703 33.6223H77.7051V20.4799H80.5982V30.754V30.7512Z" fill="white"/>
<path fill-rule="evenodd" clip-rule="evenodd" d="M159.127 3.63616V13.8868H156.184V3.61928C153.193 3.64038 150.269 3.61928 147.318 3.61928L150.214 0.758439C155.438 0.758439 160.66 0.755626 165.882 0.75H168L165.096 3.61787C163.098 3.61787 161.127 3.62631 159.127 3.62631V3.63616ZM57.5796 3.67694C56.1352 3.67694 56.1352 5.86547 57.5796 5.86547H69.2198C70.2927 5.86547 71.3217 6.28839 72.0804 7.0412C72.839 7.794 73.2653 8.81502 73.2653 9.87965C73.2653 10.9443 72.839 11.9653 72.0804 12.7181C71.3217 13.4709 70.2927 13.8938 69.2198 13.8938H53.0437L55.9467 11.0245L67.5486 10.9753H69.2255C69.5113 10.9651 69.782 10.8453 69.9806 10.6411C70.1792 10.4369 70.2901 10.1641 70.2901 9.88035C70.2901 9.59656 70.1792 9.32383 69.9806 9.1196C69.782 8.91536 69.5113 8.79555 69.2255 8.78538H57.5796C56.52 8.7657 55.5104 8.3342 54.7681 7.58367C54.0258 6.83314 53.6099 5.82353 53.6099 4.77191C53.6099 3.7203 54.0258 2.71068 54.7681 1.96015C55.5104 1.20962 56.52 0.778123 57.5796 0.758439H72.6713V1.35058L70.3623 3.63334L67.5486 3.67694H57.5796ZM140.36 10.2299L143.729 13.8868H139.793L136.874 10.7179H130.012V7.80364H138.188C138.739 7.80364 139.268 7.58625 139.658 7.1993C140.048 6.81235 140.267 6.28753 140.267 5.7403C140.267 5.19306 140.048 4.66824 139.658 4.28129C139.268 3.89433 138.739 3.67694 138.188 3.67694H127.886V13.9023H124.981V0.758439H138.182C139.321 0.756786 140.426 1.13922 141.316 1.84296C142.207 2.5467 142.83 3.52994 143.083 4.63131C143.336 5.73267 143.205 6.88672 142.71 7.90404C142.215 8.92136 141.386 9.74151 140.36 10.2299ZM94.6916 5.1791L86.9679 13.23L85.2386 11.4268L79.2455 5.1791V13.8995H76.3454V0.758439H79.0074L86.9679 9.05684L94.9298 0.758439H97.5918V13.9023H94.6916V5.18191V5.1791ZM107.608 8.24106H113.452L110.529 4.39427L107.608 8.24106ZM115.632 11.1103H105.426L103.3 13.9023H99.4416L109.425 0.758439H111.636L121.619 13.9023H117.752L115.632 11.1103Z" fill="white"/>
<path d="M121.725 42.9386H120.914V40.771C120.914 40.5366 120.924 40.2777 120.947 39.9941H120.924C120.911 40.0472 120.897 40.1016 120.879 40.1559C120.862 40.2103 120.845 40.2608 120.829 40.3087C120.813 40.3566 120.796 40.4007 120.78 40.4382C120.765 40.4758 120.752 40.5068 120.74 40.5314L119.979 41.8522H119.346L118.611 40.525C118.604 40.5107 118.594 40.4874 118.579 40.4538C118.565 40.4201 118.553 40.3825 118.538 40.3359C118.522 40.2893 118.508 40.2375 118.492 40.1805C118.476 40.1236 118.462 40.0614 118.45 39.9954H118.426C118.439 40.1533 118.449 40.2984 118.453 40.433C118.457 40.5677 118.462 40.6778 118.462 40.7684V42.9386H117.647V39.313H118.756L119.464 40.5716C119.484 40.6117 119.506 40.6544 119.524 40.7011C119.543 40.7477 119.566 40.793 119.584 40.8383C119.603 40.8836 119.622 40.9277 119.639 40.9678C119.654 41.0067 119.665 41.0465 119.673 41.0869H119.688C119.699 41.0507 119.711 41.0092 119.724 40.9575C119.736 40.9057 119.751 40.8642 119.767 40.8176C119.782 40.771 119.797 40.7244 119.814 40.6804C119.828 40.6391 119.846 40.5989 119.867 40.5599L120.594 39.3065H121.725V42.9321V42.9386ZM126.171 42.9386H125.188L124.901 42.1319H123.468L123.181 42.9386H122.201L123.661 39.313H124.734L126.168 42.9386H126.171ZM124.692 41.5065L124.262 40.288C124.227 40.1821 124.204 40.0732 124.195 39.963H124.172C124.163 40.0701 124.139 40.1759 124.101 40.2777L123.671 41.5065H124.692ZM129.06 42.9386H126.671V39.313H127.574V42.2743H129.06V42.9386ZM132.932 42.9386H131.784L130.616 41.364C130.574 41.3003 130.538 41.2336 130.508 41.1646H130.495V42.9386H129.59V39.313H130.495V41.0261H130.508C130.531 40.9795 130.568 40.9108 130.621 40.8241L131.73 39.313H132.805L131.407 41.0416L132.932 42.9386ZM136.787 42.9386H135.885V41.4624H134.222V42.9386H133.319V39.313H134.222V40.7593H135.885V39.313H136.79L136.787 42.9386ZM141.233 42.9386H140.247L139.961 42.1319H138.534L138.247 42.9386H137.268L138.729 39.313H139.814L141.241 42.9386H141.233ZM139.754 41.5065L139.324 40.288C139.29 40.1818 139.268 40.073 139.257 39.963H139.241C139.231 40.07 139.207 40.1756 139.171 40.2777L138.74 41.5065H139.754ZM141.549 42.8013V41.992C141.706 42.1128 141.885 42.2067 142.079 42.2691C142.262 42.3297 142.456 42.3612 142.652 42.3624C142.752 42.3634 142.852 42.3539 142.949 42.3339C143.025 42.3191 143.098 42.2929 143.164 42.2562C143.216 42.2281 143.26 42.1884 143.29 42.141C143.318 42.0964 143.333 42.0459 143.332 41.9946C143.333 41.927 143.31 41.8609 143.264 41.8069C143.215 41.7453 143.153 41.6926 143.082 41.6515C142.994 41.6013 142.902 41.5579 142.806 41.522C142.699 41.478 142.586 41.4327 142.461 41.3925C142.193 41.3025 141.953 41.1544 141.762 40.9613C141.606 40.787 141.525 40.5686 141.531 40.345C141.524 40.183 141.563 40.0222 141.645 39.8781C141.728 39.734 141.85 39.6116 142 39.5228C142.153 39.4327 142.322 39.3675 142.5 39.3298C142.698 39.2877 142.902 39.2668 143.105 39.2677C143.291 39.2664 143.477 39.2777 143.662 39.3013C143.814 39.3224 143.964 39.358 144.108 39.4075V40.1637C144.039 40.12 143.965 40.0827 143.888 40.0524C143.809 40.0199 143.727 39.993 143.643 39.9721C143.561 39.9516 143.477 39.936 143.392 39.9254C143.314 39.9157 143.235 39.911 143.155 39.9112C143.062 39.91 142.969 39.9187 142.877 39.9371C142.802 39.952 142.73 39.9769 142.664 40.0109C142.61 40.0403 142.564 40.0796 142.529 40.1262C142.497 40.1706 142.481 40.2223 142.482 40.2751C142.481 40.3334 142.499 40.3906 142.535 40.4395C142.576 40.4906 142.628 40.5344 142.687 40.569C142.762 40.6183 142.841 40.6616 142.925 40.6985C143.018 40.7386 143.124 40.7814 143.241 40.828C143.39 40.8834 143.534 40.9483 143.672 41.0222C143.792 41.0848 143.902 41.1624 143.999 41.2527C144.09 41.3373 144.162 41.4377 144.209 41.5479C144.261 41.672 144.285 41.8039 144.281 41.9364C144.289 42.1159 144.245 42.2943 144.155 42.4543C144.072 42.5895 143.953 42.7035 143.808 42.7858C143.653 42.8748 143.482 42.9372 143.302 42.9696C143.101 43.0077 142.896 43.0263 142.691 43.0253C142.48 43.0261 142.27 43.0092 142.063 42.9748C141.884 42.9471 141.71 42.8961 141.547 42.8233L141.549 42.8013ZM147.969 39.3169L146.663 41.6476V42.9425H145.759V41.6683L144.486 39.3195H145.519L146.165 40.6713C146.177 40.6959 146.207 40.8008 146.256 40.9665H146.267C146.284 40.869 146.313 40.7735 146.353 40.6817L147.011 39.3195L147.969 39.3169ZM151.521 42.9425H150.54L150.253 42.1358H148.827L148.54 42.9425H147.561L149.022 39.3169H150.093L151.52 42.9425H151.521ZM150.043 41.5103L149.612 40.2919C149.577 40.186 149.555 40.0771 149.545 39.9669H149.522C149.513 40.0738 149.49 40.1794 149.453 40.2815L149.023 41.5103H150.043ZM155.635 42.9425H154.727L153.074 40.6661C153.001 40.5693 152.933 40.469 152.872 40.3657H152.863C152.878 40.4935 152.885 40.689 152.885 40.9523V42.9425H152.024V39.3169H153.007L154.6 41.5181C154.671 41.6165 154.743 41.7149 154.8 41.8133H154.812C154.792 41.6483 154.784 41.4821 154.789 41.3161V39.3117H155.649V42.9373L155.635 42.9425Z" fill="white"/>
<path d="M156.601 42.81V42.3079C156.667 42.3624 156.739 42.4086 156.818 42.4454C156.903 42.4864 156.991 42.5207 157.082 42.5479C157.173 42.5752 157.267 42.5968 157.361 42.6128C157.446 42.6266 157.533 42.6339 157.62 42.6348C157.835 42.6501 158.049 42.5992 158.232 42.4895C158.299 42.4407 158.352 42.377 158.388 42.304C158.423 42.231 158.439 42.1508 158.434 42.0705C158.438 41.9796 158.414 41.8896 158.366 41.811C158.318 41.7346 158.255 41.6676 158.181 41.6138C158.093 41.5471 157.999 41.4889 157.899 41.4399L157.548 41.2674C157.412 41.2038 157.293 41.1376 157.178 41.0727C157.07 41.0116 156.969 40.938 156.88 40.8535C156.797 40.7765 156.729 40.6854 156.681 40.5849C156.627 40.4603 156.603 40.3259 156.61 40.1914C156.617 40.0568 156.655 39.9254 156.721 39.8065C156.795 39.6853 156.897 39.5819 157.019 39.5042C157.149 39.4227 157.292 39.363 157.442 39.3277C157.873 39.2282 158.325 39.2526 158.742 39.3978V39.8765C158.485 39.719 158.184 39.6411 157.88 39.6534C157.782 39.6538 157.685 39.6634 157.589 39.6819C157.497 39.6994 157.41 39.7314 157.33 39.7766C157.255 39.8195 157.192 39.878 157.144 39.9479C157.093 40.0253 157.068 40.1159 157.072 40.2074C157.07 40.2906 157.089 40.3731 157.128 40.4474C157.167 40.5188 157.221 40.5816 157.286 40.6316C157.367 40.6932 157.453 40.7475 157.544 40.7938C157.646 40.847 157.763 40.9028 157.895 40.9651C158.026 41.0273 158.166 41.0948 158.281 41.1688C158.397 41.2346 158.504 41.3135 158.601 41.4036C158.69 41.4865 158.763 41.5829 158.819 41.689C158.875 41.8016 158.903 41.9251 158.9 42.0497C158.905 42.2072 158.868 42.3632 158.791 42.5025C158.72 42.6253 158.618 42.7295 158.495 42.8061C158.363 42.8864 158.217 42.9435 158.064 42.9747C157.896 43.0091 157.724 43.0261 157.552 43.0253C157.478 43.0254 157.404 43.0211 157.33 43.0124C157.242 43.0033 157.151 42.989 157.059 42.9721C156.971 42.955 156.884 42.9329 156.799 42.906C156.729 42.8852 156.662 42.856 156.599 42.8191L156.601 42.81ZM162.506 42.9566H162.062V41.3011H160.101V42.9566H159.657V39.3238H160.101V40.9158H162.062V39.3238H162.506V42.9566ZM163.945 42.9566H163.501V39.3238H163.945V42.9566ZM168 42.9566H167.458L165.507 40.0621C165.458 39.9909 165.417 39.9153 165.385 39.8363H165.37C165.389 40.0017 165.396 40.1682 165.391 40.3345V42.9566H164.947V39.3238H165.523L167.42 42.1781C167.475 42.2565 167.526 42.3374 167.573 42.4207H167.584C167.562 42.2434 167.553 42.0648 167.557 41.8862V39.329H168V42.9618V42.9566Z" fill="#EB1A21"/>
<defs>
<linearGradient id="paint0_linear_528_20" x1="9.01499" y1="4.63984" x2="40.2713" y2="48.3208" gradientUnits="userSpaceOnUse">
<stop stop-color="#EB1D23"/>
<stop offset="1" stop-color="#A30003"/>
</linearGradient>
</defs>
</svg>
