<svg width="1920" height="936" viewBox="0 0 1920 936" fill="none" xmlns="http://www.w3.org/2000/svg">
<g clip-path="url(#clip0_159_1025)">
<mask id="path-1-inside-1_159_1025" fill="white">
<path d="M0 0H1920V936H0V0Z"/>
</mask>
<path d="M0 0H1920V936H0V0Z" fill="#13191D"/>
<path d="M1883 1083.33C1853.9 1070.39 1781.04 1037.22 1682.92 992.551C1301.95 819.108 540.568 472.479 485.552 465.715L485.522 465.711C469.213 463.748 437.099 465.491 398.51 469.142C360.582 472.73 316.077 478.166 274.302 483.7C248.173 487.109 154.204 496.2 68.434 495.882C37.9873 495.77 8.61597 494.466 -16.1989 491.29C-40.7313 488.151 -60.8285 483.164 -73.084 475.658C-81.8422 470.294 -86.6431 463.634 -86.264 455.434L-93.5759 455.409C-93.9711 463.939 -88.9309 470.896 -79.7372 476.526C-66.6672 484.531 -45.2852 489.843 -19.2096 493.18C6.57837 496.48 36.9469 497.834 68.3505 497.95C155.44 498.274 250.845 489.043 277.372 485.579L277.385 485.575C318.926 480.072 363.169 474.669 400.838 471.104C437.836 467.604 468.183 465.878 482.637 467.615C535.614 474.152 1296.14 820.392 1676.69 993.645C1774.98 1038.39 1847.96 1071.62 1876.8 1084.44L1883 1083.33H1883Z" fill="#CA1217" fill-opacity="0.2"/>
<path d="M1866.45 1083.7C1837.19 1070.73 1761.33 1036.22 1659.58 989.938C1281.15 817.803 543.869 482.44 489.076 475.449L489.046 475.445C474.522 473.636 447.89 474.751 415.433 477.554C375.29 481.02 325.859 487.057 279.632 493.276C252.283 496.893 147.276 507.928 56.0304 507.697C27.2129 507.624 -0.187988 506.423 -23.2043 503.498C-45.9412 500.609 -64.4332 496.022 -75.7963 489.15C-84.0302 484.171 -88.5625 477.979 -88.3206 470.353L-95.6083 470.337C-95.8583 478.286 -91.0786 484.773 -82.3958 490.023C-70.2181 497.387 -50.4517 502.296 -26.1719 505.382C-2.17163 508.431 26.2131 509.683 55.9769 509.759C148.572 509.993 255.036 498.806 282.738 495.144H282.754C328.767 488.953 377.878 482.951 417.551 479.526C448.411 476.862 473.326 475.749 486.084 477.334C538.896 484.091 1275.36 819.082 1653.38 991.029C1754.67 1037.11 1830.19 1071.45 1860.31 1084.81L1866.46 1083.7H1866.45Z" fill="#CA1217" fill-opacity="0.2"/>
<path d="M1849.36 1084.09C1819.36 1070.82 1740.82 1035.13 1635.92 987.462C1260.61 816.899 547.31 492.744 492.718 485.519L492.688 485.515C478.072 483.631 451.566 484.7 419.316 487.486C379.673 490.91 330.955 496.921 285.186 503.179C256.723 506.991 140.028 520.258 43.7662 520.136C16.6476 520.102 -8.80164 519.002 -30.0762 516.319C-51.0764 513.672 -68.047 509.464 -78.5552 503.192C-86.281 498.581 -90.558 492.845 -90.4478 485.782L-97.7059 485.774C-97.8215 493.164 -93.2972 499.195 -85.1305 504.07C-73.8104 510.827 -55.5764 515.353 -33.0358 518.195C-10.7694 521.003 15.6716 522.154 43.7391 522.19C141.415 522.313 259.502 508.894 288.288 505.038L288.315 505.033C333.848 498.809 382.232 492.835 421.424 489.45C452.066 486.803 476.836 485.733 489.65 487.379C542.299 494.361 1254.83 818.167 1629.75 988.549C1734.22 1036.03 1812.45 1071.58 1843.24 1085.19L1849.36 1084.09V1084.09Z" fill="#CA1217" fill-opacity="0.2"/>
<path d="M1813.31 1074.89C1781.63 1060.98 1698.04 1023.07 1587.47 972.92C1220.03 806.272 554.568 504.459 500.412 496.756L500.369 496.748C485.6 494.712 459.379 495.681 427.572 498.431C388.964 501.769 341.701 507.731 296.853 514.072L296.848 514.069C274.904 517.092 195.204 527.598 113.117 533.303C68.5818 536.398 23.3824 538.079 -13.5131 536.372C-49.6345 534.701 -77.772 529.746 -89.229 519.599C-92.8555 516.387 -94.8475 512.649 -94.9363 508.328L-102.132 508.336C-102.038 512.871 -99.9281 516.811 -96.0865 520.214C-83.6537 531.228 -53.417 536.591 -14.6719 538.384C23.3016 540.14 69.4771 538.434 114.838 535.282C197.661 529.527 277.915 518.948 300.006 515.905L300.036 515.897C344.582 509.598 391.481 503.679 429.661 500.379C459.804 497.773 484.242 496.798 497.202 498.583C549.77 506.139 1214.36 807.554 1581.35 973.998C1691.87 1024.13 1775.42 1062.02 1807.24 1076L1813.31 1074.89Z" fill="#CA1217" fill-opacity="0.2"/>
<path d="M1794.25 1075.32C1761.93 1061.17 1675.86 1022.18 1562.59 970.864C1199.93 806.562 558.41 515.927 504.465 507.977L504.422 507.973C489.562 505.855 463.516 506.768 431.965 509.497C393.825 512.796 347.308 518.733 302.974 525.115L302.482 525.186C269.992 529.729 115.991 551.259 8.38721 551.613C-51.2775 551.81 -96.493 545.38 -97.313 525.527L-104.477 525.543C-103.595 546.922 -55.2936 553.848 8.44373 553.638C117.724 553.278 272.915 531.582 305.654 527.004L306.227 526.926C350.311 520.58 396.451 514.686 434.037 511.435C463.882 508.854 488.113 507.929 501.146 509.778C553.356 517.475 1194.2 807.806 1556.48 971.936C1669.7 1023.23 1755.71 1062.2 1788.2 1076.42L1794.24 1075.32L1794.25 1075.32Z" fill="#CA1217" fill-opacity="0.2"/>
<path d="M1774.42 1075.77C1741.59 1061.45 1653.12 1021.41 1537.31 969.002C1180.01 807.318 562.429 527.854 508.681 519.648L508.638 519.644C493.689 517.44 467.828 518.296 436.559 521.002C398.991 524.252 353.243 530.167 309.396 536.597L302.482 537.586C257.955 543.989 101.859 566.44 -2.81696 566.976C-57.96 567.259 -98.6218 561.343 -99.7723 543.408L-106.902 543.44C-105.654 562.882 -61.9548 569.297 -2.70404 568.993C103.676 568.447 260.882 545.838 305.724 539.389L312.665 538.393C356.222 532.005 401.569 526.139 438.626 522.932C468.175 520.375 492.202 519.504 505.302 521.427C557.369 529.378 1174.31 808.553 1531.24 970.07C1646.87 1022.4 1735.21 1062.37 1768.44 1076.87L1774.42 1075.77V1075.77Z" fill="#CA1217" fill-opacity="0.2"/>
<path d="M1753.79 1076.23C1720.33 1061.69 1629.6 1020.68 1511.52 967.317C1160.17 808.524 566.625 540.268 513.068 531.801L513.028 531.793C498.004 529.502 472.345 530.297 441.366 532.98C404.371 536.182 359.437 542.069 316.112 548.546C313.402 548.935 308.867 549.614 303.173 550.464C249.796 558.446 89.2488 582.457 -13.7093 583.195C-64.4114 583.558 -100.893 578.153 -102.339 562.027L-109.431 562.074C-107.853 579.687 -68.3846 585.593 -13.5425 585.199C91.1146 584.449 252.746 560.277 306.483 552.241C311.754 551.453 315.937 550.826 319.335 550.337L319.378 550.328C362.411 543.895 406.949 538.055 443.422 534.898C472.662 532.367 496.477 531.554 509.651 533.561C561.759 541.857 1154.56 809.774 1505.49 968.379C1623.41 1021.68 1714.02 1062.63 1747.84 1077.32L1753.79 1076.23Z" fill="#CA1217" fill-opacity="0.2"/>
<path d="M1732.27 1076.71C1697.64 1061.72 1605 1019.91 1485.16 965.826C1140.36 810.198 570.977 553.208 517.657 544.479L517.6 544.471C502.487 542.087 477.049 542.818 446.398 545.473C409.978 548.628 365.843 554.494 323.028 561.024C318.939 561.625 312.622 562.612 304.391 563.898C243.449 573.419 77.321 599.373 -24.285 600.333C-70.6726 600.772 -103.316 595.873 -105.02 581.452L-112.074 581.515C-110.195 597.404 -74.6161 602.805 -24.0645 602.328C79.2727 601.351 246.46 575.231 307.789 565.65C316.076 564.356 322.429 563.363 326.316 562.792L326.37 562.784C368.862 556.302 412.567 550.489 448.438 547.382C477.301 544.882 500.855 544.129 514.111 546.207C565.95 554.694 1134.74 811.417 1479.19 966.882C1599.49 1021.18 1692.5 1063.16 1726.35 1077.8L1732.27 1076.71H1732.27Z" fill="#CA1217" fill-opacity="0.2"/>
<path d="M1709.78 1077.22C1674.8 1062.15 1580.03 1019.44 1458.24 964.549C1120.62 812.384 575.577 566.735 522.434 557.728L522.38 557.72C507.173 555.239 481.976 555.901 451.664 558.529C415.871 561.631 372.583 567.473 330.305 574.058C325.483 574.781 317.158 576.143 306.058 577.959C238.192 589.059 65.8025 617.255 -34.5481 618.462C-76.7609 618.97 -105.89 614.57 -107.818 601.754L-114.831 601.831C-112.683 616.099 -80.6644 621.003 -34.2714 620.445C67.8346 619.217 241.291 590.846 309.579 579.677C320.647 577.867 328.935 576.511 333.636 575.808L333.69 575.801C375.618 569.269 418.465 563.483 453.729 560.426C482.219 557.957 505.506 557.267 518.834 559.43C570.526 568.192 1115.02 813.594 1452.3 965.607C1574.31 1020.59 1669.23 1063.38 1703.89 1078.3L1709.78 1077.22H1709.78Z" fill="#CA1217" fill-opacity="0.2"/>
<path d="M1686.2 1077.75C1650.95 1062.63 1554.2 1019.1 1430.71 963.53C1100.92 815.128 580.381 580.895 527.428 571.604L527.388 571.596C512.09 569.013 487.154 569.604 457.213 572.2C422.048 575.25 379.634 581.067 337.921 587.709C332.574 588.526 322.203 590.303 308.149 592.712C233.694 605.474 54.5362 636.18 -44.5375 637.662C-82.7369 638.234 -108.64 634.323 -110.759 623.011L-117.729 623.111C-115.345 635.855 -86.581 640.267 -44.1827 639.633C56.6249 638.125 236.855 607.234 311.757 594.396C325.593 592.024 335.792 590.276 341.281 589.439L341.335 589.432C382.693 582.845 424.653 577.086 459.261 574.085C487.372 571.647 510.391 571.026 523.789 573.284C575.467 582.392 1095.38 816.346 1424.8 964.579C1548.21 1020.11 1644.88 1063.61 1680.38 1078.83L1686.2 1077.74L1686.2 1077.75Z" fill="#CA1217" fill-opacity="0.2"/>
<path d="M1661.48 1078.3C1625.51 1062.96 1527.14 1018.77 1402.47 962.769C1081.18 818.446 585.421 595.746 532.689 586.166L532.635 586.158C517.248 583.47 492.603 583.983 463.065 586.546C428.613 589.535 387.123 595.326 345.983 602.03C339.867 602.978 327.545 605.192 310.636 608.23C229.75 622.761 43.4043 656.238 -54.2339 658.027C-88.6025 658.658 -111.563 655.223 -113.831 645.323L-120.756 645.445C-118.162 656.759 -92.3741 660.692 -53.7985 659.985C45.6409 658.163 233.025 624.5 314.359 609.888C331.211 606.86 343.494 604.654 349.322 603.747L349.375 603.735C390.113 597.096 431.143 591.367 465.103 588.419C492.759 586.018 515.458 585.469 528.945 587.814C580.386 597.162 1075.65 819.636 1396.61 963.813C1521.37 1019.86 1619.83 1064.08 1655.69 1079.38L1661.48 1078.3L1661.48 1078.3Z" fill="#CA1217" fill-opacity="0.2"/>
<path d="M1635.45 1078.88C1599.07 1063.45 1499.15 1018.65 1373.49 962.316C1061.45 822.411 590.741 611.37 538.206 601.488L538.152 601.48C522.679 598.681 498.348 599.112 469.245 601.639C435.46 604.574 394.917 610.338 354.4 617.103C347.865 618.142 333.459 620.854 313.528 624.607C226.28 641.032 32.4176 677.53 -63.6857 679.669C-94.4119 680.352 -114.681 677.382 -117.071 668.797L-123.947 668.95C-121.17 678.928 -98.0891 682.391 -63.1451 681.614C34.7296 679.436 229.621 642.744 317.332 626.232C337.112 622.508 351.408 619.816 357.774 618.804L357.841 618.792C397.976 612.09 438.051 606.386 471.272 603.501C498.466 601.139 520.837 600.667 534.41 603.112C585.712 612.765 1055.94 823.591 1367.67 963.355C1493.32 1019.69 1593.23 1064.49 1629.73 1079.96L1635.45 1078.88L1635.45 1078.88Z" fill="#CA1217" fill-opacity="0.2"/>
<path d="M1607.99 1079.5C1571.11 1063.95 1469.93 1018.68 1343.72 962.216C1041.68 827.086 596.362 627.851 544.036 617.658L543.982 617.646C528.415 614.729 504.425 615.073 475.788 617.563C442.753 620.434 403.188 626.175 363.281 633.011C356.279 634.152 339.77 637.407 316.791 641.939C223.169 660.403 21.4818 700.179 -72.8984 702.715C-100.202 703.449 -118.036 700.926 -120.509 693.565L-127.305 693.747C-124.372 702.477 -103.762 705.484 -72.2559 704.637C23.9064 702.054 226.608 662.077 320.7 643.521C343.544 639.016 359.953 635.779 366.684 634.684L366.752 634.672C406.228 627.908 445.298 622.234 477.793 619.409C504.506 617.087 526.533 616.699 540.195 619.255C591.542 629.31 1036.28 828.282 1337.94 963.245C1464.15 1019.71 1565.33 1064.98 1602.32 1080.57L1607.99 1079.5Z" fill="#CA1217" fill-opacity="0.2"/>
<path d="M1578.94 1080.15C1541.57 1064.5 1439.4 1018.9 1313.06 962.505C1021.86 832.538 602.324 645.285 550.189 634.765L550.135 634.754C534.477 631.713 510.863 631.964 482.737 634.411C450.416 637.223 411.862 642.942 372.615 649.854C365.281 651.083 346.587 654.942 320.474 660.334C220.411 680.995 10.6293 724.311 -81.8879 727.309C-105.982 728.09 -121.601 725.997 -124.122 719.774L-130.862 719.992C-127.792 727.566 -109.41 730.132 -81.1163 729.215C13.1427 726.161 223.919 682.64 324.458 661.881C350.413 656.522 368.972 652.69 376.133 651.494L376.201 651.483C415.024 644.646 453.051 638.998 484.729 636.242C510.896 633.965 532.53 633.666 546.291 636.332C597.413 646.678 1016.46 833.712 1307.33 963.533C1433.68 1019.93 1535.86 1065.54 1573.32 1081.22L1578.95 1080.15L1578.94 1080.15Z" fill="#CA1217" fill-opacity="0.2"/>
<path d="M1548.08 1080.84C1510.46 1065.2 1407.52 1019.38 1281.4 963.246C1001.95 838.855 608.647 663.787 556.73 652.934L556.679 652.923C539.595 649.483 513.742 649.951 483.051 652.959C453.072 655.896 418.295 661.257 382.593 667.73C374.792 669.076 353.875 673.595 324.563 679.928C217.946 702.962 -0.182678 750.088 -90.6783 753.634C-111.816 754.461 -125.445 752.781 -127.982 747.602L-134.636 747.863C-131.45 754.367 -115.065 756.507 -89.7587 755.515C2.48969 751.901 221.559 704.571 328.638 681.437C357.943 675.106 378.832 670.594 386.142 669.34L386.22 669.329C421.551 662.924 455.855 657.63 485.234 654.751C513.888 651.944 537.673 651.434 552.757 654.464C603.725 665.145 996.573 840.011 1275.72 964.265C1401.64 1020.32 1504.42 1066.06 1542.53 1081.91L1548.08 1080.84H1548.08Z" fill="#CA1217" fill-opacity="0.2"/>
<path d="M1515.2 1081.58C1476.82 1065.75 1373.72 1020.01 1248.66 964.513C981.906 846.146 615.352 683.493 563.687 672.298L563.647 672.292C546.485 668.706 521.254 669.05 491.345 671.993C462.191 674.862 428.4 680.211 393.311 686.772C385.362 688.176 361.978 693.459 329.093 700.887C215.79 726.485 -10.8331 777.682 -99.2507 781.897C-117.705 782.777 -129.574 781.489 -132.092 777.265L-138.652 777.574C-135.356 783.101 -120.74 784.829 -98.1539 783.753C-8.02118 779.456 219.487 728.058 333.235 702.361C365.948 694.971 389.209 689.715 396.827 688.37L396.905 688.355C431.615 681.865 464.946 676.581 493.533 673.768C521.361 671.029 544.507 670.637 559.655 673.794C610.405 684.791 976.584 847.277 1243.07 965.523C1368.27 1021.08 1471.5 1066.89 1509.71 1082.64L1515.2 1081.58V1081.58Z" fill="#CA1217" fill-opacity="0.2"/>
<path d="M1479.98 1082.37C1441.27 1066.55 1338.31 1021.03 1214.77 966.412C961.796 854.567 622.566 704.586 571.144 693.032L571.093 693.021C553.87 689.284 529.31 689.494 500.24 692.37C471.917 695.171 439.143 700.514 404.68 707.178C396.47 708.677 370.561 714.795 334.093 723.405C213.979 751.764 -21.1774 807.285 -107.573 812.352H-107.587C-123.687 813.296 -134.034 812.383 -136.501 809.016L-142.937 809.387C-139.533 814.029 -126.429 815.356 -106.248 814.172C-18.1854 809.002 217.785 753.289 338.316 724.832C374.655 716.252 400.459 710.16 408.26 708.737L408.338 708.722C442.395 702.137 474.683 696.866 502.401 694.124C529.356 691.458 551.821 691.194 567.052 694.489C617.661 705.863 956.527 855.683 1209.23 967.409C1332.87 1022.07 1435.91 1067.63 1474.57 1083.43L1479.98 1082.37Z" fill="#CA1217" fill-opacity="0.2"/>
<path d="M1442.08 1083.22C1403.16 1067.48 1300.87 1022.45 1179.55 969.041C941.554 864.274 630.357 727.282 579.147 715.343L579.109 715.332C561.808 711.431 537.977 711.497 509.808 714.298C482.377 717.027 450.686 722.367 416.885 729.142C408.476 730.74 379.865 737.796 339.596 747.727C212.605 779.045 -30.8032 839.075 -115.551 845.299C-129.737 846.342 -138.864 845.787 -141.267 843.173L-147.544 843.633C-144.009 847.483 -132.108 848.411 -113.923 847.075C-27.6958 840.741 216.476 780.524 343.865 749.108C384.062 739.195 412.586 732.16 420.57 730.652L420.645 730.637C453.99 723.953 485.157 718.695 511.942 716.03C537.991 713.439 559.749 713.316 575.066 716.77C625.578 728.577 936.374 865.393 1174.08 970.033C1295.34 1023.41 1397.58 1068.42 1436.76 1084.27L1442.08 1083.22H1442.08Z" fill="#CA1217" fill-opacity="0.2"/>
<path d="M1401.08 1084.14C1361.73 1068.41 1260.92 1024.26 1142.88 972.574C921.18 875.494 638.755 751.82 587.816 739.487L587.778 739.48C570.388 735.399 547.34 735.307 520.154 738.029C493.726 740.675 463.261 746 430.234 752.885C421.814 754.537 390.196 762.678 345.644 774.15C211.933 808.579 -38.7206 873.12 -122.759 881.069C-135.738 882.296 -144.093 882.11 -146.439 880.127L-152.501 880.701C-148.751 883.871 -137.587 884.377 -120.729 882.783C-35.3977 874.711 215.898 810.006 349.95 775.488C394.306 764.068 425.782 755.963 433.89 754.371L433.952 754.356C466.541 747.561 496.498 742.316 522.283 739.735C547.305 737.23 568.268 737.253 583.663 740.859C633.876 753.018 916.019 876.568 1137.49 973.55C1255.59 1025.26 1356.45 1069.43 1395.84 1085.18L1401.08 1084.14V1084.14Z" fill="#CA1217" fill-opacity="0.2"/>
<path d="M1356.38 1085.14C1316.67 1069.48 1218.21 1026.64 1104.55 977.196C900.65 888.498 647.879 778.537 597.257 765.795L597.219 765.788C579.746 761.515 557.552 761.254 531.431 763.89C506.089 766.447 476.928 771.763 444.702 778.776C436.228 780.513 401.357 789.884 352.257 803.08C212.839 840.55 -41.683 908.954 -127.778 919.915C-141.125 921.614 -149.708 921.898 -152.122 920.382L-157.859 921.112C-153.657 923.752 -142.214 923.703 -125.195 921.536C-38.1371 910.453 216.893 841.912 356.588 804.368C405.483 791.227 440.21 781.893 448.39 780.216L448.465 780.198C480.21 773.289 508.845 768.06 533.547 765.568C557.466 763.155 577.574 763.34 593.072 767.123C643.102 779.717 895.599 889.56 1099.28 978.164C1213.1 1027.68 1311.7 1070.57 1351.26 1086.18L1356.38 1085.14Z" fill="#CA1217" fill-opacity="0.2"/>
<path d="M1307.27 1086.25C1267.6 1070.84 1172.48 1029.81 1064.39 983.191C880.048 903.678 657.968 807.889 607.604 794.696L607.58 794.687C590.026 790.206 568.789 789.76 543.832 792.301C519.62 794.766 491.883 800.073 460.557 807.224C452.003 809.074 413.53 819.865 359.459 835.03C219.917 874.166 -23.7228 942.5 -121.525 960.607C-141.977 964.393 -155.216 965.978 -158.471 964.572L-163.633 965.527C-158.015 967.953 -141.869 966.458 -118.151 962.067C-19.8677 943.871 224.081 875.451 363.798 836.264C417.753 821.131 456.13 810.367 464.326 808.601L464.385 808.588C495.248 801.541 522.442 796.326 545.902 793.938C568.628 791.624 587.822 791.993 603.451 795.983C653.253 809.039 875.086 904.72 1059.23 984.146C1167.24 1030.73 1262.28 1071.73 1302.3 1087.27L1307.27 1086.25L1307.27 1086.25Z" fill="#CA1217" fill-opacity="0.2"/>
<path d="M1252.8 1087.47C1212.9 1072.26 1122.76 1033.83 1022.14 990.929C859.316 921.513 669.059 840.399 619.08 826.753L619.056 826.746C601.402 822.032 581.222 821.38 557.576 823.815C534.7 826.17 508.568 831.463 478.229 838.769C469.774 840.694 427.056 853.197 367.16 870.729C189.083 922.853 -141.673 1019.66 -165.787 1013.56L-169.784 1014.82C-141.37 1022.02 191.997 924.441 371.483 871.906C431.22 854.42 473.823 841.951 481.984 840.09L482.043 840.073C511.882 832.886 537.471 827.691 559.619 825.41C581.009 823.208 599.179 823.774 614.943 827.982C664.47 841.515 854.502 922.531 1017.13 991.867C1117.78 1034.77 1207.94 1073.21 1247.98 1088.48L1252.8 1087.47Z" fill="#CA1217" fill-opacity="0.2"/>
<path d="M1191.64 1088.85C1151.79 1074 1068.57 1039.11 977.549 1000.96C838.623 942.73 681.53 876.883 631.951 862.746L631.941 862.743C614.174 857.769 595.193 856.885 573.021 859.199C551.601 861.436 527.259 866.716 498.033 874.196C489.721 876.221 441.869 890.842 375.069 911.251C188.159 968.36 -147.635 1070.96 -174.469 1068.58L-176.198 1070.15C-145.891 1072.84 191.511 969.745 379.314 912.363C445.949 892.003 493.686 877.416 501.821 875.435L501.866 875.422C530.579 868.072 554.375 862.897 575.015 860.741C594.913 858.663 611.938 859.452 627.841 863.904C677 877.923 833.94 943.706 972.732 1001.88C1063.69 1040.01 1146.86 1074.87 1187.02 1089.84L1191.63 1088.85H1191.64Z" fill="#CA1217" fill-opacity="0.2"/>
<path d="M1121.89 1090.42C1082.05 1076 1008.66 1046.07 930.293 1014.11C818.066 968.343 695.648 918.422 646.589 903.778L646.578 903.775C628.712 898.512 611.104 897.365 590.618 899.545C570.857 901.647 548.571 906.908 520.633 914.582C512.45 916.741 457.675 934.222 381.854 958.42C184.893 1021.28 -154.385 1129.56 -184.55 1131.5L-183.34 1133.02C-151.442 1130.97 188.586 1022.45 385.981 959.453C461.664 935.299 516.342 917.849 524.391 915.725L524.434 915.713C551.878 908.175 573.639 903.019 592.561 901.006C610.763 899.07 626.497 900.115 642.591 904.854C691.371 919.415 813.655 969.282 925.756 1015C1004.15 1046.97 1077.58 1076.91 1117.55 1091.38L1121.89 1090.42V1090.42Z" fill="#CA1217" fill-opacity="0.2"/>
</g>
<path d="M1920 932H0V940H1920V932Z" fill="#CA1217" mask="url(#path-1-inside-1_159_1025)"/>
<defs>
<clipPath id="clip0_159_1025">
<path d="M0 0H1920V936H0V0Z" fill="white"/>
</clipPath>
</defs>
</svg>
