<svg width="1920" height="936" fill="none" xmlns="http://www.w3.org/2000/svg"><g clip-path="url(#clip0_159_1025)"><mask id="a" fill="#fff"><path d="M0 0h1920v936H0V0z"/></mask><path d="M0 0h1920v936H0V0z" fill="#13191D"/><path d="M1883 1083.33c-29.1-12.94-101.96-46.11-200.08-90.779C1301.95 819.108 540.568 472.479 485.552 465.715l-.03-.004c-16.309-1.963-48.423-.22-87.012 3.431-37.928 3.588-82.433 9.024-124.208 14.558-26.129 3.409-120.098 12.5-205.868 12.182-30.447-.112-59.818-1.416-84.633-4.592-24.532-3.139-44.63-8.126-56.885-15.632-8.758-5.364-13.56-12.024-13.18-20.224l-7.312-.025c-.395 8.53 4.645 15.487 13.839 21.117 13.07 8.005 34.452 13.317 60.527 16.654 25.788 3.3 56.157 4.654 87.56 4.77 87.09.324 182.495-8.907 209.022-12.371l.013-.004c41.541-5.503 85.784-10.906 123.453-14.471 36.998-3.5 67.345-5.226 81.799-3.489 52.977 6.537 813.503 352.777 1194.053 526.03 98.29 44.745 171.27 77.975 200.11 90.795l6.2-1.11z" fill="#CA1217" fill-opacity=".2"/><path d="M1866.45 1083.7c-29.26-12.97-105.12-47.48-206.87-93.762C1281.15 817.803 543.869 482.44 489.076 475.449l-.03-.004c-14.524-1.809-41.156-.694-73.613 2.109-40.143 3.466-89.574 9.503-135.801 15.722-27.349 3.617-132.356 14.652-223.602 14.421-28.817-.073-56.218-1.274-79.234-4.199-22.737-2.889-41.23-7.476-52.592-14.348-8.234-4.979-12.766-11.171-12.525-18.797l-7.287-.016c-.25 7.949 4.53 14.436 13.212 19.686 12.178 7.364 31.944 12.273 56.224 15.359 24 3.049 52.385 4.301 82.149 4.377 92.595.234 199.059-10.953 226.761-14.615h.016c46.013-6.191 95.124-12.193 134.797-15.618 30.86-2.664 55.775-3.777 68.533-2.192 52.812 6.757 789.276 341.748 1167.296 513.695 101.29 46.081 176.81 80.421 206.93 93.781l6.15-1.11h-.01z" fill="#CA1217" fill-opacity=".2"/><path d="M1849.36 1084.09c-30-13.27-108.54-48.96-213.44-96.628C1260.61 816.899 547.31 492.744 492.718 485.519l-.03-.004c-14.616-1.884-41.122-.815-73.372 1.971-39.643 3.424-88.361 9.435-134.13 15.693-28.463 3.812-145.158 17.079-241.42 16.957-27.118-.034-52.568-1.134-73.842-3.817-21-2.647-37.971-6.855-48.48-13.127-7.725-4.611-12.002-10.347-11.892-17.41l-7.258-.008c-.115 7.39 4.409 13.421 12.576 18.296 11.32 6.757 29.554 11.283 52.094 14.125 22.267 2.808 48.708 3.959 76.775 3.995 97.676.123 215.763-13.296 244.549-17.152l.027-.005c45.533-6.224 93.917-12.198 133.109-15.583 30.642-2.647 55.412-3.717 68.226-2.071 52.649 6.982 765.18 330.788 1140.1 501.17 104.47 47.481 182.7 83.031 213.49 96.641l6.12-1.1z" fill="#CA1217" fill-opacity=".2"/><path d="M1813.31 1074.89c-31.68-13.91-115.27-51.82-225.84-101.97C1220.03 806.272 554.568 504.459 500.412 496.756l-.043-.008c-14.769-2.036-40.99-1.067-72.797 1.683-38.608 3.338-85.871 9.3-130.719 15.641l-.005-.003c-21.944 3.023-101.644 13.529-183.731 19.234-44.535 3.095-89.735 4.776-126.63 3.069-36.122-1.671-64.259-6.626-75.716-16.773-3.627-3.212-5.618-6.95-5.707-11.271l-7.196.008c.094 4.535 2.204 8.475 6.046 11.878 12.432 11.014 42.669 16.377 81.414 18.17 37.974 1.756 84.15.05 129.51-3.102 82.823-5.755 163.077-16.334 185.168-19.377l.03-.008c44.546-6.299 91.445-12.218 129.625-15.518 30.143-2.606 54.581-3.581 67.541-1.796 52.568 7.556 717.158 308.971 1084.148 475.415 110.52 50.132 194.07 88.022 225.89 102.002l6.07-1.11z" fill="#CA1217" fill-opacity=".2"/><path d="M1794.25 1075.32c-32.32-14.15-118.39-53.14-231.66-104.456C1199.93 806.562 558.41 515.927 504.465 507.977l-.043-.004c-14.86-2.118-40.906-1.205-72.457 1.524-38.14 3.299-84.657 9.236-128.991 15.618l-.492.071c-32.49 4.543-186.491 26.073-294.095 26.427-59.665.197-104.88-6.233-105.7-26.086l-7.164.016c.882 21.379 49.183 28.305 112.92 28.095 109.281-.36 264.472-22.056 297.211-26.634l.573-.078c44.084-6.346 90.224-12.24 127.81-15.491 29.845-2.581 54.076-3.506 67.109-1.657 52.21 7.697 693.054 298.028 1055.334 462.158 113.22 51.294 199.23 90.264 231.72 104.484l6.04-1.1h.01z" fill="#CA1217" fill-opacity=".2"/><path d="M1774.42 1075.77c-32.83-14.32-121.3-54.36-237.11-106.768-357.3-161.684-974.881-441.148-1028.629-449.354l-.043-.004c-14.949-2.204-40.81-1.348-72.079 1.358-37.568 3.25-83.316 9.165-127.163 15.595l-6.914.989c-44.527 6.403-200.623 28.854-305.299 29.39-55.143.283-95.805-5.633-96.955-23.568l-7.13.032c1.248 19.442 44.947 25.857 104.198 25.553 106.38-.546 263.586-23.155 308.428-29.604l6.941-.996c43.557-6.388 88.904-12.254 125.961-15.461 29.549-2.557 53.576-3.428 66.676-1.505 52.067 7.951 669.008 287.126 1025.938 448.643 115.63 52.33 203.97 92.3 237.2 106.8l5.98-1.1z" fill="#CA1217" fill-opacity=".2"/><path d="M1753.79 1076.23c-33.46-14.54-124.19-55.55-242.27-108.913-351.35-158.793-944.895-427.049-998.452-435.516l-.04-.008c-15.024-2.291-40.683-1.496-71.662 1.187-36.995 3.202-81.929 9.089-125.254 15.566-2.71.389-7.245 1.068-12.939 1.918-53.377 7.982-213.924 31.993-316.882 32.731-50.702.363-87.184-5.042-88.63-21.168l-7.092.047c1.578 17.613 41.046 23.519 95.888 23.125 104.658-.75 266.289-24.922 320.026-32.958 5.271-.788 9.454-1.415 12.852-1.904l.043-.009c43.033-6.433 87.571-12.273 124.044-15.43 29.24-2.531 53.055-3.344 66.229-1.337 52.108 8.296 644.909 276.213 995.839 434.818 117.92 53.301 208.53 94.251 242.35 108.941l5.95-1.09z" fill="#CA1217" fill-opacity=".2"/><path d="M1732.27 1076.71c-34.63-14.99-127.27-56.8-247.11-110.884-344.8-155.628-914.183-412.618-967.503-421.347l-.057-.008c-15.113-2.384-40.551-1.653-71.202 1.002-36.42 3.155-80.555 9.021-123.37 15.551-4.089.601-10.406 1.588-18.637 2.874-60.942 9.521-227.07 35.475-328.676 36.435-46.388.439-79.031-4.46-80.735-18.881l-7.054.063c1.879 15.889 37.458 21.29 88.01 20.813 103.337-.977 270.524-27.097 331.853-36.678 8.287-1.294 14.64-2.287 18.527-2.858l.054-.008c42.492-6.482 86.197-12.295 122.068-15.402 28.863-2.5 52.417-3.253 65.673-1.175 51.839 8.487 620.629 265.21 965.079 420.675 120.3 54.298 213.31 96.278 247.16 110.918l5.92-1.09z" fill="#CA1217" fill-opacity=".2"/><path d="M1709.78 1077.22c-34.98-15.07-129.75-57.78-251.54-112.671-337.62-152.165-882.663-397.814-935.806-406.821l-.054-.008c-15.207-2.481-40.404-1.819-70.716.809-35.793 3.102-79.081 8.944-121.359 15.529-4.822.723-13.147 2.085-24.247 3.901-67.866 11.1-240.255 39.296-340.606 40.503-42.213.508-71.342-3.892-73.27-16.708l-7.013.077c2.148 14.268 34.167 19.172 80.56 18.614 102.106-1.228 275.562-29.599 343.85-40.768 11.068-1.81 19.356-3.166 24.057-3.869l.054-.007c41.928-6.532 84.775-12.318 120.039-15.375 28.49-2.469 51.777-3.159 65.105-.996 51.692 8.762 596.186 254.164 933.466 406.177 122.01 54.983 216.93 97.773 251.59 112.693l5.89-1.08z" fill="#CA1217" fill-opacity=".2"/><path d="M1686.2 1077.75c-35.25-15.12-132-58.65-255.49-114.22-329.79-148.402-850.329-382.635-903.282-391.926l-.04-.008c-15.298-2.583-40.234-1.992-70.175.604-35.165 3.05-77.579 8.867-119.292 15.509-5.347.817-15.718 2.594-29.772 5.003-74.455 12.762-253.613 43.468-352.687 44.95-38.199.572-64.102-3.339-66.221-14.651l-6.97.1c2.384 12.744 31.148 17.156 73.546 16.522 100.808-1.508 281.038-32.399 355.94-45.237 13.836-2.372 24.035-4.12 29.524-4.957l.054-.007c41.358-6.587 83.318-12.346 117.926-15.347 28.111-2.438 51.13-3.059 64.528-.801 51.678 9.108 571.591 243.062 901.011 391.295 123.41 55.531 220.08 99.031 255.58 114.251l5.82-1.09v.01z" fill="#CA1217" fill-opacity=".2"/><path d="M1661.48 1078.3c-35.97-15.34-134.34-59.53-259.01-115.531-321.29-144.323-817.049-367.023-869.781-376.603l-.054-.008c-15.387-2.688-40.032-2.175-69.57.388-34.452 2.989-75.942 8.78-117.082 15.484-6.116.948-18.438 3.162-35.347 6.2-80.886 14.531-267.232 48.008-364.87 49.797-34.369.631-57.329-2.804-59.597-12.704l-6.925.122c2.594 11.314 28.382 15.247 66.958 14.54 99.439-1.822 286.823-35.485 368.157-50.097 16.852-3.028 29.135-5.234 34.963-6.141l.053-.012c40.738-6.639 81.768-12.368 115.728-15.316 27.656-2.401 50.355-2.95 63.842-.605 51.441 9.348 546.705 231.822 867.665 375.999 124.76 56.047 223.22 100.267 259.08 115.567l5.79-1.08z" fill="#CA1217" fill-opacity=".2"/><path d="M1635.45 1078.88c-36.38-15.43-136.3-60.23-261.96-116.564-312.04-139.905-782.749-350.946-835.284-360.828l-.054-.008c-15.473-2.799-39.804-2.368-68.907.159-33.785 2.935-74.328 8.699-114.845 15.464-6.535 1.039-20.941 3.751-40.872 7.504-87.248 16.425-281.11 52.923-377.214 55.062-30.726.683-50.995-2.287-53.385-10.872l-6.876.153c2.777 9.978 25.858 13.441 60.802 12.664 97.875-2.178 292.766-38.87 380.477-55.382 19.78-3.724 34.076-6.416 40.442-7.428l.067-.012c40.135-6.702 80.21-12.406 113.431-15.291 27.194-2.362 49.565-2.834 63.138-.389 51.302 9.653 521.53 220.479 833.26 360.243 125.65 56.335 225.56 101.135 262.06 116.605l5.72-1.08z" fill="#CA1217" fill-opacity=".2"/><path d="M1607.99 1079.5c-36.88-15.55-138.06-60.82-264.27-117.284-302.04-135.13-747.358-334.365-799.684-344.558l-.054-.012c-15.567-2.917-39.557-2.573-68.194-.083-33.035 2.871-72.6 8.612-112.507 15.448-7.002 1.141-23.511 4.396-46.49 8.928-93.622 18.464-295.31 58.24-389.69 60.776-27.303.734-45.137-1.789-47.61-9.15l-6.796.182c2.933 8.73 23.543 11.737 55.05 10.89 96.161-2.583 298.863-42.56 392.955-61.116 22.844-4.505 39.253-7.742 45.984-8.837l.068-.012c39.476-6.764 78.546-12.438 111.041-15.263 26.713-2.322 48.74-2.71 62.402-.154 51.347 10.055 496.085 209.027 797.745 343.99 126.21 56.465 227.39 101.735 264.38 117.325l5.67-1.07z" fill="#CA1217" fill-opacity=".2"/><path d="M1578.94 1080.15c-37.37-15.65-139.54-61.25-265.88-117.645-291.2-129.967-710.736-317.22-762.871-327.74l-.054-.011c-15.658-3.041-39.272-2.79-67.398-.343-32.321 2.812-70.875 8.531-110.122 15.443-7.334 1.229-26.028 5.088-52.141 10.48-100.063 20.661-309.845 63.977-402.362 66.975-24.094.781-39.713-1.312-42.234-7.535l-6.74.218c3.07 7.574 21.452 10.14 49.746 9.223 94.259-3.054 305.035-46.575 405.574-67.334 25.955-5.359 44.514-9.191 51.675-10.387l.068-.011c38.823-6.837 76.85-12.485 108.528-15.241 26.167-2.277 47.801-2.576 61.562.09 51.122 10.346 470.169 197.38 761.039 327.201 126.35 56.397 228.53 102.007 265.99 117.687l5.63-1.07h-.01z" fill="#CA1217" fill-opacity=".2"/><path d="M1548.08 1080.84c-37.62-15.64-140.56-61.46-266.68-117.594-279.45-124.391-672.753-299.459-724.67-310.312l-.051-.011c-17.084-3.44-42.937-2.972-73.628.036-29.979 2.937-64.756 8.298-100.458 14.771-7.801 1.346-28.718 5.865-58.03 12.198-106.617 23.034-324.746 70.16-415.241 73.706-21.138.827-34.767-.853-37.304-6.032l-6.654.261c3.186 6.504 19.571 8.644 44.877 7.652 92.249-3.614 311.318-50.944 418.397-74.078 29.305-6.331 50.194-10.843 57.504-12.097l.078-.011c35.331-6.405 69.635-11.699 99.014-14.578 28.654-2.807 52.439-3.317 67.523-.287 50.968 10.681 443.816 185.547 722.963 309.801 125.92 56.055 228.7 101.795 266.81 117.645l5.55-1.07z" fill="#CA1217" fill-opacity=".2"/><path d="M1515.2 1081.58c-38.38-15.83-141.48-61.57-266.54-117.067-266.754-118.367-633.308-281.02-684.973-292.215l-.04-.006c-17.162-3.586-42.393-3.242-72.302-.299-29.154 2.869-62.945 8.218-98.034 14.779-7.949 1.404-31.333 6.687-64.218 14.115-113.303 25.598-339.926 76.795-428.344 81.01-18.454.88-30.323-.408-32.841-4.632l-6.56.309c3.296 5.527 17.912 7.255 40.498 6.179 90.133-4.297 317.641-55.695 431.389-81.392 32.713-7.39 55.974-12.646 63.592-13.991l.078-.015c34.71-6.49 68.041-11.774 96.628-14.587 27.828-2.739 50.974-3.131 66.122.026 50.75 10.997 416.929 173.483 683.415 291.729 125.2 55.557 228.43 101.367 266.64 117.117l5.49-1.06z" fill="#CA1217" fill-opacity=".2"/><path d="M1479.98 1082.37c-38.71-15.82-141.67-61.34-265.21-115.958-252.974-111.845-592.204-261.826-643.626-273.38l-.051-.011c-17.223-3.737-41.783-3.527-70.853-.651-28.323 2.801-61.097 8.144-95.56 14.808-8.21 1.499-34.119 7.617-70.587 16.227-120.114 28.359-355.27 83.88-441.666 88.947h-.014c-16.1.944-26.447.031-28.914-3.336l-6.436.371c3.404 4.642 16.508 5.969 36.689 4.785 88.063-5.17 324.033-60.883 444.564-89.34 36.339-8.58 62.143-14.672 69.944-16.095l.078-.015c34.057-6.585 66.345-11.856 94.063-14.598 26.955-2.666 49.42-2.93 64.651.365 50.609 11.374 389.475 161.194 642.178 272.92 123.64 54.661 226.68 100.221 265.34 116.021l5.41-1.06z" fill="#CA1217" fill-opacity=".2"/><path d="M1442.08 1083.22c-38.92-15.74-141.21-60.77-262.53-114.179-237.996-104.767-549.193-241.759-600.403-253.698l-.038-.011c-17.301-3.901-41.132-3.835-69.301-1.034-27.431 2.729-59.122 8.069-92.923 14.844-8.409 1.598-37.02 8.654-77.289 18.585-126.991 31.318-370.4 91.348-455.147 97.572-14.186 1.043-23.313.488-25.716-2.126l-6.277.46c3.535 3.85 15.436 4.778 33.621 3.442 86.227-6.334 330.399-66.551 457.788-97.967 40.197-9.913 68.721-16.948 76.705-18.456l.075-.015c33.345-6.684 64.512-11.942 91.297-14.607 26.049-2.591 47.807-2.714 63.124.74 50.512 11.807 361.308 148.623 599.014 253.263 121.26 53.377 223.5 98.387 262.68 114.237l5.32-1.05z" fill="#CA1217" fill-opacity=".2"/><path d="M1401.08 1084.14c-39.35-15.73-140.16-59.88-258.2-111.566-221.7-97.08-504.125-220.754-555.064-233.087l-.038-.007c-17.39-4.081-40.438-4.173-67.624-1.451-26.428 2.646-56.893 7.971-89.92 14.856-8.42 1.652-40.038 9.793-84.59 21.265-133.711 34.429-384.365 98.97-468.403 106.919-12.979 1.227-21.334 1.041-23.68-.942l-6.062.574c3.75 3.17 14.914 3.676 31.772 2.082 85.331-8.072 336.627-72.777 470.679-107.295 44.356-11.42 75.832-19.525 83.94-21.117l.062-.015c32.589-6.795 62.546-12.04 88.331-14.621 25.022-2.505 45.985-2.482 61.38 1.124 50.213 12.159 332.356 135.709 553.827 232.691 118.1 51.71 218.96 95.88 258.35 111.63l5.24-1.04z" fill="#CA1217" fill-opacity=".2"/><path d="M1356.38 1085.14c-39.71-15.66-138.17-58.5-251.83-107.944-203.9-88.698-456.671-198.659-507.293-211.401l-.038-.007c-17.473-4.273-39.667-4.534-65.788-1.898-25.342 2.557-54.503 7.873-86.729 14.886-8.474 1.737-43.345 11.108-92.445 24.304-139.418 37.47-393.94 105.874-480.035 116.835-13.347 1.699-21.93 1.983-24.344.467l-5.737.73c4.202 2.64 15.645 2.591 32.664.424 87.058-11.083 342.088-79.624 481.783-117.168 48.895-13.141 83.622-22.475 91.802-24.152l.075-.018c31.745-6.909 60.38-12.138 85.082-14.63 23.919-2.413 44.027-2.228 59.525 1.555 50.03 12.594 302.527 122.437 506.208 211.041 113.82 49.516 212.42 92.406 251.98 108.016l5.12-1.04z" fill="#CA1217" fill-opacity=".2"/><path d="M1307.27 1086.25c-39.67-15.41-134.79-56.44-242.88-103.059-184.342-79.513-406.422-175.302-456.786-188.495l-.024-.009c-17.554-4.481-38.791-4.927-63.748-2.386-24.212 2.465-51.949 7.772-83.275 14.923-8.554 1.85-47.027 12.641-101.098 27.806C219.917 874.166-23.723 942.5-121.525 960.607c-20.452 3.786-33.691 5.371-36.946 3.965l-5.162.955c5.618 2.426 21.764.931 45.482-3.46 98.283-18.196 342.232-86.616 481.949-125.803 53.955-15.133 92.332-25.897 100.528-27.663l.059-.013c30.863-7.047 58.057-12.262 81.517-14.65 22.726-2.314 41.92-1.945 57.549 2.045 49.802 13.056 271.635 108.737 455.779 188.163 108.01 46.584 203.05 87.584 243.07 103.124l4.97-1.02z" fill="#CA1217" fill-opacity=".2"/><path d="M1252.8 1087.47c-39.9-15.21-130.04-53.64-230.66-96.541-162.824-69.416-353.081-150.53-403.06-164.176l-.024-.007c-17.654-4.714-37.834-5.366-61.48-2.931-22.876 2.355-49.008 7.648-79.347 14.954-8.455 1.925-51.173 14.428-111.069 31.96-178.077 52.124-508.833 148.931-532.947 142.831l-3.997 1.26c28.414 7.2 361.781-90.379 541.267-142.914 59.737-17.486 102.34-29.955 110.501-31.816l.059-.017c29.839-7.187 55.428-12.382 77.576-14.663 21.39-2.202 39.56-1.636 55.324 2.572 49.527 13.533 239.559 94.549 402.187 163.885 100.65 42.903 190.81 81.343 230.85 96.613l4.82-1.01z" fill="#CA1217" fill-opacity=".2"/><path d="M1191.64 1088.85c-39.85-14.85-123.07-49.74-214.091-87.89-138.926-58.23-296.019-124.077-345.598-138.214l-.01-.003c-17.767-4.974-36.748-5.858-58.92-3.544-21.42 2.237-45.762 7.517-74.988 14.997-8.312 2.025-56.164 16.646-122.964 37.055-186.91 57.109-522.704 159.709-549.538 157.329l-1.729 1.57c30.307 2.69 367.709-100.405 555.512-157.787 66.635-20.36 114.372-34.947 122.507-36.928l.045-.013c28.713-7.35 52.509-12.525 73.149-14.681 19.898-2.078 36.923-1.289 52.826 3.163C677 877.923 833.94 943.706 972.732 1001.88c90.958 38.13 174.128 72.99 214.288 87.96l4.61-.99h.01z" fill="#CA1217" fill-opacity=".2"/><path d="M1121.89 1090.42c-39.84-14.42-113.23-44.35-191.597-76.31-112.227-45.767-234.645-95.688-283.704-110.332l-.011-.003c-17.866-5.263-35.474-6.41-55.96-4.23-19.761 2.102-42.047 7.363-69.985 15.037-8.183 2.159-62.958 19.64-138.779 43.838-196.961 62.86-536.239 171.14-566.404 173.08l1.21 1.52c31.898-2.05 371.926-110.57 569.321-173.567 75.683-24.154 130.361-41.604 138.41-43.728l.043-.012c27.444-7.538 49.205-12.694 68.127-14.707 18.202-1.936 33.936-.891 50.03 3.848 48.78 14.561 171.064 64.428 283.165 110.146 78.394 31.97 151.824 61.91 191.794 76.38l4.34-.96z" fill="#CA1217" fill-opacity=".2"/></g><path d="M1920 932H0v8h1920v-8z" fill="#CA1217" mask="url(#a)"/><defs><clipPath id="clip0_159_1025"><path d="M0 0h1920v936H0V0z" fill="#fff"/></clipPath></defs></svg>