<svg width="32" height="32" fill="none" xmlns="http://www.w3.org/2000/svg"><g clip-path="url(#clip0_159_2641)" stroke="#C01818" stroke-width="2" stroke-linejoin="round"><path d="M6.572 21.838c-2.413.724-3.905 1.724-3.905 2.829 0 2.209 5.97 4 13.333 4 7.364 0 13.333-1.791 13.333-4 0-1.105-1.492-2.105-3.905-2.829" stroke-linecap="round"/><path d="M16 23.333s8.667-5.664 8.667-12.212c0-4.67-3.88-8.454-8.667-8.454-4.786 0-8.667 3.785-8.667 8.454C7.333 17.669 16 23.333 16 23.333z"/><path d="M16 14.667A3.333 3.333 0 1016 8a3.333 3.333 0 000 6.667z"/></g><defs><clipPath id="clip0_159_2641"><path fill="#fff" d="M0 0h32v32H0z"/></clipPath></defs></svg>