<svg width="1826" height="602" viewBox="0 0 1826 602" fill="none" xmlns="http://www.w3.org/2000/svg">
<path d="M0.00269083 628.331C29.0971 615.395 101.955 582.225 200.083 537.551C581.052 364.108 1342.43 17.4794 1397.45 10.715L1397.48 10.7112C1413.79 8.74778 1445.9 10.4908 1484.49 14.1416C1522.42 17.7302 1566.92 23.1659 1608.7 28.6996C1634.83 32.1088 1728.8 41.1999 1814.57 40.8822C1845.01 40.7697 1874.38 39.466 1899.2 36.2902C1923.73 33.1509 1943.83 28.1637 1956.08 20.6582C1964.84 15.294 1969.64 8.63376 1969.26 0.433509L1976.58 0.40918C1976.97 8.93933 1971.93 15.896 1962.74 21.5263C1949.67 29.5312 1928.29 34.8429 1902.21 38.1799C1876.42 41.4804 1846.05 42.8342 1814.65 42.9505C1727.56 43.2735 1632.16 34.0425 1605.63 30.5794L1605.61 30.5748C1564.07 25.0723 1519.83 19.6685 1482.16 16.1043C1445.16 12.6039 1414.82 10.8784 1400.36 12.6145C1347.39 19.1516 586.859 365.392 206.306 538.645C108.017 583.393 35.038 616.618 6.19632 629.442L0 628.331H0.00269083Z" fill="#CA1217" fill-opacity="0.2"/>
<path d="M16.5457 628.703C45.8121 615.726 121.668 581.223 223.422 534.938C601.851 362.803 1339.13 27.4404 1393.92 20.4488L1393.95 20.445C1408.48 18.6359 1435.11 19.751 1467.57 22.5536C1507.71 26.0197 1557.14 32.0574 1603.37 38.276C1630.72 41.8927 1735.72 52.9282 1826.97 52.6972C1855.79 52.6242 1883.19 51.4232 1906.2 48.4982C1928.94 45.609 1947.43 41.0216 1958.8 34.1501C1967.03 29.1712 1971.56 22.9792 1971.32 15.3529L1978.61 15.3369C1978.86 23.2856 1974.08 29.7732 1965.4 35.0227C1953.22 42.3868 1933.45 47.2965 1909.17 50.3818C1885.17 53.4314 1856.79 54.6834 1827.02 54.7586C1734.43 54.9927 1627.96 43.8059 1600.26 40.1437H1600.25C1554.23 33.9532 1505.12 27.9512 1465.45 24.5261C1434.59 21.8618 1409.67 20.749 1396.92 22.3339C1344.1 29.0907 607.638 364.082 229.621 536.029C128.327 582.105 52.8095 616.455 22.6882 629.811L16.543 628.703H16.5457Z" fill="#CA1217" fill-opacity="0.2"/>
<path d="M33.6406 629.087C63.641 615.823 142.179 580.132 247.076 532.462C622.395 361.899 1335.69 37.7445 1390.28 30.5187L1390.31 30.5149C1404.93 28.6313 1431.43 29.7 1463.68 32.4859C1503.33 35.9103 1552.05 41.9214 1597.81 48.1787C1626.28 51.9908 1742.97 65.258 1839.23 65.1364C1866.35 65.1022 1891.8 64.0023 1913.08 61.3191C1934.08 58.6715 1951.05 54.4642 1961.56 48.1924C1969.28 43.5815 1973.56 37.8448 1973.45 30.7817L1980.71 30.7741C1980.82 38.1641 1976.3 44.1949 1968.13 49.0704C1956.81 55.8271 1938.58 60.3529 1916.04 63.195C1893.77 66.003 1867.33 67.1538 1839.26 67.1895C1741.58 67.3127 1623.5 53.8941 1594.71 50.038L1594.69 50.0334C1549.15 43.8088 1500.77 37.8349 1461.58 34.4501C1430.93 31.8033 1406.16 30.7331 1393.35 32.3795C1340.7 39.3613 628.172 363.167 253.253 533.549C148.779 581.027 70.555 616.575 39.7589 630.19L33.6406 629.088V629.087Z" fill="#CA1217" fill-opacity="0.2"/>
<path d="M78.6943 616.894C110.375 602.976 193.956 565.07 304.53 514.92C671.97 348.272 1337.43 46.459 1391.59 38.7559L1391.63 38.7483C1406.4 36.7119 1432.62 37.6811 1464.43 40.4312C1503.04 43.7689 1550.3 49.7314 1595.15 56.0724L1595.15 56.0693C1617.1 59.0916 1696.8 69.5981 1778.88 75.3028C1823.42 78.3981 1868.62 80.0787 1905.51 78.3722C1941.63 76.7007 1969.77 71.7462 1981.23 61.5992C1984.86 58.3869 1986.85 54.6494 1986.94 50.3281L1994.13 50.3357C1994.04 54.8714 1991.93 58.8111 1988.09 62.2142C1975.65 73.2277 1945.42 78.5911 1906.67 80.3835C1868.7 82.1402 1822.52 80.4344 1777.16 77.2822C1694.34 71.5265 1614.09 60.9478 1591.99 57.905L1591.96 57.8974C1547.42 51.5983 1500.52 45.6792 1462.34 42.3787C1432.2 39.773 1407.76 38.7977 1394.8 40.5832C1342.23 48.1389 677.642 349.554 310.654 515.998C200.126 566.127 116.582 604.017 84.7616 617.996L78.6943 616.894Z" fill="#CA1217" fill-opacity="0.2"/>
<path d="M97.7509 617.323C130.071 603.174 216.137 564.182 329.412 512.864C692.075 348.562 1333.59 57.927 1387.53 49.9768L1387.58 49.973C1402.44 47.8546 1428.48 48.7682 1460.04 51.4971C1498.18 54.796 1544.69 60.7334 1589.03 67.1154L1589.52 67.1861C1622.01 71.7286 1776.01 93.2592 1883.61 93.6135C1943.28 93.8096 1988.49 87.3796 1989.31 67.5266L1996.48 67.5426C1995.6 88.922 1947.29 95.8482 1883.56 95.6384C1774.28 95.2781 1619.09 73.5818 1586.35 69.0043L1585.77 68.926C1541.69 62.5797 1495.55 56.6857 1457.96 53.4347C1428.12 50.854 1403.89 49.9289 1390.85 51.7783C1338.64 59.4746 697.798 349.806 335.517 513.936C222.303 565.226 136.286 604.196 103.799 618.418L97.7616 617.322L97.7509 617.323Z" fill="#CA1217" fill-opacity="0.2"/>
<path d="M117.577 617.765C150.408 603.445 238.884 563.409 354.695 511.002C711.992 349.318 1329.57 69.8535 1383.32 61.6479L1383.36 61.6441C1398.31 59.4398 1424.17 60.2957 1455.44 63.0017C1493.01 66.252 1538.76 72.1666 1582.6 78.5973L1589.52 79.5862C1634.05 85.9895 1790.14 108.44 1894.82 108.976C1949.96 109.259 1990.62 103.343 1991.77 85.408L1998.9 85.4399C1997.65 104.882 1953.95 111.297 1894.7 110.993C1788.32 110.447 1631.12 87.8381 1586.28 81.3892L1579.33 80.3927C1535.78 74.0053 1490.43 68.1387 1453.37 64.9324C1423.83 62.3754 1399.8 61.5043 1386.7 63.4266C1334.63 71.3776 717.688 350.553 360.762 512.07C245.129 564.395 156.792 604.37 123.558 618.866L117.577 617.767V617.765Z" fill="#CA1217" fill-opacity="0.2"/>
<path d="M138.208 618.228C171.674 603.688 262.403 562.683 380.48 509.317C731.828 350.524 1325.37 82.268 1378.93 73.801L1378.97 73.7934C1394 71.5024 1419.66 72.2975 1450.63 74.9799C1487.63 78.1824 1532.56 84.0688 1575.89 90.5458C1578.6 90.935 1583.13 91.6138 1588.83 92.4644C1642.2 100.446 1802.75 124.457 1905.71 125.195C1956.41 125.558 1992.89 120.153 1994.34 104.027L2001.43 104.074C1999.85 121.687 1960.38 127.593 1905.54 127.199C1800.89 126.449 1639.25 102.277 1585.52 94.2408C1580.25 93.4526 1576.06 92.8262 1572.67 92.3367L1572.62 92.3283C1529.59 85.8954 1485.05 80.0553 1448.58 76.8977C1419.34 74.3665 1395.52 73.554 1382.35 75.5607C1330.24 83.8575 737.443 351.774 386.515 510.379C268.591 563.676 177.98 604.627 144.16 619.321L138.208 618.228Z" fill="#CA1217" fill-opacity="0.2"/>
<path d="M159.73 618.709C194.362 603.725 287.003 561.911 406.835 507.826C751.64 352.198 1321.02 95.2083 1374.34 86.479L1374.4 86.4714C1389.51 84.0869 1414.95 84.8182 1445.6 87.4733C1482.02 90.6278 1526.16 96.4937 1568.97 103.024C1573.06 103.625 1579.38 104.612 1587.61 105.898C1648.55 115.419 1814.68 141.373 1916.29 142.333C1962.67 142.772 1995.32 137.873 1997.02 123.452L2004.07 123.515C2002.19 139.404 1966.62 144.805 1916.06 144.328C1812.73 143.351 1645.54 117.231 1584.21 107.65C1575.92 106.356 1569.57 105.363 1565.68 104.792L1565.63 104.784C1523.14 98.302 1479.43 92.4893 1443.56 89.3819C1414.7 86.8819 1391.14 86.1286 1377.89 88.2068C1326.05 96.6944 757.258 353.417 412.814 508.882C292.508 563.181 199.499 605.16 165.652 619.805L159.733 618.709H159.73Z" fill="#CA1217" fill-opacity="0.2"/>
<path d="M182.225 619.216C217.201 604.15 311.965 561.44 433.757 506.549C771.379 354.384 1316.42 108.735 1369.57 99.7277L1369.62 99.7201C1384.83 97.2391 1410.02 97.9011 1440.34 100.529C1476.13 103.631 1519.42 109.473 1561.69 116.058C1566.52 116.781 1574.84 118.143 1585.94 119.959C1653.81 131.059 1826.2 159.255 1926.55 160.462C1968.76 160.97 1997.89 156.57 1999.82 143.754L2006.83 143.831C2004.68 158.099 1972.66 163.003 1926.27 162.445C1824.17 161.217 1650.71 132.846 1582.42 121.677C1571.35 119.867 1563.07 118.511 1558.36 117.808L1558.31 117.801C1516.38 111.269 1473.53 105.483 1438.27 102.426C1409.78 99.9573 1386.49 99.2671 1373.17 101.43C1321.47 110.192 776.981 355.594 439.695 507.607C317.694 562.591 222.765 605.376 188.106 620.305L182.219 619.216H182.225Z" fill="#CA1217" fill-opacity="0.2"/>
<path d="M205.798 619.746C241.053 604.633 337.799 561.099 461.29 505.53C791.084 357.128 1311.62 122.895 1364.57 113.604L1364.61 113.596C1379.91 111.013 1404.85 111.604 1434.79 114.2C1469.95 117.25 1512.37 123.067 1554.08 129.709C1559.43 130.526 1569.8 132.303 1583.85 134.712C1658.31 147.474 1837.46 178.18 1936.54 179.662C1974.74 180.234 2000.64 176.323 2002.76 165.011L2009.73 165.111C2007.34 177.855 1978.58 182.267 1936.18 181.633C1835.38 180.125 1655.14 149.234 1580.24 136.396C1566.41 134.024 1556.21 132.276 1550.72 131.439L1550.66 131.432C1509.31 124.845 1467.35 119.086 1432.74 116.085C1404.63 113.647 1381.61 113.026 1368.21 115.284C1316.53 124.392 796.616 358.346 467.196 506.579C343.794 562.108 247.115 605.611 211.623 620.826L205.8 619.744L205.798 619.746Z" fill="#CA1217" fill-opacity="0.2"/>
<path d="M230.524 620.299C266.489 604.961 364.864 560.77 489.529 504.769C810.815 360.446 1306.58 137.746 1359.31 128.166L1359.36 128.158C1374.75 125.47 1399.4 125.983 1428.94 128.546C1463.39 131.535 1504.88 137.326 1546.02 144.03C1552.13 144.978 1564.46 147.192 1581.36 150.23C1662.25 164.761 1848.6 198.238 1946.23 200.027C1980.6 200.658 2003.56 197.223 2005.83 187.323L2012.76 187.445C2010.16 198.759 1984.37 202.692 1945.8 201.985C1846.36 200.163 1658.98 166.5 1577.64 151.888C1560.79 148.86 1548.51 146.654 1542.68 145.747L1542.62 145.735C1501.89 139.096 1460.86 133.367 1426.9 130.419C1399.24 128.018 1376.54 127.469 1363.06 129.814C1311.61 139.162 816.353 361.636 495.392 505.813C370.627 561.858 272.175 606.083 236.306 621.38L230.521 620.298L230.524 620.299Z" fill="#CA1217" fill-opacity="0.2"/>
<path d="M256.553 620.88C292.93 605.452 392.851 560.654 518.505 504.316C830.552 364.411 1301.26 153.37 1353.79 143.488L1353.85 143.48C1369.32 140.681 1393.65 141.112 1422.75 143.639C1456.54 146.574 1497.08 152.338 1537.6 159.103C1544.14 160.142 1558.54 162.854 1578.47 166.607C1665.72 183.032 1859.58 219.53 1955.69 221.669C1986.41 222.352 2006.68 219.382 2009.07 210.797L2015.95 210.95C2013.17 220.928 1990.09 224.391 1955.15 223.614C1857.27 221.436 1662.38 184.744 1574.67 168.232C1554.89 164.508 1540.59 161.816 1534.23 160.804L1534.16 160.792C1494.02 154.09 1453.95 148.386 1420.73 145.501C1393.53 143.139 1371.16 142.667 1357.59 145.112C1306.29 154.765 836.06 365.591 524.328 505.355C398.679 561.689 298.766 606.485 262.268 621.964L256.551 620.881L256.553 620.88Z" fill="#CA1217" fill-opacity="0.2"/>
<path d="M284.006 621.499C320.888 605.951 422.069 560.683 548.28 504.216C850.316 369.086 1295.64 169.851 1347.96 159.658L1348.02 159.646C1363.59 156.729 1387.57 157.073 1416.21 159.563C1449.25 162.434 1488.81 168.175 1528.72 175.011C1535.72 176.152 1552.23 179.407 1575.21 183.939C1668.83 202.403 1870.52 242.179 1964.9 244.715C1992.2 245.449 2010.04 242.926 2012.51 235.565L2019.31 235.747C2016.37 244.477 1995.76 247.484 1964.26 246.637C1868.09 244.054 1665.39 204.077 1571.3 185.521C1548.46 181.016 1532.05 177.779 1525.32 176.684L1525.25 176.672C1485.77 169.908 1446.7 164.234 1414.21 161.409C1387.49 159.087 1365.47 158.699 1351.81 161.255C1300.46 171.31 855.725 370.282 554.063 505.245C427.852 561.712 326.67 606.979 289.678 622.573L284.006 621.499Z" fill="#CA1217" fill-opacity="0.2"/>
<path d="M313.057 622.149C350.429 606.5 452.599 560.898 578.945 504.505C870.136 374.538 1289.68 187.285 1341.81 176.765L1341.86 176.754C1357.52 173.713 1381.14 173.964 1409.26 176.411C1441.58 179.223 1480.14 184.942 1519.39 191.854C1526.72 193.083 1545.41 196.942 1571.53 202.334C1671.59 222.995 1881.37 266.311 1973.89 269.309C1997.98 270.09 2013.6 267.997 2016.12 261.774L2022.86 261.992C2019.79 269.566 2001.41 272.132 1973.12 271.215C1878.86 268.161 1668.08 224.64 1567.54 203.881C1541.59 198.522 1523.03 194.69 1515.87 193.494L1515.8 193.483C1476.98 186.646 1438.95 180.998 1407.27 178.242C1381.1 175.965 1359.47 175.666 1345.71 178.332C1294.59 188.678 875.537 375.712 584.673 505.533C458.317 561.93 356.136 607.537 318.678 623.221L313.052 622.148L313.057 622.149Z" fill="#CA1217" fill-opacity="0.2"/>
<path d="M343.918 622.843C381.539 607.204 484.479 561.384 610.596 505.246C890.053 380.855 1283.35 205.787 1335.27 194.934L1335.32 194.923C1352.4 191.483 1378.26 191.951 1408.95 194.959C1438.93 197.896 1473.7 203.257 1509.41 209.73C1517.21 211.076 1538.12 215.595 1567.44 221.928C1674.05 244.962 1892.18 292.088 1982.68 295.634C2003.82 296.461 2017.44 294.781 2019.98 289.602L2026.64 289.863C2023.45 296.367 2007.07 298.507 1981.76 297.515C1889.51 293.901 1670.44 246.571 1563.36 223.437C1534.06 217.106 1513.17 212.594 1505.86 211.34L1505.78 211.329C1470.45 204.924 1436.15 199.63 1406.77 196.751C1378.11 193.944 1354.33 193.434 1339.24 196.464C1288.28 207.145 895.427 382.011 616.278 506.265C490.36 562.315 387.58 608.064 349.469 623.907L343.921 622.843H343.918Z" fill="#CA1217" fill-opacity="0.2"/>
<path d="M376.803 623.58C415.182 607.755 518.283 562.006 643.341 506.513C910.094 388.146 1276.65 225.493 1328.31 214.298L1328.35 214.292C1345.51 210.706 1370.75 211.05 1400.66 213.993C1429.81 216.862 1463.6 222.211 1498.69 228.772C1506.64 230.176 1530.02 235.459 1562.91 242.887C1676.21 268.485 1902.83 319.682 1991.25 323.897C2009.71 324.777 2021.57 323.489 2024.09 319.265L2030.65 319.574C2027.36 325.101 2012.74 326.829 1990.15 325.753C1900.02 321.456 1672.51 270.058 1558.76 244.361C1526.05 236.971 1502.79 231.715 1495.17 230.37L1495.09 230.355C1460.38 223.865 1427.05 218.581 1398.47 215.768C1370.64 213.029 1347.49 212.637 1332.35 215.794C1281.59 226.791 915.416 389.277 648.935 507.523C523.726 563.083 420.499 608.888 382.295 624.642L376.803 623.583V623.58Z" fill="#CA1217" fill-opacity="0.2"/>
<path d="M412.023 624.369C450.733 608.55 553.689 563.033 677.231 508.412C930.204 396.567 1269.43 246.586 1320.86 235.032L1320.91 235.021C1338.13 231.284 1362.69 231.494 1391.76 234.37C1420.08 237.171 1452.86 242.514 1487.32 249.178C1495.53 250.677 1521.44 256.795 1557.91 265.405C1678.02 293.764 1913.18 349.285 1999.57 354.352H1999.59C2015.69 355.296 2026.03 354.383 2028.5 351.016L2034.94 351.387C2031.53 356.029 2018.43 357.356 1998.25 356.172C1910.19 351.002 1674.21 295.289 1553.68 266.832C1517.34 258.252 1491.54 252.16 1483.74 250.737L1483.66 250.722C1449.6 244.137 1417.32 238.866 1389.6 236.124C1362.64 233.458 1340.18 233.194 1324.95 236.489C1274.34 247.863 935.473 397.683 682.766 509.409C559.127 564.072 456.094 609.625 417.429 625.425L412.023 624.369Z" fill="#CA1217" fill-opacity="0.2"/>
<path d="M449.921 625.221C488.836 609.481 591.132 564.448 712.454 511.041C950.446 406.274 1261.64 269.282 1312.85 257.343L1312.89 257.332C1330.19 253.431 1354.02 253.497 1382.19 256.298C1409.62 259.027 1441.31 264.367 1475.12 271.142C1483.52 272.74 1512.13 279.796 1552.4 289.727C1679.39 321.045 1922.8 381.075 2007.55 387.299C2021.74 388.342 2030.86 387.787 2033.27 385.173L2039.54 385.633C2036.01 389.483 2024.11 390.411 2005.92 389.075C1919.7 382.741 1675.52 322.524 1548.14 291.108C1507.94 281.195 1479.41 274.16 1471.43 272.652L1471.35 272.637C1438.01 265.953 1406.84 260.695 1380.06 258.03C1354.01 255.439 1332.25 255.316 1316.93 258.77C1266.42 270.577 955.626 407.393 717.921 512.033C596.665 565.412 494.419 610.42 455.236 626.27L449.924 625.221H449.921Z" fill="#CA1217" fill-opacity="0.2"/>
<path d="M490.925 626.142C530.267 610.411 631.082 566.264 749.124 514.574C970.82 417.494 1253.25 293.82 1304.18 281.487L1304.22 281.48C1321.61 277.399 1344.66 277.307 1371.85 280.029C1398.27 282.675 1428.74 288 1461.77 294.885C1470.19 296.537 1501.8 304.678 1546.36 316.15C1680.07 350.579 1930.72 415.12 2014.76 423.069C2027.74 424.296 2036.09 424.11 2038.44 422.127L2044.5 422.701C2040.75 425.871 2029.59 426.377 2012.73 424.783C1927.4 416.711 1676.1 352.006 1542.05 317.488C1497.69 306.068 1466.22 297.963 1458.11 296.371L1458.05 296.356C1425.46 289.561 1395.5 284.316 1369.72 281.735C1344.7 279.23 1323.73 279.253 1308.34 282.859C1258.12 295.018 975.981 418.568 754.508 515.55C636.41 567.265 535.549 611.432 496.159 627.182L490.925 626.14V626.142Z" fill="#CA1217" fill-opacity="0.2"/>
<path d="M535.619 627.143C575.326 611.477 673.787 568.644 787.455 519.196C991.35 430.498 1244.12 320.537 1294.74 307.795L1294.78 307.788C1312.25 303.515 1334.45 303.254 1360.57 305.89C1385.91 308.447 1415.07 313.763 1447.3 320.776C1455.77 322.513 1490.64 331.884 1539.74 345.08C1679.16 382.55 1933.68 450.954 2019.78 461.915C2033.12 463.614 2041.71 463.898 2044.12 462.382L2049.86 463.112C2045.66 465.752 2034.21 465.703 2017.19 463.536C1930.14 452.453 1675.11 383.912 1535.41 346.368C1486.52 333.227 1451.79 323.893 1443.61 322.216L1443.53 322.198C1411.79 315.289 1383.16 310.06 1358.45 307.568C1334.53 305.155 1314.43 305.34 1298.93 309.123C1248.9 321.717 996.401 431.56 792.724 520.164C678.9 569.68 580.305 612.571 540.743 628.181L535.619 627.143Z" fill="#CA1217" fill-opacity="0.2"/>
<path d="M584.729 628.247C624.399 612.839 719.518 571.812 827.606 525.191C1011.95 445.678 1234.03 349.889 1284.4 336.696L1284.42 336.687C1301.97 332.206 1323.21 331.76 1348.17 334.301C1372.38 336.766 1400.12 342.073 1431.44 349.224C1440 351.074 1478.47 361.865 1532.54 377.03C1672.08 416.166 1915.72 484.5 2013.52 502.607C2033.98 506.393 2047.22 507.978 2050.47 506.572L2055.63 507.527C2050.01 509.953 2033.87 508.458 2010.15 504.067C1911.87 485.871 1667.92 417.451 1528.2 378.264C1474.25 363.131 1435.87 352.367 1427.67 350.601L1427.61 350.588C1396.75 343.541 1369.56 338.326 1346.1 335.938C1323.37 333.624 1304.18 333.993 1288.55 337.983C1238.75 351.039 1016.91 446.72 832.77 526.146C724.76 572.732 629.716 613.728 589.7 629.271L584.732 628.248L584.729 628.247Z" fill="#CA1217" fill-opacity="0.2"/>
<path d="M639.195 629.471C679.099 614.258 769.24 575.828 869.862 532.929C1032.68 463.513 1222.94 382.399 1272.92 368.753L1272.94 368.746C1290.6 364.032 1310.78 363.38 1334.42 365.815C1357.3 368.17 1383.43 373.463 1413.77 380.769C1422.23 382.694 1464.94 395.197 1524.84 412.729C1702.92 464.853 2033.67 561.664 2057.79 555.561L2061.78 556.824C2033.37 564.017 1700 466.441 1520.52 413.906C1460.78 396.42 1418.18 383.951 1410.02 382.09L1409.96 382.073C1380.12 374.886 1354.53 369.691 1332.38 367.41C1310.99 365.208 1292.82 365.774 1277.06 369.982C1227.53 383.515 1037.5 464.531 874.867 533.867C774.224 576.775 684.061 615.214 644.015 630.481L639.195 629.471Z" fill="#CA1217" fill-opacity="0.2"/>
<path d="M700.362 630.848C740.212 615.998 823.434 581.115 914.451 542.964C1053.38 484.73 1210.47 418.883 1260.05 404.746L1260.06 404.743C1277.83 399.769 1296.81 398.885 1318.98 401.199C1340.4 403.436 1364.74 408.716 1393.97 416.196C1402.28 418.221 1450.13 432.842 1516.93 453.251C1703.84 510.36 2039.64 612.961 2066.47 610.583L2068.2 612.15C2037.89 614.836 1700.49 511.745 1512.69 454.363C1446.05 434.003 1398.31 419.416 1390.18 417.435L1390.13 417.422C1361.42 410.072 1337.62 404.897 1316.98 402.741C1297.09 400.663 1280.06 401.452 1264.16 405.904C1215 419.923 1058.06 485.706 919.268 543.883C828.31 582.009 745.14 616.871 704.978 631.838L700.365 630.848H700.362Z" fill="#CA1217" fill-opacity="0.2"/>
<path d="M770.108 632.421C809.95 617.995 883.343 588.066 961.707 556.11C1073.93 510.343 1196.35 460.422 1245.41 445.778L1245.42 445.775C1263.29 440.512 1280.9 439.365 1301.38 441.545C1321.14 443.647 1343.43 448.908 1371.37 456.582C1379.55 458.741 1434.32 476.222 1510.15 500.42C1707.11 563.278 2046.39 671.557 2076.55 673.501L2075.34 675.022C2043.44 672.967 1703.41 564.45 1506.02 501.453C1430.34 477.299 1375.66 459.849 1367.61 457.725L1367.57 457.713C1340.12 450.175 1318.36 445.019 1299.44 443.006C1281.24 441.07 1265.5 442.115 1249.41 446.854C1200.63 461.415 1078.35 511.282 966.244 556.997C887.846 588.967 814.42 618.911 774.452 633.382L770.108 632.423V632.421Z" fill="#CA1217" fill-opacity="0.2"/>
<path d="M851.265 634.263C890.824 620.472 950.287 597.485 1011.96 573.645C1094.03 541.921 1180.02 508.682 1228.45 493.501L1228.46 493.498C1246.42 487.905 1262.39 486.457 1280.88 488.474C1298.69 490.416 1318.58 495.658 1345.03 503.559C1353.25 505.953 1420.43 528.372 1511.41 558.732C1720.19 628.4 2054.36 739.916 2087.45 746.815L2084.46 747.965C2050.89 740.964 1716.48 629.37 1507.56 559.654C1416.63 529.309 1349.48 506.902 1341.42 504.552L1341.4 504.544C1315.43 496.786 1296.02 491.652 1279.07 489.803C1262.8 488.029 1248.53 489.372 1232.19 494.455C1183.9 509.593 1098.01 542.796 1016.02 574.488C954.328 598.336 894.843 621.331 855.171 635.161L851.262 634.262L851.265 634.263Z" fill="#CA1217" fill-opacity="0.2"/>
<path d="M948.847 636.62L1208.85 550.659C1226.66 544.769 1240.39 542.978 1256.09 544.756C1271.4 546.491 1288.33 551.685 1312.91 559.829C1327.34 564.607 1589.8 656.432 1808.16 732.828C1952.59 783.356 2077.73 827.137 2099 834.502L2096.83 835C2075.37 827.566 1950.31 783.815 1805.99 733.323C1587.65 656.936 1325.21 565.122 1310.79 560.342C1286.49 552.29 1269.8 547.159 1255.05 545.489C1240.68 543.863 1227.87 545.585 1210.97 551.173L950.971 637.133L948.847 636.62Z" fill="#CA1217" fill-opacity="0.2"/>
</svg>
