<svg width="1073" height="77" fill="none" xmlns="http://www.w3.org/2000/svg"><g clip-path="url(#clip0_187_1966)"><path fill="#C01818" fill-opacity=".8" d="M0 0h1073v77H0z"/><path d="M449.766 45.266h-2.75V50h-4.719v-4.734h-9.75v-3.36l10.015-14.75h4.454v14.36h2.75v3.75zm-7.469-3.75V37.64c0-.646.026-1.584.078-2.813.052-1.229.094-1.943.125-2.14h-.125a17.354 17.354 0 01-1.391 2.5l-4.187 6.328h5.5zM466.234 50h-4.765V27.156h13.093v3.969h-8.328v5.89h7.75v3.954h-7.75V50zm17.188 0h-4.766V25.687h4.766V50zm8.812-8.766c0 1.73.282 3.037.844 3.922.573.886 1.5 1.328 2.781 1.328 1.271 0 2.183-.437 2.735-1.312.562-.886.844-2.198.844-3.938 0-1.729-.282-3.026-.844-3.89-.563-.865-1.485-1.297-2.766-1.297-1.271 0-2.187.432-2.75 1.297-.562.854-.844 2.15-.844 3.89zm12.078 0c0 2.844-.75 5.068-2.25 6.672s-3.588 2.407-6.265 2.407c-1.677 0-3.156-.365-4.438-1.094-1.281-.74-2.265-1.797-2.953-3.172-.687-1.375-1.031-2.98-1.031-4.813 0-2.854.745-5.073 2.234-6.656 1.49-1.583 3.584-2.375 6.282-2.375 1.677 0 3.156.365 4.437 1.094 1.281.729 2.266 1.776 2.953 3.14.688 1.365 1.031 2.964 1.031 4.797zm7.735 0c0 1.73.281 3.037.844 3.922.573.886 1.5 1.328 2.781 1.328 1.271 0 2.182-.437 2.734-1.312.563-.886.844-2.198.844-3.938 0-1.729-.281-3.026-.844-3.89-.562-.865-1.484-1.297-2.765-1.297-1.271 0-2.188.432-2.75 1.297-.563.854-.844 2.15-.844 3.89zm12.078 0c0 2.844-.75 5.068-2.25 6.672s-3.589 2.407-6.266 2.407c-1.677 0-3.156-.365-4.437-1.094-1.281-.74-2.266-1.797-2.953-3.172-.688-1.375-1.031-2.98-1.031-4.813 0-2.854.744-5.073 2.234-6.656 1.489-1.583 3.583-2.375 6.281-2.375 1.677 0 3.156.365 4.438 1.094 1.281.729 2.265 1.776 2.953 3.14.687 1.365 1.031 2.964 1.031 4.797zm13.687-9.03c.646 0 1.183.046 1.61.14l-.36 4.468c-.385-.104-.854-.156-1.406-.156-1.521 0-2.708.39-3.562 1.172-.844.781-1.266 1.875-1.266 3.281V50h-4.766V32.531h3.61l.703 2.938h.234a6.526 6.526 0 012.188-2.36 5.415 5.415 0 013.015-.906zm11.547 11.171v-3.906h8.391v3.906h-8.391zm29.219-6.203h9.063v11.844c-1.469.479-2.855.812-4.157 1a26.157 26.157 0 01-3.968.297c-3.448 0-6.084-1.01-7.907-3.032-1.812-2.031-2.718-4.942-2.718-8.734 0-3.688 1.052-6.563 3.156-8.625 2.114-2.063 5.042-3.094 8.781-3.094 2.344 0 4.604.469 6.781 1.406L586 32.11c-1.667-.833-3.401-1.25-5.203-1.25-2.094 0-3.771.703-5.031 2.11-1.261 1.406-1.891 3.297-1.891 5.672 0 2.479.505 4.375 1.516 5.687 1.02 1.302 2.5 1.953 4.437 1.953a15.66 15.66 0 003.078-.312v-4.766h-4.328v-4.031zm21.625-.61l4.766-9.406h5.219l-7.579 13.953V50h-4.812v-8.734l-7.578-14.11h5.25l4.734 9.407zM622.734 50l-5.5-17.922h-.14c.198 3.646.297 6.078.297 7.297V50h-4.329V27.156h6.594l5.406 17.469h.094l5.735-17.469h6.593V50h-4.515V39.187c0-.51.005-1.098.015-1.765.021-.667.094-2.438.219-5.313h-.141L627.172 50h-4.438z" fill="#fff"/></g><defs><clipPath id="clip0_187_1966"><path fill="#fff" d="M0 0h1073v77H0z"/></clipPath></defs></svg>