<svg width="1073" height="73" fill="none" xmlns="http://www.w3.org/2000/svg"><g clip-path="url(#clip0_187_1937)"><path fill="#C01818" fill-opacity=".8" d="M0 0h1073v73H0z"/><path d="M382.359 30.266c0 1.427-.432 2.64-1.297 3.64-.864 1-2.078 1.688-3.64 2.063v.093c1.844.23 3.239.792 4.187 1.688.948.885 1.422 2.083 1.422 3.594 0 2.198-.797 3.911-2.39 5.14-1.594 1.22-3.87 1.828-6.829 1.828-2.479 0-4.677-.411-6.593-1.234v-4.11c.885.449 1.859.813 2.922 1.094 1.062.282 2.114.422 3.156.422 1.594 0 2.771-.27 3.531-.812.761-.542 1.141-1.412 1.141-2.61 0-1.072-.438-1.833-1.313-2.28-.875-.449-2.271-.673-4.187-.673h-1.735v-3.703h1.766c1.771 0 3.062-.229 3.875-.687.823-.469 1.234-1.266 1.234-2.39 0-1.73-1.083-2.595-3.25-2.595-.75 0-1.515.125-2.297.375-.77.25-1.63.683-2.578 1.297l-2.234-3.328c2.083-1.5 4.568-2.25 7.453-2.25 2.365 0 4.229.48 5.594 1.438 1.375.958 2.062 2.291 2.062 4zM400.234 48h-4.765V25.156h13.093v3.969h-8.328v5.89h7.75v3.954h-7.75V48zm17.188 0h-4.766V23.687h4.766V48zm8.812-8.766c0 1.73.282 3.037.844 3.922.573.886 1.5 1.328 2.781 1.328 1.271 0 2.183-.437 2.735-1.312.562-.886.844-2.198.844-3.938 0-1.729-.282-3.026-.844-3.89-.563-.865-1.485-1.297-2.766-1.297-1.271 0-2.187.432-2.75 1.297-.562.854-.844 2.15-.844 3.89zm12.078 0c0 2.844-.75 5.068-2.25 6.672s-3.588 2.407-6.265 2.407c-1.677 0-3.156-.365-4.438-1.094-1.281-.74-2.265-1.797-2.953-3.172-.687-1.375-1.031-2.98-1.031-4.813 0-2.854.745-5.073 2.234-6.656 1.49-1.583 3.584-2.375 6.282-2.375 1.677 0 3.156.365 4.437 1.094 1.281.729 2.266 1.776 2.953 3.14.688 1.365 1.031 2.964 1.031 4.797zm7.735 0c0 1.73.281 3.037.844 3.922.573.886 1.5 1.328 2.781 1.328 1.271 0 2.182-.437 2.734-1.312.563-.886.844-2.198.844-3.938 0-1.729-.281-3.026-.844-3.89-.562-.865-1.484-1.297-2.765-1.297-1.271 0-2.188.432-2.75 1.297-.563.854-.844 2.15-.844 3.89zm12.078 0c0 2.844-.75 5.068-2.25 6.672s-3.589 2.407-6.266 2.407c-1.677 0-3.156-.365-4.437-1.094-1.281-.74-2.266-1.797-2.953-3.172-.688-1.375-1.031-2.98-1.031-4.813 0-2.854.744-5.073 2.234-6.656 1.489-1.583 3.583-2.375 6.281-2.375 1.677 0 3.156.365 4.438 1.094 1.281.729 2.265 1.776 2.953 3.14.687 1.365 1.031 2.964 1.031 4.797zm13.687-9.03c.646 0 1.183.046 1.61.14l-.36 4.468c-.385-.104-.854-.156-1.406-.156-1.521 0-2.708.39-3.562 1.172-.844.781-1.266 1.875-1.266 3.281V48h-4.766V30.531h3.61l.703 2.938h.234a6.526 6.526 0 012.188-2.36 5.415 5.415 0 013.015-.906zm11.547 11.171v-3.906h8.391v3.906h-8.391zm41.282-4.828c0 3.781-.938 6.687-2.813 8.719-1.875 2.03-4.562 3.047-8.062 3.047-3.5 0-6.188-1.016-8.063-3.047-1.875-2.032-2.812-4.948-2.812-8.75 0-3.802.937-6.703 2.812-8.703 1.886-2.01 4.583-3.016 8.094-3.016 3.51 0 6.193 1.01 8.047 3.031 1.864 2.021 2.797 4.927 2.797 8.719zm-16.672 0c0 2.552.484 4.474 1.453 5.766.969 1.291 2.417 1.937 4.344 1.937 3.864 0 5.796-2.568 5.796-7.703 0-5.146-1.921-7.719-5.765-7.719-1.927 0-3.38.651-4.359 1.953-.98 1.292-1.469 3.214-1.469 5.766zm30.687-2.438h-4.125V48h-4.765V34.11h-2.625v-2.297l2.625-1.282V29.25c0-1.99.489-3.443 1.468-4.36.98-.916 2.547-1.374 4.704-1.374 1.645 0 3.109.244 4.39.734l-1.219 3.5c-.958-.302-1.843-.453-2.656-.453-.677 0-1.167.203-1.469.61-.302.395-.453.905-.453 1.53v1.094h4.125v3.578zm12.391 0h-4.125V48h-4.766V34.11h-2.625v-2.297l2.625-1.282V29.25c0-1.99.49-3.443 1.469-4.36.979-.916 2.547-1.374 4.703-1.374 1.646 0 3.11.244 4.391.734l-1.219 3.5c-.958-.302-1.844-.453-2.656-.453-.677 0-1.167.203-1.469.61-.302.395-.453.905-.453 1.53v1.094h4.125v3.578zm2.484-8.093c0-1.552.865-2.328 2.594-2.328 1.729 0 2.594.776 2.594 2.328 0 .74-.219 1.317-.657 1.734-.427.406-1.072.61-1.937.61-1.729 0-2.594-.782-2.594-2.344zM558.5 48h-4.766V30.531h4.766V48zm12.094.313c-5.438 0-8.156-2.985-8.156-8.954 0-2.968.739-5.234 2.218-6.797 1.479-1.572 3.599-2.359 6.36-2.359 2.02 0 3.833.396 5.437 1.188l-1.406 3.687a22.2 22.2 0 00-2.094-.734 6.581 6.581 0 00-1.937-.297c-2.48 0-3.719 1.76-3.719 5.281 0 3.417 1.239 5.125 3.719 5.125.916 0 1.765-.12 2.546-.36a9.394 9.394 0 002.344-1.156v4.079c-.771.49-1.552.828-2.344 1.015-.781.188-1.77.282-2.968.282zm16.609-14.72c-1.01 0-1.802.324-2.375.97-.573.635-.901 1.541-.984 2.718h6.687c-.021-1.177-.328-2.083-.922-2.718-.593-.646-1.395-.97-2.406-.97zm.672 14.72c-2.813 0-5.01-.777-6.594-2.329-1.583-1.552-2.375-3.75-2.375-6.593 0-2.927.729-5.188 2.188-6.782 1.468-1.604 3.495-2.406 6.078-2.406 2.469 0 4.39.703 5.766 2.11C594.312 33.718 595 35.66 595 38.14v2.312h-11.266c.052 1.354.454 2.412 1.204 3.172.75.76 1.802 1.14 3.156 1.14a13.1 13.1 0 002.984-.328c.938-.218 1.917-.567 2.938-1.046v3.687a10.95 10.95 0 01-2.672.922c-.948.208-2.104.313-3.469.313zm23.187-5.5c0 1.791-.624 3.156-1.874 4.093-1.24.938-3.099 1.407-5.579 1.407-1.27 0-2.354-.089-3.25-.266a11.976 11.976 0 01-2.515-.75v-3.938c.885.417 1.88.766 2.984 1.047 1.115.282 2.094.422 2.938.422 1.729 0 2.593-.5 2.593-1.5 0-.375-.114-.677-.343-.906-.23-.24-.625-.505-1.188-.797a27.547 27.547 0 00-2.25-1.047c-1.344-.562-2.333-1.083-2.969-1.562-.625-.48-1.083-1.026-1.375-1.641-.281-.625-.422-1.39-.422-2.297 0-1.552.599-2.75 1.797-3.594 1.209-.854 2.917-1.28 5.125-1.28 2.105 0 4.151.457 6.141 1.374l-1.437 3.438a26.473 26.473 0 00-2.454-.922 7.698 7.698 0 00-2.328-.36c-1.406 0-2.109.38-2.109 1.141 0 .427.224.797.672 1.11.458.312 1.453.775 2.984 1.39 1.365.552 2.365 1.068 3 1.547.636.479 1.104 1.031 1.406 1.656.302.625.453 1.37.453 2.234zm10.813-3.579c0-2.76.401-5.343 1.203-7.75.813-2.406 1.979-4.515 3.5-6.328h3.906a22.519 22.519 0 00-3.328 6.625 24.8 24.8 0 00-1.125 7.422c0 2.552.38 5.021 1.141 7.406.771 2.375 1.864 4.526 3.281 6.453h-3.875c-1.531-1.77-2.698-3.838-3.5-6.203-.802-2.364-1.203-4.906-1.203-7.625zm24.25 3.578c0 1.792-.625 3.157-1.875 4.094-1.24.938-3.099 1.407-5.578 1.407-1.271 0-2.354-.089-3.25-.266a11.985 11.985 0 01-2.516-.75v-3.938c.886.417 1.88.766 2.985 1.047 1.114.282 2.093.422 2.937.422 1.729 0 2.594-.5 2.594-1.5 0-.375-.115-.677-.344-.906-.229-.24-.625-.505-1.187-.797a27.87 27.87 0 00-2.25-1.047c-1.344-.562-2.334-1.083-2.969-1.562-.625-.48-1.083-1.026-1.375-1.641-.281-.625-.422-1.39-.422-2.297 0-1.552.599-2.75 1.797-3.594 1.208-.854 2.917-1.28 5.125-1.28 2.104 0 4.151.457 6.141 1.374l-1.438 3.438a26.46 26.46 0 00-2.453-.922 7.708 7.708 0 00-2.328-.36c-1.407 0-2.11.38-2.11 1.141 0 .427.224.797.672 1.11.459.312 1.453.775 2.985 1.39 1.364.552 2.364 1.068 3 1.547.635.479 1.104 1.031 1.406 1.656.302.625.453 1.37.453 2.234zM660.938 48l-.922-2.375h-.125c-.802 1.01-1.631 1.714-2.485 2.11-.844.385-1.948.578-3.312.578-1.677 0-3-.48-3.969-1.438-.958-.958-1.437-2.323-1.437-4.094 0-1.854.645-3.218 1.937-4.093 1.302-.886 3.26-1.376 5.875-1.47l3.031-.093v-.766c0-1.77-.906-2.656-2.719-2.656-1.395 0-3.036.422-4.921 1.266l-1.579-3.219c2.011-1.052 4.24-1.578 6.688-1.578 2.344 0 4.141.51 5.391 1.531s1.875 2.573 1.875 4.656V48h-3.328zm-1.407-8.094l-1.843.063c-1.386.041-2.417.291-3.094.75-.677.458-1.016 1.156-1.016 2.093 0 1.344.771 2.016 2.313 2.016 1.104 0 1.984-.318 2.64-.953.667-.635 1-1.48 1-2.531v-1.438zM673.953 48h-4.765V23.687h4.765V48zm12.25-14.406c-1.01 0-1.802.323-2.375.968-.573.636-.901 1.542-.984 2.72h6.687c-.021-1.178-.328-2.084-.922-2.72-.593-.645-1.395-.968-2.406-.968zm.672 14.718c-2.813 0-5.01-.776-6.594-2.328-1.583-1.552-2.375-3.75-2.375-6.593 0-2.927.729-5.188 2.188-6.782 1.468-1.604 3.495-2.406 6.078-2.406 2.469 0 4.39.703 5.766 2.11C693.312 33.718 694 35.66 694 38.14v2.312h-11.266c.052 1.354.454 2.412 1.204 3.172.75.76 1.802 1.14 3.156 1.14a13.1 13.1 0 002.984-.328c.938-.218 1.917-.567 2.938-1.046v3.687a10.95 10.95 0 01-2.672.922c-.948.208-2.104.313-3.469.313zm18.063-9.078c0 2.74-.407 5.292-1.219 7.657-.802 2.364-1.964 4.422-3.485 6.172h-3.875c1.407-1.917 2.495-4.063 3.266-6.438a23.982 23.982 0 001.156-7.422 24.8 24.8 0 00-1.125-7.422 22.494 22.494 0 00-3.328-6.625h3.906c1.532 1.823 2.698 3.943 3.5 6.36.802 2.406 1.204 4.979 1.204 7.718z" fill="#fff"/></g><defs><clipPath id="clip0_187_1937"><path fill="#fff" d="M0 0h1073v73H0z"/></clipPath></defs></svg>