<svg width="1073" height="125" fill="none" xmlns="http://www.w3.org/2000/svg"><g clip-path="url(#clip0_187_1987)"><g clip-path="url(#clip1_187_1987)"><path fill="#C01818" fill-opacity=".8" d="M0 102h18v23H0zm18-50h132v73H18zm132-39h334v112H150zm334 16h387v96H484zm387-16h89v112h-89zm89-13h52v125h-52zm52 51h61v74h-61z"/><path d="M399.594 74.406c2.208 0 3.963.62 5.265 1.86 1.313 1.24 1.969 2.937 1.969 5.093 0 2.553-.786 4.516-2.359 5.891s-3.823 2.063-6.75 2.063c-2.542 0-4.594-.412-6.157-1.235v-4.172c.823.438 1.782.797 2.876 1.078 1.093.271 2.13.407 3.109.407 2.948 0 4.422-1.209 4.422-3.625 0-2.303-1.526-3.454-4.578-3.454-.552 0-1.162.058-1.829.172-.666.105-1.208.22-1.624.344l-1.922-1.031.859-11.64h12.391v4.093h-8.157l-.421 4.484.546-.109c.636-.146 1.422-.219 2.36-.219zM424.234 89h-4.765V66.156h13.093v3.969h-8.328v5.89h7.75v3.954h-7.75V89zm17.188 0h-4.766V64.687h4.766V89zm8.812-8.766c0 1.73.282 3.037.844 3.922.573.886 1.5 1.328 2.781 1.328 1.271 0 2.183-.437 2.735-1.312.562-.885.844-2.198.844-3.938 0-1.729-.282-3.026-.844-3.89-.563-.865-1.485-1.297-2.766-1.297-1.271 0-2.187.432-2.75 1.297-.562.854-.844 2.15-.844 3.89zm12.078 0c0 2.844-.75 5.068-2.25 6.672s-3.588 2.406-6.265 2.406c-1.677 0-3.156-.364-4.438-1.093-1.281-.74-2.265-1.797-2.953-3.172-.687-1.375-1.031-2.98-1.031-4.813 0-2.854.745-5.072 2.234-6.656 1.49-1.583 3.584-2.375 6.282-2.375 1.677 0 3.156.365 4.437 1.094 1.281.729 2.266 1.776 2.953 3.14.688 1.365 1.031 2.964 1.031 4.797zm7.735 0c0 1.73.281 3.037.844 3.922.573.886 1.5 1.328 2.781 1.328 1.271 0 2.182-.437 2.734-1.312.563-.885.844-2.198.844-3.938 0-1.729-.281-3.026-.844-3.89-.562-.865-1.484-1.297-2.765-1.297-1.271 0-2.188.432-2.75 1.297-.563.854-.844 2.15-.844 3.89zm12.078 0c0 2.844-.75 5.068-2.25 6.672s-3.589 2.406-6.266 2.406c-1.677 0-3.156-.364-4.437-1.093-1.281-.74-2.266-1.797-2.953-3.172-.688-1.375-1.031-2.98-1.031-4.813 0-2.854.744-5.072 2.234-6.656 1.489-1.583 3.583-2.375 6.281-2.375 1.677 0 3.156.365 4.438 1.094 1.281.729 2.265 1.776 2.953 3.14.687 1.365 1.031 2.964 1.031 4.797zm13.687-9.03c.646 0 1.183.046 1.61.14l-.36 4.469c-.385-.105-.854-.157-1.406-.157-1.521 0-2.708.39-3.562 1.172-.844.781-1.266 1.875-1.266 3.281V89h-4.766V71.531h3.61l.703 2.938h.234a6.526 6.526 0 012.188-2.36 5.415 5.415 0 013.015-.906zm11.547 11.171v-3.906h8.391v3.906h-8.391zm30.25-12.516c-1.823 0-3.234.688-4.234 2.063-1 1.365-1.5 3.27-1.5 5.719 0 5.093 1.911 7.64 5.734 7.64 1.605 0 3.547-.4 5.829-1.203v4.063c-1.876.78-3.969 1.171-6.282 1.171-3.323 0-5.864-1.005-7.625-3.015-1.76-2.021-2.64-4.917-2.64-8.688 0-2.375.432-4.453 1.297-6.234.864-1.792 2.104-3.162 3.718-4.11 1.625-.958 3.526-1.437 5.703-1.437 2.219 0 4.448.537 6.688 1.61l-1.563 3.937a25.82 25.82 0 00-2.578-1.063 7.686 7.686 0 00-2.547-.453zM559.031 89l-.922-2.375h-.125c-.802 1.01-1.63 1.713-2.484 2.11-.844.385-1.948.578-3.312.578-1.678 0-3-.48-3.969-1.438-.959-.958-1.438-2.323-1.438-4.094 0-1.854.646-3.219 1.938-4.094 1.302-.885 3.26-1.374 5.875-1.468l3.031-.094v-.766c0-1.77-.906-2.656-2.719-2.656-1.396 0-3.036.422-4.922 1.266l-1.578-3.219c2.011-1.052 4.24-1.578 6.688-1.578 2.344 0 4.14.51 5.39 1.531s1.875 2.573 1.875 4.656V89h-3.328zm-1.406-8.094l-1.844.063c-1.385.041-2.416.291-3.093.75-.678.458-1.016 1.156-1.016 2.094 0 1.343.771 2.015 2.312 2.015 1.105 0 1.985-.318 2.641-.953.667-.635 1-1.48 1-2.531v-1.438zm19.313-5.797h-4.126V89h-4.765V75.11h-2.625v-2.297l2.625-1.282V70.25c0-1.99.489-3.443 1.469-4.36.979-.916 2.546-1.374 4.703-1.374 1.646 0 3.109.244 4.39.734l-1.218 3.5c-.959-.302-1.844-.453-2.657-.453-.677 0-1.166.203-1.468.61-.302.395-.454.906-.454 1.53v1.094h4.126v3.578zm9.984-.515c-1.011 0-1.802.323-2.375.969-.573.635-.901 1.541-.985 2.718h6.688c-.021-1.177-.328-2.083-.922-2.719-.594-.645-1.396-.968-2.406-.968zm.672 14.719c-2.813 0-5.011-.776-6.594-2.329-1.583-1.552-2.375-3.75-2.375-6.593 0-2.928.729-5.188 2.187-6.782 1.469-1.604 3.495-2.406 6.079-2.406 2.468 0 4.39.703 5.765 2.11 1.375 1.406 2.063 3.349 2.063 5.828v2.312h-11.266c.052 1.354.453 2.412 1.203 3.172.75.76 1.802 1.14 3.156 1.14 1.053 0 2.047-.109 2.985-.328a14.916 14.916 0 002.937-1.046v3.687c-.833.417-1.724.724-2.672.922-.947.208-2.104.313-3.468.313zm15.672-3.672c-.542 2.104-1.459 4.599-2.75 7.484h-3.438a90.95 90.95 0 001.578-7.844h4.375l.235.36zm18.14-8.735H623c1.49 0 2.604-.291 3.344-.875.739-.594 1.109-1.453 1.109-2.578 0-1.135-.312-1.974-.937-2.516-.615-.541-1.584-.812-2.907-.812h-2.203v6.781zm10.938-3.625c0 2.459-.771 4.339-2.313 5.64-1.531 1.303-3.713 1.954-6.547 1.954h-2.078V89h-4.844V66.156h7.297c2.771 0 4.875.6 6.313 1.797 1.448 1.188 2.172 2.964 2.172 5.328zm7.734 6.953c0 1.73.281 3.037.844 3.922.573.886 1.5 1.328 2.781 1.328 1.271 0 2.182-.437 2.735-1.312.562-.885.843-2.198.843-3.938 0-1.729-.281-3.026-.843-3.89-.563-.865-1.485-1.297-2.766-1.297-1.271 0-2.188.432-2.75 1.297-.563.854-.844 2.15-.844 3.89zm12.078 0c0 2.844-.75 5.068-2.25 6.672s-3.588 2.406-6.265 2.406c-1.677 0-3.157-.364-4.438-1.093-1.281-.74-2.265-1.797-2.953-3.172-.688-1.375-1.031-2.98-1.031-4.813 0-2.854.745-5.072 2.234-6.656 1.49-1.583 3.583-2.375 6.281-2.375 1.677 0 3.157.365 4.438 1.094 1.281.729 2.266 1.776 2.953 3.14.687 1.365 1.031 2.964 1.031 4.797zm7.735 0c0 1.73.281 3.037.843 3.922.573.886 1.5 1.328 2.782 1.328 1.27 0 2.182-.437 2.734-1.312.562-.885.844-2.198.844-3.938 0-1.729-.282-3.026-.844-3.89-.562-.865-1.484-1.297-2.766-1.297-1.27 0-2.187.432-2.75 1.297-.562.854-.843 2.15-.843 3.89zm12.078 0c0 2.844-.75 5.068-2.25 6.672s-3.589 2.406-6.266 2.406c-1.677 0-3.156-.364-4.437-1.093-1.282-.74-2.266-1.797-2.954-3.172-.687-1.375-1.031-2.98-1.031-4.813 0-2.854.745-5.072 2.235-6.656 1.489-1.583 3.583-2.375 6.281-2.375 1.677 0 3.156.365 4.437 1.094 1.282.729 2.266 1.776 2.954 3.14.687 1.365 1.031 2.964 1.031 4.797zM680.672 89h-4.766V64.687h4.766V89z" fill="#fff"/></g></g><defs><clipPath id="clip0_187_1987"><path fill="#fff" d="M0 0h1073v125H0z"/></clipPath><clipPath id="clip1_187_1987"><path fill="#fff" d="M0 0h1073v125H0z"/></clipPath></defs></svg>