<svg width="1073" height="165" fill="none" xmlns="http://www.w3.org/2000/svg"><path fill="#C01818" fill-opacity=".8" d="M475 0h598v125H475zM299 0h176v147H299zM0 0h299v165H0z"/><path d="M435.219 74h-4.828V60.781l.047-2.172.078-2.375c-.802.802-1.36 1.328-1.672 1.578l-2.625 2.11-2.328-2.906 7.359-5.86h3.969V74zm21.015 0h-4.765V51.156h13.093v3.969h-8.328v5.89h7.75v3.954h-7.75V74zm17.188 0h-4.766V49.687h4.766V74zm8.812-8.766c0 1.73.282 3.037.844 3.922.573.886 1.5 1.328 2.781 1.328 1.271 0 2.183-.437 2.735-1.312.562-.885.844-2.198.844-3.938 0-1.729-.282-3.026-.844-3.89-.563-.865-1.485-1.297-2.766-1.297-1.271 0-2.187.432-2.75 1.297-.562.854-.844 2.15-.844 3.89zm12.078 0c0 2.844-.75 5.068-2.25 6.672s-3.588 2.406-6.265 2.406c-1.677 0-3.156-.364-4.438-1.093-1.281-.74-2.265-1.797-2.953-3.172-.687-1.375-1.031-2.98-1.031-4.813 0-2.854.745-5.072 2.234-6.656 1.49-1.583 3.584-2.375 6.282-2.375 1.677 0 3.156.365 4.437 1.094 1.281.729 2.266 1.776 2.953 3.14.688 1.365 1.031 2.964 1.031 4.797zm7.735 0c0 1.73.281 3.037.844 3.922.573.886 1.5 1.328 2.781 1.328 1.271 0 2.182-.437 2.734-1.312.563-.885.844-2.198.844-3.938 0-1.729-.281-3.026-.844-3.89-.562-.865-1.484-1.297-2.765-1.297-1.271 0-2.188.432-2.75 1.297-.563.854-.844 2.15-.844 3.89zm12.078 0c0 2.844-.75 5.068-2.25 6.672s-3.589 2.406-6.266 2.406c-1.677 0-3.156-.364-4.437-1.093-1.281-.74-2.266-1.797-2.953-3.172-.688-1.375-1.031-2.98-1.031-4.813 0-2.854.744-5.072 2.234-6.656 1.489-1.583 3.583-2.375 6.281-2.375 1.677 0 3.156.365 4.438 1.094 1.281.729 2.265 1.776 2.953 3.14.687 1.365 1.031 2.964 1.031 4.797zm13.687-9.03c.646 0 1.183.046 1.61.14l-.36 4.468c-.385-.104-.854-.156-1.406-.156-1.521 0-2.708.39-3.562 1.172-.844.781-1.266 1.875-1.266 3.281V74h-4.766V56.531h3.61l.703 2.938h.234a6.526 6.526 0 012.188-2.36 5.415 5.415 0 013.015-.906zm11.547 11.171v-3.906h8.391v3.906h-8.391zm34.032.281c0 2.063-.745 3.688-2.235 4.875-1.479 1.188-3.541 1.781-6.187 1.781-2.438 0-4.594-.458-6.469-1.374v-4.5c1.542.687 2.844 1.171 3.906 1.453 1.073.28 2.052.421 2.938.421 1.062 0 1.875-.203 2.437-.609.573-.406.86-1.01.86-1.812 0-.448-.125-.844-.375-1.188-.25-.354-.62-.693-1.11-1.016-.479-.322-1.463-.838-2.953-1.546-1.396-.657-2.443-1.287-3.141-1.891a7.099 7.099 0 01-1.671-2.11c-.417-.801-.625-1.739-.625-2.812 0-2.02.682-3.61 2.046-4.766 1.376-1.156 3.271-1.734 5.688-1.734 1.188 0 2.318.14 3.391.422 1.083.281 2.213.677 3.39 1.188l-1.562 3.765c-1.219-.5-2.229-.849-3.031-1.047a9.641 9.641 0 00-2.344-.297c-.917 0-1.62.214-2.11.641-.489.427-.734.984-.734 1.672 0 .427.099.802.297 1.125.198.312.51.62.937.922.438.291 1.464.823 3.078 1.593 2.136 1.021 3.599 2.047 4.391 3.079.792 1.02 1.188 2.276 1.188 3.765zM593.281 74h-4.765V63.797c0-2.521-.938-3.781-2.813-3.781-1.333 0-2.297.453-2.891 1.359-.593.906-.89 2.375-.89 4.406V74h-4.766V49.687h4.766v4.954c0 .385-.037 1.291-.11 2.718l-.109 1.407h.25c1.063-1.709 2.75-2.563 5.063-2.563 2.052 0 3.609.552 4.672 1.656 1.062 1.105 1.593 2.688 1.593 4.75V74zm8.703-8.766c0 1.73.282 3.037.844 3.922.573.886 1.5 1.328 2.781 1.328 1.271 0 2.183-.437 2.735-1.312.562-.885.844-2.198.844-3.938 0-1.729-.282-3.026-.844-3.89-.563-.865-1.485-1.297-2.766-1.297-1.271 0-2.187.432-2.75 1.297-.562.854-.844 2.15-.844 3.89zm12.078 0c0 2.844-.75 5.068-2.25 6.672s-3.588 2.406-6.265 2.406c-1.677 0-3.156-.364-4.438-1.093-1.281-.74-2.265-1.797-2.953-3.172-.687-1.375-1.031-2.98-1.031-4.813 0-2.854.745-5.072 2.234-6.656 1.49-1.583 3.584-2.375 6.282-2.375 1.677 0 3.156.365 4.437 1.094 1.281.729 2.266 1.776 2.953 3.14.688 1.365 1.031 2.964 1.031 4.797zm13.532 9.079c-2.052 0-3.662-.745-4.828-2.235h-.25c.166 1.459.25 2.302.25 2.531v7.079H618V56.53h3.875l.672 2.266h.219c1.114-1.73 2.765-2.594 4.953-2.594 2.062 0 3.677.797 4.843 2.39 1.167 1.594 1.75 3.808 1.75 6.641 0 1.865-.276 3.485-.828 4.86-.541 1.375-1.317 2.422-2.328 3.14-1.01.72-2.198 1.079-3.562 1.079zm-1.406-14.297c-1.178 0-2.037.364-2.579 1.093-.541.72-.823 1.912-.843 3.578v.516c0 1.875.276 3.219.828 4.031.562.813 1.448 1.22 2.656 1.22 2.135 0 3.203-1.761 3.203-5.282 0-1.719-.265-3.005-.797-3.86-.521-.864-1.344-1.296-2.468-1.296zm24.25 8.797c0 1.791-.626 3.156-1.876 4.093-1.239.938-3.098 1.406-5.578 1.406-1.27 0-2.354-.088-3.25-.265a11.976 11.976 0 01-2.515-.75v-3.938c.885.417 1.88.766 2.984 1.047 1.115.281 2.094.422 2.938.422 1.729 0 2.593-.5 2.593-1.5 0-.375-.114-.677-.343-.906-.23-.24-.625-.505-1.188-.797a27.547 27.547 0 00-2.25-1.047c-1.344-.562-2.333-1.083-2.969-1.562-.625-.48-1.083-1.026-1.375-1.641-.281-.625-.421-1.39-.421-2.297 0-1.552.598-2.75 1.796-3.594 1.209-.854 2.917-1.28 5.125-1.28 2.105 0 4.151.457 6.141 1.374l-1.438 3.438a26.249 26.249 0 00-2.453-.922 7.698 7.698 0 00-2.328-.36c-1.406 0-2.109.38-2.109 1.141 0 .427.224.797.672 1.11.458.312 1.453.775 2.984 1.39 1.365.552 2.365 1.068 3 1.547.636.479 1.104 1.031 1.406 1.656.302.625.454 1.37.454 2.234z" fill="#fff"/></svg>