<svg width="1920" height="778" fill="none" xmlns="http://www.w3.org/2000/svg"><g clip-path="url(#clip0_159_2242)"><path fill="#13191D" d="M0 0h1920v778H0z"/><path d="M1883-94.922c-29.1 12.936-101.96 46.106-200.08 90.78C1301.95 169.301 540.568 515.93 485.552 522.694l-.03.004c-16.309 1.963-48.423.22-87.012-3.431-37.928-3.588-82.433-9.024-124.208-14.558-26.129-3.409-120.098-12.5-205.868-12.182-30.447.112-59.818 1.416-84.633 4.592-24.532 3.139-44.63 8.126-56.885 15.632-8.758 5.364-13.56 12.024-13.18 20.224l-7.312.025c-.395-8.53 4.645-15.487 13.839-21.117 13.07-8.005 34.452-13.317 60.527-16.654 25.788-3.3 56.157-4.654 87.56-4.771 87.09-.323 182.495 8.908 209.022 12.372l.013.004c41.541 5.503 85.784 10.906 123.453 14.471 36.998 3.5 67.345 5.226 81.799 3.489 52.977-6.537 813.503-352.778 1194.053-526.03 98.29-44.748 171.27-77.973 200.11-90.797l6.2 1.11z" fill="url(#paint0_linear_159_2242)" fill-opacity=".2"/><path d="M1866.45-95.294c-29.26 12.977-105.12 47.48-206.87 93.765C1281.15 170.606 543.87 505.97 489.076 512.96l-.03.004c-14.524 1.809-41.156.694-73.613-2.109-40.143-3.466-89.574-9.503-135.8-15.722-27.35-3.617-132.357-14.652-223.602-14.421-28.818.073-56.219 1.274-79.235 4.199-22.737 2.889-41.23 7.476-52.592 14.348-8.234 4.979-12.766 11.171-12.524 18.797l-7.288.016c-.25-7.949 4.53-14.436 13.212-19.686 12.178-7.364 31.944-12.274 56.224-15.359 24-3.05 52.385-4.301 82.15-4.377 92.594-.234 199.058 10.953 226.76 14.615h.016c46.014 6.191 95.125 12.193 134.797 15.618 30.861 2.664 55.775 3.777 68.533 2.192C538.896 504.318 1275.36 169.327 1653.38-2.62c101.29-46.076 176.81-80.426 206.93-93.782l6.15 1.108h-.01z" fill="url(#paint1_linear_159_2242)" fill-opacity=".2"/><path d="M1849.36-95.678c-30 13.263-108.54 48.955-213.44 96.625C1260.61 171.51 547.31 495.664 492.718 502.89l-.03.004c-14.615 1.884-41.121.815-73.372-1.971-39.643-3.424-88.361-9.435-134.13-15.693-28.463-3.812-145.158-17.079-241.42-16.957-27.118.034-52.567 1.134-73.842 3.817-21 2.647-37.97 6.855-48.479 13.127-7.726 4.61-12.003 10.347-11.892 17.41l-7.259.008c-.115-7.39 4.41-13.421 12.576-18.296 11.32-6.757 29.554-11.283 52.095-14.125 22.266-2.808 48.707-3.959 76.774-3.995 97.676-.123 215.764 13.296 244.549 17.152l.027.004c45.533 6.225 93.918 12.199 133.109 15.584 30.643 2.647 55.412 3.717 68.227 2.07C542.299 494.048 1254.83 170.242 1629.75-.14c104.47-47.478 182.7-83.026 213.49-96.64l6.12 1.101v.001z" fill="url(#paint2_linear_159_2242)" fill-opacity=".2"/><path d="M1831.66-96.072c-31.01 13.666-112.04 50.453-219.76 99.36C1240.24 172.021 550.864 485.002 496.49 492.464l-.027.004c-14.694 1.958-41.065.938-73.103-1.83-39.121-3.38-87.122-9.368-132.445-15.667-29.495-4.004-158.424-19.792-259.21-19.804-25.38-.003-48.928.999-68.549 3.452-19.336 2.418-34.871 6.26-44.557 11.964-7.215 4.25-11.242 9.545-11.25 16.064h-7.229c.011-6.841 4.29-12.429 11.96-16.945 10.508-6.189 27.296-10.349 48.16-12.958 20.58-2.573 45.115-3.625 71.468-3.621 102.246.012 232.535 15.959 262.328 20.005l.03.004c45.038 6.26 92.686 12.206 131.394 15.551 30.395 2.626 55.003 3.65 67.893 1.937 52.508-7.219 741.137-319.862 1112.397-488.415 107.67-48.884 188.66-85.65 219.82-99.384l6.09 1.106z" fill="url(#paint3_linear_159_2242)" fill-opacity=".2"/><path d="M1813.31-96.485c-31.68 13.918-115.27 51.824-225.84 101.974C1220.03 172.137 554.568 473.95 500.412 481.653l-.043.008c-14.769 2.036-40.99 1.067-72.797-1.683-38.608-3.338-85.871-9.3-130.719-15.641l-.005.003c-21.944-3.023-101.644-13.529-183.731-19.234-44.535-3.095-89.735-4.776-126.63-3.069-36.122 1.671-64.259 6.626-75.716 16.773-3.627 3.212-5.618 6.95-5.707 11.271l-7.196-.008c.094-4.535 2.204-8.475 6.046-11.878 12.432-11.014 42.669-16.377 81.414-18.17 37.974-1.756 84.15-.051 129.51 3.102 82.823 5.755 163.077 16.334 185.168 19.377l.03.008c44.546 6.299 91.445 12.218 129.625 15.518 30.143 2.606 54.581 3.581 67.541 1.796C549.77 472.27 1214.36 170.855 1581.35 4.411c110.52-50.129 194.07-88.019 225.89-101.998l6.07 1.102z" fill="url(#paint4_linear_159_2242)" fill-opacity=".2"/><path d="M1794.25-96.914c-32.32 14.15-118.39 53.14-231.66 104.46-362.66 164.3-1004.18 454.935-1058.125 462.885l-.043.004c-14.86 2.118-40.906 1.205-72.457-1.524-38.14-3.299-84.657-9.236-128.991-15.618l-.492-.071c-32.49-4.543-186.491-26.073-294.095-26.428-59.665-.196-104.88 6.234-105.7 26.087l-7.164-.016c.882-21.379 49.183-28.305 112.92-28.095 109.281.36 264.472 22.056 297.211 26.634l.573.078c44.084 6.346 90.224 12.24 127.81 15.491 29.845 2.581 54.076 3.506 67.109 1.657 52.21-7.697 693.054-298.028 1055.334-462.158 113.22-51.29 199.23-90.26 231.72-104.482l6.04 1.096h.01z" fill="url(#paint5_linear_159_2242)" fill-opacity=".2"/><path d="M1774.42-97.356C1741.59-83.036 1653.12-43 1537.3 9.407 1180.01 171.091 562.429 450.555 508.681 458.761l-.043.004c-14.95 2.204-40.81 1.348-72.079-1.358-37.568-3.25-83.316-9.165-127.163-15.595l-6.914-.989c-44.527-6.404-200.623-28.854-305.299-29.391-55.143-.282-95.805 5.634-96.955 23.569l-7.13-.032c1.248-19.442 44.947-25.857 104.198-25.553 106.38.546 263.586 23.155 308.428 29.604l6.941.996c43.557 6.388 88.904 12.254 125.961 15.46 29.549 2.558 53.576 3.429 66.676 1.506 52.067-7.951 669.008-287.126 1025.938-448.643 115.63-52.325 203.97-92.3 237.2-106.796l5.98 1.1z" fill="url(#paint6_linear_159_2242)" fill-opacity=".2"/><path d="M1753.79-97.82c-33.46 14.541-124.19 55.546-242.27 108.912-351.35 158.793-944.895 427.049-998.452 435.516l-.04.008c-15.024 2.291-40.683 1.495-71.662-1.187-36.995-3.202-81.929-9.089-125.254-15.566-2.71-.389-7.245-1.068-12.939-1.918-53.376-7.983-213.924-31.993-316.882-32.731-50.702-.363-87.184 5.042-88.63 21.168l-7.092-.047c1.578-17.613 41.046-23.519 95.888-23.125 104.658.75 266.289 24.922 320.026 32.958 5.271.788 9.454 1.415 12.852 1.904l.043.009c43.033 6.433 87.571 12.273 124.044 15.43 29.24 2.531 53.055 3.344 66.229 1.337 52.109-8.297 644.909-276.213 995.839-434.818 117.92-53.297 208.53-94.248 242.35-108.942l5.95 1.093z" fill="url(#paint7_linear_159_2242)" fill-opacity=".2"/><path d="M1732.27-98.3C1697.64-83.316 1605-41.502 1485.16 12.583c-344.8 155.628-914.183 412.618-967.503 421.347l-.057.008c-15.113 2.384-40.551 1.653-71.202-1.002-36.42-3.155-80.555-9.021-123.37-15.551-4.089-.601-10.406-1.588-18.637-2.874-60.942-9.521-227.07-35.475-328.676-36.435-46.388-.439-79.031 4.46-80.735 18.881l-7.054-.063c1.879-15.889 37.458-21.29 88.01-20.813 103.337.977 270.524 27.097 331.853 36.678 8.287 1.294 14.64 2.287 18.527 2.858l.054.008c42.492 6.482 86.197 12.295 122.068 15.402 28.863 2.5 52.417 3.253 65.673 1.175 51.839-8.487 620.629-265.21 965.079-420.675 120.3-54.3 213.31-96.278 247.16-110.923l5.92 1.096z" fill="url(#paint8_linear_159_2242)" fill-opacity=".2"/><path d="M1709.78-98.807c-34.98 15.066-129.75 57.776-251.54 112.667-337.62 152.165-882.663 397.814-935.806 406.821l-.054.008c-15.207 2.481-40.404 1.819-70.716-.809-35.793-3.102-79.081-8.944-121.359-15.529-4.822-.723-13.147-2.085-24.247-3.901-67.866-11.1-240.255-39.296-340.606-40.503-42.213-.508-71.342 3.892-73.27 16.708l-7.013-.077c2.148-14.268 34.167-19.172 80.56-18.614 102.106 1.228 275.562 29.599 343.85 40.768 11.068 1.81 19.356 3.166 24.057 3.869l.054.007c41.928 6.532 84.775 12.318 120.039 15.375 28.49 2.469 51.777 3.159 65.105.996 51.692-8.762 596.186-254.164 933.466-406.177 122.01-54.984 216.93-97.769 251.59-112.698l5.89 1.089z" fill="url(#paint9_linear_159_2242)" fill-opacity=".2"/><path d="M1686.2-99.337c-35.25 15.113-132 58.647-255.49 114.216-329.79 148.402-850.329 382.635-903.282 391.926l-.04.008c-15.298 2.583-40.234 1.992-70.175-.604-35.165-3.05-77.579-8.867-119.292-15.509-5.347-.817-15.718-2.595-29.772-5.003-74.455-12.762-253.613-43.468-352.687-44.95-38.199-.572-64.103 3.339-66.221 14.651l-6.97-.1c2.384-12.744 31.148-17.156 73.546-16.522 100.808 1.508 281.038 32.399 355.94 45.237 13.836 2.372 24.035 4.12 29.524 4.957l.054.007c41.358 6.587 83.318 12.346 117.926 15.347 28.11 2.438 51.13 3.059 64.528.801 51.678-9.108 571.591-243.062 901.011-391.296 123.41-55.528 220.08-99.031 255.58-114.247l5.82 1.083v-.002z" fill="url(#paint10_linear_159_2242)" fill-opacity=".2"/><path d="M1661.48-99.89c-35.97 15.338-134.34 59.529-259.01 115.53-321.29 144.323-817.049 367.023-869.781 376.603l-.054.008c-15.387 2.688-40.032 2.175-69.57-.388-34.452-2.989-75.942-8.78-117.082-15.484-6.116-.948-18.438-3.163-35.347-6.2-80.886-14.531-267.232-48.008-364.87-49.797-34.369-.631-57.329 2.804-59.597 12.704l-6.925-.122c2.594-11.315 28.382-15.247 66.958-14.541 99.439 1.823 286.823 35.486 368.157 50.098 16.852 3.028 29.135 5.234 34.963 6.141l.053.012c40.738 6.639 81.768 12.368 115.728 15.316 27.656 2.401 50.355 2.949 63.842.604 51.441-9.347 546.705-231.821 867.665-375.998 124.76-56.045 223.22-100.27 259.08-115.567l5.79 1.082z" fill="url(#paint11_linear_159_2242)" fill-opacity=".2"/><path d="M1635.45-100.471c-36.38 15.428-136.3 60.226-261.96 116.563-312.04 139.906-782.749 350.946-835.284 360.829l-.054.008c-15.473 2.799-39.804 2.368-68.907-.159-33.785-2.935-74.328-8.699-114.845-15.464-6.535-1.039-20.941-3.751-40.872-7.504-87.248-16.425-281.11-52.923-377.214-55.062-30.726-.683-50.995 2.287-53.385 10.872l-6.876-.153c2.777-9.978 25.858-13.441 60.802-12.664 97.875 2.178 292.766 38.87 380.477 55.382 19.78 3.724 34.076 6.416 40.442 7.428l.067.012c40.135 6.702 80.21 12.406 113.431 15.291 27.194 2.362 49.565 2.834 63.138.389 51.302-9.653 521.53-220.479 833.26-360.243 125.65-56.334 225.56-101.13 262.06-116.609l5.72 1.083v.001z" fill="url(#paint12_linear_159_2242)" fill-opacity=".2"/><path d="M1607.99-101.09c-36.88 15.548-138.06 60.816-264.27 117.282-302.04 135.131-747.358 334.366-799.684 344.559l-.054.012c-15.567 2.917-39.557 2.573-68.194.083-33.035-2.871-72.6-8.612-112.507-15.448-7.002-1.141-23.511-4.396-46.489-8.928-93.622-18.464-295.31-58.24-389.69-60.776-27.304-.734-45.138 1.789-47.611 9.15l-6.796-.182c2.933-8.73 23.543-11.737 55.05-10.89 96.161 2.583 298.863 42.56 392.955 61.116 22.845 4.505 39.253 7.742 45.984 8.837l.068.012c39.476 6.764 78.546 12.438 111.041 15.263 26.713 2.322 48.74 2.71 62.402.154 51.347-10.055 496.085-209.027 797.745-343.99 126.21-56.467 227.39-101.735 264.38-117.328l5.67 1.074z" fill="url(#paint13_linear_159_2242)" fill-opacity=".2"/><path d="M1578.94-101.74c-37.37 15.649-139.54 61.251-265.88 117.644-291.2 129.967-710.736 317.22-762.871 327.74l-.054.011c-15.658 3.041-39.272 2.79-67.398.343-32.321-2.812-70.875-8.531-110.122-15.443-7.334-1.229-26.028-5.088-52.141-10.48C220.411 297.414 10.629 254.098-81.888 251.1c-24.094-.781-39.713 1.312-42.234 7.535l-6.74-.218c3.07-7.574 21.452-10.14 49.746-9.224 94.259 3.055 305.035 46.576 405.574 67.335 25.955 5.359 44.514 9.191 51.675 10.387l.068.011c38.823 6.837 76.85 12.485 108.528 15.241 26.167 2.276 47.801 2.576 61.562-.09 51.122-10.346 470.169-197.38 761.039-327.201 126.35-56.397 228.53-102.004 265.99-117.688l5.63 1.073-.01-.001z" fill="url(#paint14_linear_159_2242)" fill-opacity=".2"/><path d="M1548.08-102.434c-37.62 15.638-140.56 61.459-266.68 117.597-279.45 124.391-672.753 299.459-724.67 310.312l-.051.011c-17.084 3.44-42.936 2.971-73.628-.036-29.978-2.937-64.756-8.298-100.458-14.771-7.801-1.346-28.718-5.865-58.03-12.198-106.617-23.034-324.746-70.16-415.241-73.706-21.138-.827-34.767.853-37.304 6.032l-6.654-.261c3.186-6.504 19.571-8.644 44.877-7.652 92.249 3.614 311.318 50.944 418.398 74.077 29.304 6.332 50.193 10.844 57.503 12.098l.078.011c35.331 6.405 69.635 11.699 99.014 14.578 28.654 2.807 52.439 3.317 67.523.287 50.968-10.681 443.816-185.547 722.963-309.8 125.92-56.051 228.7-101.8 266.81-117.643l5.55 1.064z" fill="url(#paint15_linear_159_2242)" fill-opacity=".2"/><path d="M1515.2-103.171c-38.38 15.825-141.48 61.574-266.54 117.067-266.753 118.367-633.308 281.02-684.973 292.215l-.04.006c-17.162 3.586-42.393 3.242-72.302.299-29.154-2.869-62.944-8.218-98.033-14.779-7.95-1.404-31.334-6.687-64.219-14.116-113.302-25.597-339.926-76.794-428.344-81.009-18.454-.88-30.322.408-32.841 4.632l-6.56-.309c3.296-5.527 17.912-7.255 40.498-6.179 90.133 4.296 317.641 55.695 431.389 81.392 32.713 7.39 55.974 12.646 63.592 13.991l.078.015c34.71 6.49 68.042 11.774 96.628 14.587 27.828 2.739 50.974 3.13 66.122-.026 50.75-10.997 416.929-173.483 683.415-291.73 125.2-55.56 228.43-101.364 266.64-117.118l5.49 1.059v.003z" fill="url(#paint16_linear_159_2242)" fill-opacity=".2"/><path d="M1479.98-103.961c-38.71 15.82-141.67 61.337-265.21 115.958-252.974 111.845-592.204 261.826-643.626 273.38l-.051.011c-17.223 3.737-41.783 3.527-70.853.651-28.323-2.801-61.097-8.144-95.56-14.808-8.21-1.499-34.119-7.617-70.587-16.227-120.114-28.359-355.27-83.88-441.666-88.947h-.014c-16.1-.944-26.447-.031-28.914 3.336l-6.436-.371c3.404-4.642 16.508-5.969 36.689-4.785 88.063 5.17 324.033 60.883 444.564 89.34 36.339 8.58 62.143 14.672 69.944 16.095l.078.015c34.057 6.585 66.345 11.856 94.063 14.598 26.955 2.666 49.42 2.929 64.651-.365C617.661 272.546 956.527 122.726 1209.23 11c123.64-54.663 226.68-100.216 265.34-116.016l5.41 1.055z" fill="url(#paint17_linear_159_2242)" fill-opacity=".2"/><path d="M1442.08-104.812c-38.92 15.74-141.21 60.773-262.53 114.18-237.996 104.767-549.193 241.759-600.403 253.698l-.038.011c-17.301 3.901-41.132 3.835-69.301 1.034-27.431-2.729-59.122-8.069-92.923-14.844-8.409-1.598-37.02-8.654-77.289-18.585-126.991-31.318-370.4-91.348-455.148-97.573-14.185-1.042-23.312-.487-25.715 2.127l-6.277-.46c3.535-3.85 15.436-4.778 33.621-3.442 86.227 6.334 330.399 66.551 457.788 97.967 40.197 9.913 68.721 16.948 76.705 18.456l.075.015c33.345 6.684 64.512 11.942 91.297 14.607 26.049 2.59 47.807 2.714 63.124-.74 50.512-11.807 361.308-148.623 599.014-253.263 121.26-53.379 223.5-98.387 262.68-114.237l5.32 1.049z" fill="url(#paint18_linear_159_2242)" fill-opacity=".2"/><path d="M1401.08-105.733c-39.35 15.73-140.16 59.878-258.2 111.568-221.7 97.08-504.125 220.754-555.064 233.087l-.038.007c-17.39 4.081-40.438 4.173-67.624 1.451-26.428-2.646-56.893-7.971-89.92-14.856-8.42-1.652-40.038-9.793-84.59-21.265C211.933 169.83-38.721 105.289-122.759 97.34c-12.979-1.227-21.334-1.041-23.68.942l-6.062-.574c3.75-3.17 14.914-3.676 31.772-2.082 85.331 8.072 336.627 72.777 470.679 107.294 44.356 11.421 75.832 19.526 83.94 21.118l.062.015c32.589 6.795 62.546 12.039 88.331 14.621 25.022 2.505 45.985 2.482 61.38-1.124 50.213-12.159 332.356-135.709 553.827-232.691 118.1-51.715 218.96-95.882 258.35-111.632l5.24 1.042v-.002z" fill="url(#paint19_linear_159_2242)" fill-opacity=".2"/><path d="M1356.38-106.734c-39.71 15.666-138.17 58.499-251.84 107.946-203.89 88.699-456.662 198.66-507.283 211.402l-.038.007c-17.473 4.273-39.667 4.534-65.788 1.898-25.342-2.557-54.503-7.873-86.729-14.886-8.474-1.737-43.345-11.109-92.445-24.304-139.418-37.47-393.94-105.874-480.035-116.835-13.347-1.699-21.93-1.983-24.344-.467l-5.737-.73c4.202-2.64 15.645-2.591 32.664-.424 87.058 11.083 342.087 79.624 481.783 117.168 48.895 13.141 83.622 22.475 91.802 24.152l.075.018c31.745 6.909 60.38 12.138 85.082 14.63 23.919 2.413 44.027 2.228 59.524-1.555C643.102 198.692 895.599 88.849 1099.28.245c113.82-49.516 212.42-92.407 251.98-108.017l5.12 1.038z" fill="url(#paint20_linear_159_2242)" fill-opacity=".2"/><path d="M1307.27-107.838C1267.6-92.43 1172.48-51.403 1064.39-4.782 880.048 74.731 657.968 170.52 607.604 183.712l-.024.01c-17.554 4.481-38.791 4.927-63.748 2.386-24.212-2.465-51.949-7.772-83.275-14.923-8.554-1.85-47.027-12.641-101.098-27.806C219.917 104.243-23.723 35.909-121.525 17.802c-20.452-3.786-33.691-5.371-36.946-3.965l-5.162-.955c5.618-2.426 21.764-.93 45.482 3.46 98.283 18.196 342.232 86.616 481.949 125.803 53.955 15.133 92.332 25.897 100.528 27.662l.059.014c30.863 7.047 58.057 12.262 81.517 14.65 22.726 2.314 41.92 1.945 57.549-2.045C653.253 169.37 875.086 73.689 1059.23-5.737c108.01-46.586 203.05-87.582 243.07-103.125l4.97 1.023v.001z" fill="url(#paint21_linear_159_2242)" fill-opacity=".2"/><path d="M1252.8-109.062c-39.9 15.213-130.04 53.643-230.66 96.542-162.824 69.416-353.081 150.53-403.06 164.176l-.024.007c-17.654 4.714-37.834 5.366-61.479 2.931-22.877-2.355-49.009-7.648-79.348-14.954-8.455-1.925-51.173-14.428-111.069-31.96C189.083 55.556-141.673-41.255-165.786-35.152l-3.998-1.263c28.414-7.193 361.781 90.383 541.267 142.918 59.737 17.486 102.34 29.955 110.501 31.816l.059.017c29.839 7.187 55.428 12.382 77.577 14.663 21.39 2.202 39.559 1.636 55.323-2.572 49.527-13.533 239.559-94.549 402.187-163.885 100.65-42.908 190.81-81.347 230.85-96.614l4.82 1.01z" fill="url(#paint22_linear_159_2242)" fill-opacity=".2"/><path d="M1191.64-110.439c-39.85 14.85-123.07 49.733-214.091 87.884C838.623 35.678 681.53 101.526 631.951 115.663l-.011.003c-17.766 4.974-36.747 5.858-58.919 3.544-21.42-2.237-45.762-7.517-74.988-14.997-8.312-2.025-56.165-16.646-122.964-37.055-186.91-57.11-522.704-159.71-549.538-157.332l-1.729-1.567c30.307-2.686 367.709 100.405 555.512 157.787 66.635 20.36 114.372 34.946 122.507 36.928l.045.013c28.713 7.35 52.509 12.525 73.149 14.681 19.898 2.078 36.923 1.289 52.826-3.163C677 100.486 833.94 34.703 972.732-23.474c90.958-38.126 174.128-72.988 214.288-87.955l4.61.99h.01z" fill="url(#paint23_linear_159_2242)" fill-opacity=".2"/><path d="M1121.89-112.012c-39.84 14.426-113.23 44.355-191.597 76.311C818.066 10.066 695.648 59.987 646.589 74.631l-.011.003c-17.866 5.263-35.474 6.41-55.96 4.23-19.761-2.102-42.047-7.363-69.985-15.037-8.183-2.16-62.958-19.64-138.778-43.838-196.962-62.858-536.24-171.137-566.405-173.081l1.21-1.521c31.898 2.055 371.926 110.572 569.321 173.57 75.683 24.153 130.361 41.603 138.41 43.727l.043.012c27.444 7.538 49.205 12.694 68.127 14.707 18.202 1.936 33.936.891 50.03-3.848 48.78-14.561 171.064-64.428 283.165-110.143 78.394-31.97 151.824-61.914 191.794-76.385l4.34.959v.002z" fill="url(#paint24_linear_159_2242)" fill-opacity=".2"/><path d="M1040.74-113.854c-39.56 13.791-99.027 36.778-160.7 60.617-82.071 31.725-168.056 64.964-216.486 80.145l-.011.003c-17.968 5.593-33.933 7.041-52.428 5.024-17.807-1.942-37.691-7.184-64.143-15.085-8.224-2.394-75.404-24.813-166.384-55.173-208.774-69.668-542.95-181.184-576.033-188.083l2.981-1.15c33.576 7.001 367.985 118.595 576.904 188.311C475.374-8.9 542.523 13.507 550.585 15.857l.018.008c25.968 7.758 45.377 12.892 62.332 14.741 16.266 1.774 30.535.43 46.871-4.652 48.294-15.138 134.187-48.34 216.172-80.033 61.694-23.848 121.179-46.843 160.852-60.673l3.91.899v-.001z" fill="url(#paint25_linear_159_2242)" fill-opacity=".2"/></g><defs><linearGradient id="paint0_linear_159_2242" x1="1506.62" y1="481.487" x2="1317.83" y2="-350.306" gradientUnits="userSpaceOnUse"><stop stop-color="#EB1D23"/><stop offset="1" stop-color="#A30003"/></linearGradient><linearGradient id="paint1_linear_159_2242" x1="1492.84" y1="467.752" x2="1311.08" y2="-346.049" gradientUnits="userSpaceOnUse"><stop stop-color="#EB1D23"/><stop offset="1" stop-color="#A30003"/></linearGradient><linearGradient id="paint2_linear_159_2242" x1="1478.6" y1="454.654" x2="1303.35" y2="-341.928" gradientUnits="userSpaceOnUse"><stop stop-color="#EB1D23"/><stop offset="1" stop-color="#A30003"/></linearGradient><linearGradient id="paint3_linear_159_2242" x1="1463.86" y1="445.113" x2="1292.88" y2="-338.885" gradientUnits="userSpaceOnUse"><stop stop-color="#EB1D23"/><stop offset="1" stop-color="#A30003"/></linearGradient><linearGradient id="paint4_linear_159_2242" x1="1448.57" y1="435.224" x2="1281.99" y2="-335.711" gradientUnits="userSpaceOnUse"><stop stop-color="#EB1D23"/><stop offset="1" stop-color="#A30003"/></linearGradient><linearGradient id="paint5_linear_159_2242" x1="1432.7" y1="424.958" x2="1270.66" y2="-332.395" gradientUnits="userSpaceOnUse"><stop stop-color="#EB1D23"/><stop offset="1" stop-color="#A30003"/></linearGradient><linearGradient id="paint6_linear_159_2242" x1="1416.19" y1="414.285" x2="1258.83" y2="-328.939" gradientUnits="userSpaceOnUse"><stop stop-color="#EB1D23"/><stop offset="1" stop-color="#A30003"/></linearGradient><linearGradient id="paint7_linear_159_2242" x1="1399" y1="403.176" x2="1246.51" y2="-325.306" gradientUnits="userSpaceOnUse"><stop stop-color="#EB1D23"/><stop offset="1" stop-color="#A30003"/></linearGradient><linearGradient id="paint8_linear_159_2242" x1="1381.07" y1="391.588" x2="1233.61" y2="-321.502" gradientUnits="userSpaceOnUse"><stop stop-color="#EB1D23"/><stop offset="1" stop-color="#A30003"/></linearGradient><linearGradient id="paint9_linear_159_2242" x1="1362.34" y1="379.481" x2="1220.1" y2="-317.495" gradientUnits="userSpaceOnUse"><stop stop-color="#EB1D23"/><stop offset="1" stop-color="#A30003"/></linearGradient><linearGradient id="paint10_linear_159_2242" x1="1342.7" y1="366.804" x2="1205.87" y2="-313.265" gradientUnits="userSpaceOnUse"><stop stop-color="#EB1D23"/><stop offset="1" stop-color="#A30003"/></linearGradient><linearGradient id="paint11_linear_159_2242" x1="1322.11" y1="353.504" x2="1190.91" y2="-308.801" gradientUnits="userSpaceOnUse"><stop stop-color="#EB1D23"/><stop offset="1" stop-color="#A30003"/></linearGradient><linearGradient id="paint12_linear_159_2242" x1="1300.43" y1="339.512" x2="1175.1" y2="-304.068" gradientUnits="userSpaceOnUse"><stop stop-color="#EB1D23"/><stop offset="1" stop-color="#A30003"/></linearGradient><linearGradient id="paint13_linear_159_2242" x1="1277.56" y1="324.754" x2="1158.35" y2="-299.022" gradientUnits="userSpaceOnUse"><stop stop-color="#EB1D23"/><stop offset="1" stop-color="#A30003"/></linearGradient><linearGradient id="paint14_linear_159_2242" x1="1253.37" y1="309.14" x2="1140.55" y2="-293.639" gradientUnits="userSpaceOnUse"><stop stop-color="#EB1D23"/><stop offset="1" stop-color="#A30003"/></linearGradient><linearGradient id="paint15_linear_159_2242" x1="1227.66" y1="292.562" x2="1121.54" y2="-287.86" gradientUnits="userSpaceOnUse"><stop stop-color="#EB1D23"/><stop offset="1" stop-color="#A30003"/></linearGradient><linearGradient id="paint16_linear_159_2242" x1="1200.28" y1="274.898" x2="1101.17" y2="-281.64" gradientUnits="userSpaceOnUse"><stop stop-color="#EB1D23"/><stop offset="1" stop-color="#A30003"/></linearGradient><linearGradient id="paint17_linear_159_2242" x1="1170.95" y1="255.995" x2="1079.21" y2="-274.898" gradientUnits="userSpaceOnUse"><stop stop-color="#EB1D23"/><stop offset="1" stop-color="#A30003"/></linearGradient><linearGradient id="paint18_linear_159_2242" x1="1139.39" y1="235.658" x2="1055.41" y2="-267.55" gradientUnits="userSpaceOnUse"><stop stop-color="#EB1D23"/><stop offset="1" stop-color="#A30003"/></linearGradient><linearGradient id="paint19_linear_159_2242" x1="1105.25" y1="213.657" x2="1029.44" y2="-259.482" gradientUnits="userSpaceOnUse"><stop stop-color="#EB1D23"/><stop offset="1" stop-color="#A30003"/></linearGradient><linearGradient id="paint20_linear_159_2242" x1="1068.04" y1="189.692" x2="1000.86" y2="-250.559" gradientUnits="userSpaceOnUse"><stop stop-color="#EB1D23"/><stop offset="1" stop-color="#A30003"/></linearGradient><linearGradient id="paint21_linear_159_2242" x1="1027.19" y1="163.374" x2="969.109" y2="-240.572" gradientUnits="userSpaceOnUse"><stop stop-color="#EB1D23"/><stop offset="1" stop-color="#A30003"/></linearGradient><linearGradient id="paint22_linear_159_2242" x1="981.919" y1="134.192" x2="933.439" y2="-229.275" gradientUnits="userSpaceOnUse"><stop stop-color="#EB1D23"/><stop offset="1" stop-color="#A30003"/></linearGradient><linearGradient id="paint23_linear_159_2242" x1="931.178" y1="101.44" x2="892.766" y2="-216.302" gradientUnits="userSpaceOnUse"><stop stop-color="#EB1D23"/><stop offset="1" stop-color="#A30003"/></linearGradient><linearGradient id="paint24_linear_159_2242" x1="873.123" y1="60.704" x2="832.047" y2="-260.131" gradientUnits="userSpaceOnUse"><stop stop-color="#EB1D23"/><stop offset="1" stop-color="#A30003"/></linearGradient><linearGradient id="paint25_linear_159_2242" x1="805.347" y1="11.479" x2="752.169" y2="-342.548" gradientUnits="userSpaceOnUse"><stop stop-color="#EB1D23"/><stop offset="1" stop-color="#A30003"/></linearGradient><clipPath id="clip0_159_2242"><path fill="#fff" d="M0 0h1920v778H0z"/></clipPath></defs></svg>