<svg width="1920" height="778" viewBox="0 0 1920 778" fill="none" xmlns="http://www.w3.org/2000/svg">
<g clip-path="url(#clip0_159_2242)">
<rect width="1920" height="778" fill="#13191D"/>
<path d="M1883 -94.9222C1853.9 -81.9856 1781.04 -48.816 1682.92 -4.14178C1301.95 169.301 540.568 515.93 485.552 522.694L485.522 522.698C469.213 524.661 437.099 522.918 398.51 519.267C360.582 515.679 316.077 510.243 274.302 504.709C248.173 501.3 154.204 492.209 68.434 492.527C37.9873 492.639 8.61597 493.943 -16.1989 497.119C-40.7313 500.258 -60.8285 505.245 -73.084 512.751C-81.8422 518.115 -86.6431 524.775 -86.264 532.975L-93.5759 533C-93.9711 524.47 -88.9309 517.513 -79.7372 511.883C-66.6672 503.878 -45.2852 498.566 -19.2096 495.229C6.57837 491.929 36.9469 490.575 68.3505 490.458C155.44 490.135 250.845 499.366 277.372 502.83L277.385 502.834C318.926 508.337 363.169 513.74 400.838 517.305C437.836 520.805 468.183 522.531 482.637 520.794C535.614 514.257 1296.14 168.016 1676.69 -5.23627C1774.98 -49.9842 1847.96 -83.2086 1876.8 -96.0327L1883 -94.9222H1883Z" fill="url(#paint0_linear_159_2242)" fill-opacity="0.2"/>
<path d="M1866.45 -95.2943C1837.19 -82.3174 1761.33 -47.8137 1659.58 -1.52881C1281.15 170.606 543.87 505.969 489.076 512.96L489.046 512.964C474.522 514.773 447.89 513.658 415.433 510.855C375.29 507.389 325.859 501.352 279.633 495.133C252.283 491.516 147.276 480.481 56.0305 480.712C27.213 480.785 -0.187866 481.986 -23.2042 484.911C-45.941 487.8 -64.4331 492.387 -75.7961 499.259C-84.03 504.238 -88.5624 510.43 -88.3204 518.056L-95.6082 518.072C-95.8582 510.123 -91.0785 503.636 -82.3956 498.386C-70.218 491.022 -50.4515 486.112 -26.1718 483.027C-2.17151 479.977 26.2133 478.726 55.9771 478.65C148.572 478.416 255.036 489.603 282.738 493.265H282.754C328.768 499.456 377.879 505.458 417.551 508.883C448.412 511.547 473.326 512.66 486.084 511.075C538.896 504.318 1275.36 169.327 1653.38 -2.6203C1754.67 -48.6962 1830.19 -83.0456 1860.31 -96.4018L1866.46 -95.2943H1866.45Z" fill="url(#paint1_linear_159_2242)" fill-opacity="0.2"/>
<path d="M1849.36 -95.678C1819.36 -82.4145 1740.82 -46.7227 1635.92 0.947113C1260.61 171.51 547.31 495.664 492.718 502.89L492.688 502.894C478.073 504.778 451.567 503.709 419.316 500.923C379.673 497.499 330.955 491.488 285.186 485.23C256.723 481.418 140.028 468.151 43.7666 468.273C16.6479 468.307 -8.80127 469.407 -30.0758 472.09C-51.076 474.737 -68.0466 478.945 -78.5548 485.217C-86.2806 489.827 -90.5576 495.564 -90.4474 502.627L-97.7056 502.635C-97.8212 495.245 -93.2969 489.214 -85.1301 484.339C-73.8101 477.582 -55.576 473.056 -33.0354 470.214C-10.769 467.406 15.672 466.255 43.7395 466.219C141.415 466.096 259.503 479.515 288.288 483.371L288.315 483.375C333.848 489.6 382.233 495.574 421.424 498.959C452.067 501.606 476.836 502.676 489.651 501.029C542.299 494.048 1254.83 170.242 1629.75 -0.139923C1734.22 -47.6182 1812.45 -83.1663 1843.24 -96.7809L1849.36 -95.6788V-95.678Z" fill="url(#paint2_linear_159_2242)" fill-opacity="0.2"/>
<path d="M1831.66 -96.0721C1800.65 -82.4058 1719.62 -45.6194 1611.9 3.2872C1240.24 172.022 550.864 485.003 496.49 492.465L496.463 492.469C481.769 494.427 455.398 493.407 423.36 490.639C384.239 487.259 336.238 481.271 290.915 474.972C261.42 470.968 132.491 455.18 31.7052 455.168C6.32593 455.165 -17.2228 456.167 -36.8439 458.62C-56.1802 461.038 -71.7153 464.88 -81.4009 470.584C-88.616 474.834 -92.6431 480.129 -92.6511 486.648H-99.8796C-99.8689 479.807 -95.5892 474.219 -87.9198 469.703C-77.4116 463.514 -60.6239 459.354 -39.7607 456.745C-19.1799 454.172 5.35547 453.12 31.7079 453.124C133.954 453.136 264.243 469.083 294.036 473.129L294.066 473.133C339.104 479.393 386.752 485.339 425.46 488.684C455.855 491.31 480.463 492.334 493.353 490.621C545.861 483.402 1234.49 170.759 1605.75 2.20551C1713.42 -46.6776 1794.41 -83.4449 1825.57 -97.1781L1831.66 -96.0721H1831.66Z" fill="url(#paint3_linear_159_2242)" fill-opacity="0.2"/>
<path d="M1813.31 -96.4852C1781.63 -82.5673 1698.04 -44.6613 1587.47 5.48889C1220.03 172.137 554.568 473.95 500.412 481.653L500.369 481.661C485.6 483.697 459.379 482.728 427.572 479.978C388.964 476.64 341.701 470.678 296.853 464.337L296.848 464.34C274.904 461.317 195.204 450.811 113.117 445.106C68.5818 442.011 23.3824 440.33 -13.5131 442.037C-49.6345 443.708 -77.772 448.663 -89.229 458.81C-92.8555 462.022 -94.8475 465.76 -94.9363 470.081L-102.132 470.073C-102.038 465.538 -99.9281 461.598 -96.0865 458.195C-83.6537 447.181 -53.417 441.818 -14.6719 440.025C23.3016 438.269 69.4771 439.974 114.838 443.127C197.661 448.882 277.915 459.461 300.006 462.504L300.036 462.512C344.582 468.811 391.481 474.73 429.661 478.03C459.804 480.636 484.242 481.611 497.202 479.826C549.77 472.27 1214.36 170.855 1581.35 4.41104C1691.87 -45.7178 1775.42 -83.6079 1807.24 -97.5867L1813.31 -96.4852Z" fill="url(#paint4_linear_159_2242)" fill-opacity="0.2"/>
<path d="M1794.25 -96.9138C1761.93 -82.7648 1675.86 -43.7734 1562.59 7.5451C1199.93 171.847 558.41 462.482 504.465 470.432L504.422 470.436C489.562 472.554 463.516 471.641 431.965 468.912C393.825 465.613 347.308 459.676 302.974 453.294L302.482 453.223C269.992 448.68 115.991 427.15 8.38721 426.795C-51.2775 426.599 -96.493 433.029 -97.313 452.882L-104.477 452.866C-103.595 431.487 -55.2936 424.561 8.44373 424.771C117.724 425.131 272.915 446.827 305.654 451.405L306.227 451.483C350.311 457.829 396.451 463.723 434.037 466.974C463.882 469.555 488.113 470.48 501.146 468.631C553.356 460.934 1194.2 170.603 1556.48 6.47336C1669.7 -44.817 1755.71 -83.7872 1788.2 -98.0092L1794.24 -96.9131L1794.25 -96.9138Z" fill="url(#paint5_linear_159_2242)" fill-opacity="0.2"/>
<path d="M1774.42 -97.3563C1741.59 -83.0363 1653.12 -42.9997 1537.3 9.40732C1180.01 171.091 562.429 450.555 508.681 458.761L508.638 458.765C493.688 460.969 467.828 460.113 436.559 457.407C398.991 454.157 353.243 448.242 309.396 441.812L302.482 440.823C257.955 434.419 101.859 411.969 -2.81702 411.432C-57.9601 411.15 -98.6218 417.066 -99.7723 435.001L-106.902 434.969C-105.654 415.527 -61.9548 409.112 -2.7041 409.416C103.676 409.962 260.882 432.571 305.724 439.02L312.665 440.016C356.222 446.404 401.569 452.27 438.626 455.476C468.175 458.034 492.202 458.905 505.302 456.982C557.369 449.031 1174.31 169.856 1531.24 8.33859C1646.87 -43.9863 1735.21 -83.9606 1768.44 -98.457L1774.42 -97.3579V-97.3563Z" fill="url(#paint6_linear_159_2242)" fill-opacity="0.2"/>
<path d="M1753.79 -97.8193C1720.33 -83.2789 1629.6 -42.2738 1511.52 11.0916C1160.17 169.885 566.625 438.141 513.068 446.608L513.028 446.616C498.004 448.907 472.345 448.111 441.366 445.429C404.371 442.227 359.437 436.34 316.112 429.863C313.402 429.474 308.867 428.795 303.173 427.945C249.797 419.962 89.2489 395.952 -13.7092 395.214C-64.4114 394.851 -100.893 400.256 -102.339 416.382L-109.431 416.335C-107.853 398.722 -68.3845 392.816 -13.5425 393.21C91.1146 393.96 252.746 418.132 306.483 426.168C311.754 426.956 315.937 427.583 319.335 428.072L319.378 428.081C362.411 434.514 406.949 440.354 443.422 443.511C472.662 446.042 496.477 446.855 509.651 444.848C561.76 436.551 1154.56 168.635 1505.49 10.0297C1623.41 -43.2666 1714.02 -84.2184 1747.84 -98.9125L1753.79 -97.8193Z" fill="url(#paint7_linear_159_2242)" fill-opacity="0.2"/>
<path d="M1732.27 -98.3004C1697.64 -83.316 1605 -41.5022 1485.16 12.5831C1140.36 168.211 570.977 425.201 517.657 433.93L517.6 433.938C502.487 436.322 477.049 435.591 446.398 432.936C409.978 429.781 365.843 423.915 323.028 417.385C318.939 416.784 312.622 415.797 304.391 414.511C243.449 404.99 77.321 379.036 -24.285 378.076C-70.6726 377.637 -103.316 382.536 -105.02 396.957L-112.074 396.894C-110.195 381.005 -74.6161 375.604 -24.0645 376.081C79.2727 377.058 246.46 403.178 307.789 412.759C316.076 414.053 322.429 415.046 326.316 415.617L326.37 415.625C368.862 422.107 412.567 427.92 448.438 431.027C477.301 433.527 500.855 434.28 514.111 432.202C565.95 423.715 1134.74 166.992 1479.19 11.5273C1599.49 -42.7724 1692.5 -84.7512 1726.35 -99.3958L1732.27 -98.3004H1732.27Z" fill="url(#paint8_linear_159_2242)" fill-opacity="0.2"/>
<path d="M1709.78 -98.8071C1674.8 -83.7414 1580.03 -41.0313 1458.24 13.8597C1120.62 166.025 575.577 411.674 522.434 420.681L522.38 420.689C507.173 423.17 481.976 422.508 451.664 419.88C415.871 416.778 372.583 410.936 330.305 404.351C325.483 403.628 317.158 402.266 306.058 400.45C238.192 389.35 65.8025 361.154 -34.5481 359.947C-76.7609 359.439 -105.89 363.839 -107.818 376.655L-114.831 376.578C-112.683 362.31 -80.6644 357.406 -34.2714 357.964C67.8346 359.192 241.291 387.563 309.579 398.732C320.647 400.542 328.935 401.898 333.636 402.601L333.69 402.608C375.618 409.14 418.465 414.926 453.729 417.983C482.219 420.452 505.506 421.142 518.834 418.979C570.526 410.217 1115.02 164.815 1452.3 12.8024C1574.31 -42.1822 1669.23 -84.9667 1703.89 -99.8956L1709.78 -98.8071H1709.78Z" fill="url(#paint9_linear_159_2242)" fill-opacity="0.2"/>
<path d="M1686.2 -99.3374C1650.95 -84.2238 1554.2 -40.6905 1430.71 14.8786C1100.92 163.281 580.381 397.514 527.428 406.805L527.388 406.813C512.09 409.396 487.154 408.805 457.213 406.209C422.048 403.159 379.634 397.342 337.921 390.7C332.574 389.883 322.203 388.105 308.149 385.697C233.694 372.935 54.5361 342.229 -44.5376 340.747C-82.7369 340.175 -108.641 344.086 -110.759 355.398L-117.729 355.298C-115.345 342.554 -86.5811 338.142 -44.1827 338.776C56.6249 340.284 236.855 371.175 311.757 384.013C325.593 386.385 335.792 388.133 341.281 388.97L341.335 388.977C382.693 395.564 424.653 401.323 459.261 404.324C487.371 406.762 510.391 407.383 523.789 405.125C575.467 396.017 1095.38 162.063 1424.8 13.8295C1548.21 -41.6992 1644.88 -85.2021 1680.38 -100.418L1686.2 -99.3351L1686.2 -99.3374Z" fill="url(#paint10_linear_159_2242)" fill-opacity="0.2"/>
<path d="M1661.48 -99.8896C1625.51 -84.5518 1527.14 -40.3611 1402.47 15.6398C1081.18 159.963 585.421 382.663 532.689 392.243L532.635 392.251C517.248 394.939 492.603 394.426 463.065 391.863C428.613 388.874 387.123 383.083 345.983 376.379C339.867 375.431 327.545 373.216 310.636 370.179C229.75 355.648 43.4043 322.171 -54.2339 320.382C-88.6025 319.751 -111.563 323.186 -113.831 333.086L-120.756 332.964C-118.162 321.649 -92.3741 317.717 -53.7985 318.423C45.6409 320.246 233.025 353.909 314.359 368.521C331.211 371.549 343.494 373.755 349.322 374.662L349.375 374.674C390.113 381.313 431.143 387.042 465.103 389.99C492.759 392.391 515.458 392.939 528.945 390.594C580.386 381.247 1075.65 158.773 1396.61 14.5961C1521.37 -41.4488 1619.83 -85.6746 1655.69 -100.971L1661.48 -99.8889L1661.48 -99.8896Z" fill="url(#paint11_linear_159_2242)" fill-opacity="0.2"/>
<path d="M1635.45 -100.471C1599.07 -85.0433 1499.15 -40.2451 1373.49 16.0924C1061.45 155.998 590.741 367.038 538.206 376.921L538.152 376.929C522.679 379.728 498.348 379.297 469.245 376.77C435.46 373.835 394.917 368.071 354.4 361.306C347.865 360.267 333.459 357.555 313.528 353.802C226.28 337.377 32.4176 300.879 -63.6857 298.74C-94.4119 298.057 -114.681 301.027 -117.071 309.612L-123.947 309.459C-121.17 299.481 -98.0891 296.018 -63.1451 296.795C34.7296 298.973 229.621 335.665 317.332 352.177C337.112 355.901 351.408 358.593 357.774 359.605L357.841 359.617C397.976 366.319 438.051 372.023 471.272 374.908C498.466 377.27 520.837 377.742 534.41 375.297C585.712 365.644 1055.94 154.818 1367.67 15.0541C1493.32 -41.2804 1593.23 -86.0763 1629.73 -101.555L1635.45 -100.472L1635.45 -100.471Z" fill="url(#paint12_linear_159_2242)" fill-opacity="0.2"/>
<path d="M1607.99 -101.09C1571.11 -85.5421 1469.93 -40.2743 1343.72 16.1925C1041.68 151.323 596.362 350.558 544.036 360.751L543.982 360.763C528.415 363.68 504.425 363.336 475.788 360.846C442.753 357.975 403.188 352.234 363.281 345.398C356.279 344.257 339.77 341.002 316.792 336.47C223.17 318.006 21.4818 278.23 -72.8983 275.694C-100.202 274.96 -118.036 277.483 -120.509 284.844L-127.305 284.662C-124.372 275.932 -103.762 272.925 -72.2559 273.772C23.9065 276.355 226.608 316.332 320.7 334.888C343.545 339.393 359.953 342.63 366.684 343.725L366.752 343.737C406.228 350.501 445.298 356.175 477.793 359C504.506 361.322 526.533 361.71 540.195 359.154C591.542 349.099 1036.28 150.127 1337.94 15.1641C1464.15 -41.3027 1565.33 -86.5706 1602.32 -102.164L1607.99 -101.09Z" fill="url(#paint13_linear_159_2242)" fill-opacity="0.2"/>
<path d="M1578.94 -101.74C1541.57 -86.091 1439.4 -40.4887 1313.06 15.9036C1021.86 145.871 602.324 333.124 550.189 343.644L550.135 343.655C534.477 346.696 510.863 346.445 482.737 343.998C450.416 341.186 411.862 335.467 372.615 328.555C365.281 327.326 346.587 323.467 320.474 318.075C220.411 297.414 10.6293 254.098 -81.8879 251.1C-105.982 250.319 -121.601 252.412 -124.122 258.635L-130.862 258.417C-127.792 250.843 -109.41 248.277 -81.1163 249.193C13.1427 252.248 223.919 295.769 324.458 316.528C350.413 321.887 368.972 325.719 376.133 326.915L376.201 326.926C415.024 333.763 453.051 339.411 484.729 342.167C510.896 344.443 532.53 344.743 546.291 342.077C597.413 331.731 1016.46 144.697 1307.33 14.8759C1433.68 -41.5209 1535.86 -87.1278 1573.32 -102.812L1578.95 -101.739L1578.94 -101.74Z" fill="url(#paint14_linear_159_2242)" fill-opacity="0.2"/>
<path d="M1548.08 -102.434C1510.46 -86.7955 1407.52 -40.975 1281.4 15.1627C1001.95 139.554 608.647 314.622 556.73 325.475L556.679 325.486C539.595 328.926 513.743 328.457 483.051 325.45C453.073 322.513 418.295 317.152 382.593 310.679C374.792 309.333 353.875 304.814 324.563 298.481C217.946 275.447 -0.182617 228.321 -90.6782 224.775C-111.816 223.948 -125.445 225.628 -127.982 230.807L-134.636 230.546C-131.45 224.042 -115.065 221.902 -89.7587 222.894C2.48975 226.508 221.559 273.838 328.639 296.971C357.943 303.303 378.832 307.815 386.142 309.069L386.22 309.08C421.551 315.485 455.855 320.779 485.234 323.658C513.888 326.465 537.673 326.975 552.757 323.945C603.725 313.264 996.573 138.398 1275.72 14.1441C1401.64 -41.9061 1504.42 -87.6552 1542.53 -103.498L1548.08 -102.434H1548.08Z" fill="url(#paint15_linear_159_2242)" fill-opacity="0.2"/>
<path d="M1515.2 -103.171C1476.82 -87.3456 1373.72 -41.5966 1248.66 13.8957C981.907 132.263 615.352 294.916 563.687 306.111L563.647 306.117C546.485 309.703 521.254 309.359 491.345 306.416C462.191 303.547 428.401 298.198 393.312 291.637C385.362 290.233 361.978 284.95 329.093 277.521C215.791 251.924 -10.833 200.727 -99.2506 196.512C-117.705 195.632 -129.573 196.92 -132.092 201.144L-138.652 200.835C-135.356 195.308 -120.74 193.58 -98.1538 194.656C-8.02112 198.952 219.487 250.351 333.235 276.048C365.948 283.438 389.209 288.694 396.827 290.039L396.905 290.054C431.615 296.544 464.947 301.828 493.533 304.641C521.361 307.38 544.507 307.771 559.655 304.615C610.405 293.618 976.584 131.132 1243.07 12.8855C1368.27 -42.6745 1471.5 -88.479 1509.71 -104.233L1515.2 -103.174V-103.171Z" fill="url(#paint16_linear_159_2242)" fill-opacity="0.2"/>
<path d="M1479.98 -103.961C1441.27 -88.1415 1338.31 -42.6236 1214.77 11.9969C961.796 123.842 622.566 273.823 571.144 285.377L571.093 285.388C553.87 289.125 529.31 288.915 500.24 286.039C471.917 283.238 439.143 277.895 404.68 271.231C396.47 269.732 370.561 263.614 334.093 255.004C213.979 226.645 -21.1774 171.124 -107.573 166.057H-107.587C-123.687 165.113 -134.034 166.026 -136.501 169.393L-142.937 169.022C-139.533 164.38 -126.429 163.053 -106.248 164.237C-18.1854 169.407 217.785 225.12 338.316 253.577C374.655 262.157 400.459 268.249 408.26 269.672L408.338 269.687C442.395 276.272 474.683 281.543 502.401 284.285C529.356 286.951 551.821 287.214 567.052 283.92C617.661 272.546 956.527 122.726 1209.23 10.9996C1332.87 -43.6635 1435.91 -89.2164 1474.57 -105.016L1479.98 -103.961Z" fill="url(#paint17_linear_159_2242)" fill-opacity="0.2"/>
<path d="M1442.08 -104.812C1403.16 -89.0719 1300.87 -44.0389 1179.55 9.36835C941.554 114.135 630.357 251.127 579.147 263.066L579.109 263.077C561.808 266.978 537.977 266.912 509.808 264.111C482.377 261.382 450.686 256.042 416.885 249.267C408.476 247.669 379.865 240.613 339.596 230.682C212.605 199.364 -30.8032 139.334 -115.552 133.109C-129.737 132.067 -138.864 132.622 -141.267 135.236L-147.544 134.776C-144.009 130.926 -132.108 129.998 -113.923 131.334C-27.6958 137.668 216.476 197.885 343.865 229.301C384.062 239.214 412.586 246.249 420.57 247.757L420.645 247.772C453.99 254.456 485.157 259.714 511.942 262.379C537.991 264.969 559.749 265.093 575.066 261.639C625.578 249.832 936.374 113.016 1174.08 8.3764C1295.34 -45.0028 1397.58 -90.0114 1436.76 -105.861L1442.08 -104.812H1442.08Z" fill="url(#paint18_linear_159_2242)" fill-opacity="0.2"/>
<path d="M1401.08 -105.733C1361.73 -90.0021 1260.92 -45.8555 1142.88 5.83472C921.18 102.915 638.755 226.589 587.816 238.922L587.778 238.929C570.388 243.01 547.34 243.102 520.154 240.38C493.726 237.734 463.261 232.409 430.234 225.524C421.814 223.872 390.196 215.731 345.644 204.259C211.933 169.83 -38.7206 105.289 -122.759 97.3403C-135.738 96.1127 -144.093 96.299 -146.439 98.2821L-152.501 97.7082C-148.751 94.5378 -137.587 94.0323 -120.729 95.6263C-35.3977 103.698 215.898 168.403 349.95 202.92C394.306 214.341 425.782 222.446 433.89 224.038L433.952 224.053C466.541 230.848 496.498 236.092 522.283 238.674C547.305 241.179 568.268 241.156 583.663 237.55C633.876 225.391 916.019 101.841 1137.49 4.85872C1255.59 -46.8558 1356.45 -91.0229 1395.84 -106.773L1401.08 -105.731V-105.733Z" fill="url(#paint19_linear_159_2242)" fill-opacity="0.2"/>
<path d="M1356.38 -106.734C1316.67 -91.0677 1218.21 -48.2353 1104.54 1.21245C900.65 89.9109 647.878 199.872 597.257 212.614L597.219 212.621C579.746 216.894 557.552 217.155 531.431 214.519C506.089 211.962 476.928 206.646 444.702 199.633C436.228 197.896 401.357 188.524 352.257 175.329C212.839 137.859 -41.6831 69.4552 -127.778 58.4941C-141.125 56.7952 -149.708 56.5109 -152.122 58.0274L-157.859 57.2969C-153.657 54.657 -142.214 54.7056 -125.195 56.8728C-38.1372 67.9562 216.892 136.497 356.588 174.041C405.483 187.182 440.21 196.516 448.39 198.193L448.465 198.211C480.21 205.12 508.845 210.349 533.547 212.841C557.466 215.254 577.574 215.069 593.071 211.286C643.102 198.692 895.599 88.849 1099.28 0.244781C1213.1 -49.2707 1311.7 -92.1624 1351.26 -107.772L1356.38 -106.734Z" fill="url(#paint20_linear_159_2242)" fill-opacity="0.2"/>
<path d="M1307.27 -107.838C1267.6 -92.4296 1172.48 -51.4032 1064.39 -4.78159C880.048 74.7308 657.968 170.52 607.604 183.712L607.58 183.722C590.026 188.203 568.789 188.649 543.832 186.108C519.62 183.643 491.883 178.336 460.557 171.185C452.003 169.335 413.53 158.544 359.459 143.379C219.917 104.243 -23.7228 35.9088 -121.525 17.8018C-141.977 14.0156 -155.216 12.4308 -158.471 13.837L-163.633 12.8822C-158.015 10.4559 -141.869 11.9511 -118.151 16.3424C-19.8677 34.5375 224.081 102.958 363.798 142.145C417.753 157.278 456.13 168.042 464.326 169.807L464.385 169.821C495.248 176.868 522.442 182.083 545.902 184.471C568.628 186.785 587.822 186.416 603.451 182.426C653.253 169.37 875.086 73.6894 1059.23 -5.73709C1167.24 -52.323 1262.28 -93.3189 1302.3 -108.862L1307.27 -107.839L1307.27 -107.838Z" fill="url(#paint21_linear_159_2242)" fill-opacity="0.2"/>
<path d="M1252.8 -109.062C1212.9 -93.8486 1122.76 -55.4189 1022.14 -12.5204C859.316 56.896 669.059 138.01 619.08 151.656L619.056 151.663C601.402 156.377 581.222 157.029 557.577 154.594C534.7 152.239 508.568 146.946 478.229 139.64C469.774 137.715 427.056 125.212 367.16 107.68C189.083 55.5559 -141.673 -41.2555 -165.786 -35.1524L-169.784 -36.415C-141.37 -43.6081 191.997 53.9679 371.483 106.503C431.22 123.989 473.823 136.458 481.984 138.319L482.043 138.336C511.882 145.523 537.471 150.718 559.62 152.999C581.01 155.201 599.179 154.635 614.943 150.427C664.47 136.894 854.502 55.8781 1017.13 -13.4576C1117.78 -56.366 1207.94 -94.8049 1247.98 -110.072L1252.8 -109.062Z" fill="url(#paint22_linear_159_2242)" fill-opacity="0.2"/>
<path d="M1191.64 -110.439C1151.79 -95.5893 1068.57 -60.7056 977.549 -22.5548C838.623 35.6785 681.53 101.526 631.951 115.663L631.94 115.666C614.174 120.64 595.193 121.524 573.021 119.21C551.601 116.973 527.259 111.693 498.033 104.213C489.721 102.188 441.868 87.5671 375.069 67.1577C188.159 10.0486 -147.635 -92.5519 -174.469 -90.1742L-176.198 -91.7415C-145.891 -94.427 191.511 8.6644 379.314 66.0464C445.949 86.4064 493.686 100.992 501.821 102.974L501.866 102.987C530.579 110.337 554.375 115.512 575.015 117.668C594.913 119.746 611.938 118.957 627.841 114.505C677 100.486 833.94 34.7033 972.732 -23.4738C1063.69 -61.6002 1146.86 -96.4619 1187.02 -111.429L1191.63 -110.439H1191.64Z" fill="url(#paint23_linear_159_2242)" fill-opacity="0.2"/>
<path d="M1121.89 -112.012C1082.05 -97.5864 1008.66 -67.6572 930.293 -35.7007C818.066 10.0658 695.648 59.9872 646.589 74.6311L646.578 74.6341C628.712 79.8972 611.104 81.0434 590.618 78.8642C570.857 76.7624 548.571 71.5008 520.633 63.8273C512.45 61.6678 457.675 44.1872 381.855 19.9893C184.893 -42.8687 -154.385 -151.148 -184.55 -153.092L-183.34 -154.613C-151.442 -152.558 188.586 -44.0408 385.981 18.9563C461.664 43.1101 516.342 60.5603 524.391 62.6841L524.434 62.6962C551.878 70.2344 573.639 75.3904 592.561 77.4032C610.763 79.3393 626.497 78.2941 642.591 73.5547C691.371 58.9937 813.655 9.12709 925.756 -36.5877C1004.15 -68.5579 1077.58 -98.5016 1117.55 -112.973L1121.89 -112.014V-112.012Z" fill="url(#paint24_linear_159_2242)" fill-opacity="0.2"/>
<path d="M1040.74 -113.854C1001.18 -100.063 941.713 -77.0764 880.04 -53.2365C797.969 -21.5119 711.984 11.727 663.554 26.9083L663.543 26.9113C645.575 32.5036 629.61 33.9523 611.115 31.935C593.308 29.9928 573.424 24.751 546.972 16.8495C538.748 14.4558 471.568 -7.96335 380.588 -38.3228C171.814 -107.991 -162.362 -219.507 -195.445 -226.406L-192.464 -227.556C-158.888 -220.555 175.521 -108.961 384.44 -39.2449C475.374 -8.89982 542.523 13.5072 550.585 15.8567L550.603 15.8651C576.571 23.623 595.98 28.7568 612.935 30.6062C629.201 32.3804 643.47 31.0364 659.806 25.9542C708.1 10.8163 793.993 -22.3868 875.978 -54.0788C937.672 -77.927 997.157 -100.922 1036.83 -114.752L1040.74 -113.853L1040.74 -113.854Z" fill="url(#paint25_linear_159_2242)" fill-opacity="0.2"/>
</g>
<defs>
<linearGradient id="paint0_linear_159_2242" x1="1506.62" y1="481.487" x2="1317.83" y2="-350.306" gradientUnits="userSpaceOnUse">
<stop stop-color="#EB1D23"/>
<stop offset="1" stop-color="#A30003"/>
</linearGradient>
<linearGradient id="paint1_linear_159_2242" x1="1492.84" y1="467.752" x2="1311.08" y2="-346.049" gradientUnits="userSpaceOnUse">
<stop stop-color="#EB1D23"/>
<stop offset="1" stop-color="#A30003"/>
</linearGradient>
<linearGradient id="paint2_linear_159_2242" x1="1478.6" y1="454.654" x2="1303.35" y2="-341.928" gradientUnits="userSpaceOnUse">
<stop stop-color="#EB1D23"/>
<stop offset="1" stop-color="#A30003"/>
</linearGradient>
<linearGradient id="paint3_linear_159_2242" x1="1463.86" y1="445.113" x2="1292.88" y2="-338.885" gradientUnits="userSpaceOnUse">
<stop stop-color="#EB1D23"/>
<stop offset="1" stop-color="#A30003"/>
</linearGradient>
<linearGradient id="paint4_linear_159_2242" x1="1448.57" y1="435.224" x2="1281.99" y2="-335.711" gradientUnits="userSpaceOnUse">
<stop stop-color="#EB1D23"/>
<stop offset="1" stop-color="#A30003"/>
</linearGradient>
<linearGradient id="paint5_linear_159_2242" x1="1432.7" y1="424.958" x2="1270.66" y2="-332.395" gradientUnits="userSpaceOnUse">
<stop stop-color="#EB1D23"/>
<stop offset="1" stop-color="#A30003"/>
</linearGradient>
<linearGradient id="paint6_linear_159_2242" x1="1416.19" y1="414.285" x2="1258.83" y2="-328.939" gradientUnits="userSpaceOnUse">
<stop stop-color="#EB1D23"/>
<stop offset="1" stop-color="#A30003"/>
</linearGradient>
<linearGradient id="paint7_linear_159_2242" x1="1399" y1="403.176" x2="1246.51" y2="-325.306" gradientUnits="userSpaceOnUse">
<stop stop-color="#EB1D23"/>
<stop offset="1" stop-color="#A30003"/>
</linearGradient>
<linearGradient id="paint8_linear_159_2242" x1="1381.07" y1="391.588" x2="1233.61" y2="-321.502" gradientUnits="userSpaceOnUse">
<stop stop-color="#EB1D23"/>
<stop offset="1" stop-color="#A30003"/>
</linearGradient>
<linearGradient id="paint9_linear_159_2242" x1="1362.34" y1="379.481" x2="1220.1" y2="-317.495" gradientUnits="userSpaceOnUse">
<stop stop-color="#EB1D23"/>
<stop offset="1" stop-color="#A30003"/>
</linearGradient>
<linearGradient id="paint10_linear_159_2242" x1="1342.7" y1="366.804" x2="1205.87" y2="-313.265" gradientUnits="userSpaceOnUse">
<stop stop-color="#EB1D23"/>
<stop offset="1" stop-color="#A30003"/>
</linearGradient>
<linearGradient id="paint11_linear_159_2242" x1="1322.11" y1="353.504" x2="1190.91" y2="-308.801" gradientUnits="userSpaceOnUse">
<stop stop-color="#EB1D23"/>
<stop offset="1" stop-color="#A30003"/>
</linearGradient>
<linearGradient id="paint12_linear_159_2242" x1="1300.43" y1="339.512" x2="1175.1" y2="-304.068" gradientUnits="userSpaceOnUse">
<stop stop-color="#EB1D23"/>
<stop offset="1" stop-color="#A30003"/>
</linearGradient>
<linearGradient id="paint13_linear_159_2242" x1="1277.56" y1="324.754" x2="1158.35" y2="-299.022" gradientUnits="userSpaceOnUse">
<stop stop-color="#EB1D23"/>
<stop offset="1" stop-color="#A30003"/>
</linearGradient>
<linearGradient id="paint14_linear_159_2242" x1="1253.37" y1="309.14" x2="1140.55" y2="-293.639" gradientUnits="userSpaceOnUse">
<stop stop-color="#EB1D23"/>
<stop offset="1" stop-color="#A30003"/>
</linearGradient>
<linearGradient id="paint15_linear_159_2242" x1="1227.66" y1="292.562" x2="1121.54" y2="-287.86" gradientUnits="userSpaceOnUse">
<stop stop-color="#EB1D23"/>
<stop offset="1" stop-color="#A30003"/>
</linearGradient>
<linearGradient id="paint16_linear_159_2242" x1="1200.28" y1="274.898" x2="1101.17" y2="-281.64" gradientUnits="userSpaceOnUse">
<stop stop-color="#EB1D23"/>
<stop offset="1" stop-color="#A30003"/>
</linearGradient>
<linearGradient id="paint17_linear_159_2242" x1="1170.95" y1="255.995" x2="1079.21" y2="-274.898" gradientUnits="userSpaceOnUse">
<stop stop-color="#EB1D23"/>
<stop offset="1" stop-color="#A30003"/>
</linearGradient>
<linearGradient id="paint18_linear_159_2242" x1="1139.39" y1="235.658" x2="1055.41" y2="-267.55" gradientUnits="userSpaceOnUse">
<stop stop-color="#EB1D23"/>
<stop offset="1" stop-color="#A30003"/>
</linearGradient>
<linearGradient id="paint19_linear_159_2242" x1="1105.25" y1="213.657" x2="1029.44" y2="-259.482" gradientUnits="userSpaceOnUse">
<stop stop-color="#EB1D23"/>
<stop offset="1" stop-color="#A30003"/>
</linearGradient>
<linearGradient id="paint20_linear_159_2242" x1="1068.04" y1="189.692" x2="1000.86" y2="-250.559" gradientUnits="userSpaceOnUse">
<stop stop-color="#EB1D23"/>
<stop offset="1" stop-color="#A30003"/>
</linearGradient>
<linearGradient id="paint21_linear_159_2242" x1="1027.19" y1="163.374" x2="969.109" y2="-240.572" gradientUnits="userSpaceOnUse">
<stop stop-color="#EB1D23"/>
<stop offset="1" stop-color="#A30003"/>
</linearGradient>
<linearGradient id="paint22_linear_159_2242" x1="981.919" y1="134.192" x2="933.439" y2="-229.275" gradientUnits="userSpaceOnUse">
<stop stop-color="#EB1D23"/>
<stop offset="1" stop-color="#A30003"/>
</linearGradient>
<linearGradient id="paint23_linear_159_2242" x1="931.178" y1="101.44" x2="892.766" y2="-216.302" gradientUnits="userSpaceOnUse">
<stop stop-color="#EB1D23"/>
<stop offset="1" stop-color="#A30003"/>
</linearGradient>
<linearGradient id="paint24_linear_159_2242" x1="873.123" y1="60.7036" x2="832.047" y2="-260.131" gradientUnits="userSpaceOnUse">
<stop stop-color="#EB1D23"/>
<stop offset="1" stop-color="#A30003"/>
</linearGradient>
<linearGradient id="paint25_linear_159_2242" x1="805.347" y1="11.4786" x2="752.169" y2="-342.548" gradientUnits="userSpaceOnUse">
<stop stop-color="#EB1D23"/>
<stop offset="1" stop-color="#A30003"/>
</linearGradient>
<clipPath id="clip0_159_2242">
<rect width="1920" height="778" fill="white"/>
</clipPath>
</defs>
</svg>
