<svg width="1920" height="609" viewBox="0 0 1920 609" fill="none" xmlns="http://www.w3.org/2000/svg">
<g clip-path="url(#clip0_174_753)">
<mask id="path-1-inside-1_174_753" fill="white">
<path d="M0 0H1920V609H0V0Z"/>
</mask>
<path d="M0 0H1920V609H0V0Z" fill="black"/>
<path d="M503.003 773.331C532.097 760.395 604.955 727.225 703.083 682.551C1084.05 509.108 1845.43 162.479 1900.45 155.715L1900.48 155.711C1916.79 153.748 1948.9 155.491 1987.49 159.142C2025.42 162.73 2069.92 168.166 2111.7 173.7C2137.83 177.109 2231.8 186.2 2317.57 185.882C2348.01 185.77 2377.38 184.466 2402.2 181.29C2426.73 178.151 2446.83 173.164 2459.08 165.658C2467.84 160.294 2472.64 153.634 2472.26 145.434L2479.58 145.409C2479.97 153.939 2474.93 160.896 2465.74 166.526C2452.67 174.531 2431.29 179.843 2405.21 183.18C2379.42 186.48 2349.05 187.834 2317.65 187.95C2230.56 188.274 2135.16 179.043 2108.63 175.579L2108.61 175.575C2067.07 170.072 2022.83 164.669 1985.16 161.104C1948.16 157.604 1917.82 155.878 1903.36 157.615C1850.39 164.152 1089.86 510.392 709.306 683.645C611.017 728.393 538.038 761.618 509.196 774.442L503 773.331H503.003Z" fill="url(#paint0_linear_174_753)" fill-opacity="0.2"/>
<path d="M519.546 773.703C548.812 760.726 624.668 726.223 726.422 679.938C1104.85 507.803 1842.13 172.44 1896.92 165.449L1896.95 165.445C1911.48 163.636 1938.11 164.751 1970.57 167.554C2010.71 171.02 2060.14 177.057 2106.37 183.276C2133.72 186.893 2238.72 197.928 2329.97 197.697C2358.79 197.624 2386.19 196.423 2409.2 193.498C2431.94 190.609 2450.43 186.022 2461.8 179.15C2470.03 174.171 2474.56 167.979 2474.32 160.353L2481.61 160.337C2481.86 168.286 2477.08 174.773 2468.4 180.023C2456.22 187.387 2436.45 192.296 2412.17 195.382C2388.17 198.431 2359.79 199.683 2330.02 199.759C2237.43 199.993 2130.96 188.806 2103.26 185.144H2103.25C2057.23 178.953 2008.12 172.951 1968.45 169.526C1937.59 166.862 1912.67 165.749 1899.92 167.334C1847.1 174.091 1110.64 509.082 732.621 681.029C631.326 727.105 555.809 761.455 525.688 774.811L519.543 773.703H519.546Z" fill="url(#paint1_linear_174_753)" fill-opacity="0.2"/>
<path d="M536.64 774.087C566.641 760.824 645.179 725.132 750.075 677.462C1125.39 506.9 1838.69 182.745 1893.28 175.519L1893.31 175.515C1907.93 173.632 1934.43 174.701 1966.68 177.486C2006.33 180.911 2055.04 186.922 2100.81 193.179C2129.28 196.991 2245.97 210.259 2342.23 210.137C2369.35 210.103 2394.8 209.003 2416.08 206.32C2437.08 203.672 2454.05 199.465 2464.55 193.193C2472.28 188.582 2476.56 182.845 2476.45 175.782L2483.71 175.775C2483.82 183.165 2479.3 189.195 2471.13 194.071C2459.81 200.828 2441.58 205.353 2419.04 208.196C2396.77 211.003 2370.33 212.154 2342.26 212.19C2244.58 212.313 2126.5 198.895 2097.71 195.039L2097.68 195.034C2052.15 188.809 2003.77 182.835 1964.58 179.451C1933.93 176.804 1909.16 175.734 1896.35 177.38C1843.7 184.362 1131.17 508.168 756.253 678.549C651.779 726.028 573.555 761.576 542.759 775.19L536.64 774.088V774.087Z" fill="url(#paint2_linear_174_753)" fill-opacity="0.2"/>
<path d="M572.694 764.894C604.375 750.976 687.956 713.07 798.53 662.92C1165.97 496.272 1831.43 194.459 1885.59 186.756L1885.63 186.748C1900.4 184.712 1926.62 185.681 1958.43 188.431C1997.04 191.769 2044.3 197.731 2089.15 204.072L2089.15 204.069C2111.1 207.092 2190.8 217.598 2272.88 223.303C2317.42 226.398 2362.62 228.079 2399.51 226.372C2435.63 224.701 2463.77 219.746 2475.23 209.599C2478.86 206.387 2480.85 202.649 2480.94 198.328L2488.13 198.336C2488.04 202.871 2485.93 206.811 2482.09 210.214C2469.65 221.228 2439.42 226.591 2400.67 228.384C2362.7 230.14 2316.52 228.434 2271.16 225.282C2188.34 219.527 2108.09 208.948 2085.99 205.905L2085.96 205.897C2041.42 199.598 1994.52 193.679 1956.34 190.379C1926.2 187.773 1901.76 186.798 1888.8 188.583C1836.23 196.139 1171.64 497.554 804.654 663.998C694.126 714.127 610.582 752.017 578.762 765.996L572.694 764.894Z" fill="url(#paint3_linear_174_753)" fill-opacity="0.2"/>
<path d="M591.751 765.323C624.071 751.174 710.137 712.182 823.412 660.864C1186.07 496.562 1827.59 205.927 1881.53 197.977L1881.58 197.973C1896.44 195.855 1922.48 196.768 1954.04 199.497C1992.18 202.796 2038.69 208.733 2083.03 215.115L2083.52 215.186C2116.01 219.729 2270.01 241.259 2377.61 241.613C2437.28 241.81 2482.49 235.38 2483.31 215.527L2490.48 215.543C2489.6 236.922 2441.29 243.848 2377.56 243.638C2268.28 243.278 2113.09 221.582 2080.35 217.004L2079.77 216.926C2035.69 210.58 1989.55 204.686 1951.96 201.435C1922.12 198.854 1897.89 197.929 1884.85 199.778C1832.64 207.475 1191.8 497.806 829.517 661.936C716.303 713.226 630.286 752.196 597.799 766.418L591.762 765.322L591.751 765.323Z" fill="url(#paint4_linear_174_753)" fill-opacity="0.2"/>
<path d="M611.577 765.765C644.408 751.445 732.884 711.409 848.695 659.002C1205.99 497.318 1823.57 217.854 1877.32 209.648L1877.36 209.644C1892.31 207.44 1918.17 208.296 1949.44 211.002C1987.01 214.252 2032.76 220.167 2076.6 226.597L2083.52 227.586C2128.05 233.989 2284.14 256.44 2388.82 256.976C2443.96 257.259 2484.62 251.343 2485.77 233.408L2492.9 233.44C2491.65 252.882 2447.95 259.297 2388.7 258.993C2282.32 258.447 2125.12 235.838 2080.28 229.389L2073.33 228.393C2029.78 222.005 1984.43 216.139 1947.37 212.932C1917.83 210.375 1893.8 209.504 1880.7 211.427C1828.63 219.378 1211.69 498.553 854.762 660.07C739.129 712.395 650.792 752.37 617.558 766.866L611.577 765.767V765.765Z" fill="url(#paint5_linear_174_753)" fill-opacity="0.2"/>
<path d="M632.208 766.228C665.674 751.688 756.403 710.683 874.48 657.317C1225.83 498.524 1819.37 230.268 1872.93 221.801L1872.97 221.793C1888 219.502 1913.66 220.297 1944.63 222.98C1981.63 226.182 2026.56 232.069 2069.89 238.546C2072.6 238.935 2077.13 239.614 2082.83 240.464C2136.2 248.446 2296.75 272.457 2399.71 273.195C2450.41 273.558 2486.89 268.153 2488.34 252.027L2495.43 252.074C2493.85 269.687 2454.38 275.593 2399.54 275.199C2294.89 274.449 2133.25 250.277 2079.52 242.241C2074.25 241.453 2070.06 240.826 2066.67 240.337L2066.62 240.328C2023.59 233.895 1979.05 228.055 1942.58 224.898C1913.34 222.367 1889.52 221.554 1876.35 223.561C1824.24 231.857 1231.44 499.774 880.515 658.379C762.591 711.676 671.98 752.627 638.16 767.321L632.208 766.228Z" fill="url(#paint6_linear_174_753)" fill-opacity="0.2"/>
<path d="M653.73 766.709C688.362 751.725 781.003 709.911 900.835 655.826C1245.64 500.198 1815.02 243.208 1868.34 234.479L1868.4 234.471C1883.51 232.087 1908.95 232.818 1939.6 235.473C1976.02 238.628 2020.16 244.494 2062.97 251.024C2067.06 251.625 2073.38 252.612 2081.61 253.898C2142.55 263.419 2308.68 289.373 2410.29 290.333C2456.67 290.772 2489.32 285.873 2491.02 271.452L2498.07 271.515C2496.19 287.404 2460.62 292.805 2410.06 292.328C2306.73 291.351 2139.54 265.231 2078.21 255.65C2069.92 254.356 2063.57 253.363 2059.68 252.792L2059.63 252.784C2017.14 246.302 1973.43 240.489 1937.56 237.382C1908.7 234.882 1885.14 234.129 1871.89 236.207C1820.05 244.694 1251.26 501.417 906.814 656.882C786.508 711.181 693.499 753.16 659.652 767.805L653.733 766.709H653.73Z" fill="url(#paint7_linear_174_753)" fill-opacity="0.2"/>
<path d="M676.225 767.216C711.201 752.15 805.965 709.44 927.757 654.549C1265.38 502.384 1810.42 256.735 1863.57 247.728L1863.62 247.72C1878.83 245.239 1904.02 245.901 1934.34 248.529C1970.13 251.631 2013.42 257.473 2055.69 264.058C2060.52 264.781 2068.84 266.143 2079.94 267.959C2147.81 279.059 2320.2 307.255 2420.55 308.462C2462.76 308.97 2491.89 304.57 2493.82 291.754L2500.83 291.831C2498.68 306.099 2466.66 311.003 2420.27 310.445C2318.17 309.217 2144.71 280.846 2076.42 269.677C2065.35 267.867 2057.07 266.511 2052.36 265.808L2052.31 265.801C2010.38 259.269 1967.53 253.483 1932.27 250.426C1903.78 247.957 1880.49 247.267 1867.17 249.43C1815.47 258.192 1270.98 503.594 933.695 655.607C811.694 710.591 716.765 753.376 682.106 768.305L676.219 767.216H676.225Z" fill="url(#paint8_linear_174_753)" fill-opacity="0.2"/>
<path d="M699.798 767.746C735.053 752.633 831.799 709.099 955.29 653.53C1285.08 505.128 1805.62 270.895 1858.57 261.604L1858.61 261.596C1873.91 259.013 1898.85 259.604 1928.79 262.2C1963.95 265.25 2006.37 271.067 2048.08 277.709C2053.43 278.526 2063.8 280.303 2077.85 282.712C2152.31 295.474 2331.46 326.18 2430.54 327.662C2468.74 328.234 2494.64 324.323 2496.76 313.011L2503.73 313.111C2501.34 325.855 2472.58 330.267 2430.18 329.633C2329.38 328.125 2149.14 297.234 2074.24 284.396C2060.41 282.024 2050.21 280.276 2044.72 279.439L2044.66 279.432C2003.31 272.845 1961.35 267.086 1926.74 264.085C1898.63 261.647 1875.61 261.026 1862.21 263.284C1810.53 272.392 1290.62 506.346 961.196 654.579C837.794 710.108 741.115 753.611 705.623 768.826L699.8 767.744L699.798 767.746Z" fill="url(#paint9_linear_174_753)" fill-opacity="0.2"/>
<path d="M724.524 768.299C760.489 752.961 858.864 708.77 983.529 652.769C1304.82 508.446 1800.58 285.746 1853.31 276.166L1853.36 276.158C1868.75 273.47 1893.4 273.983 1922.94 276.546C1957.39 279.535 1998.88 285.326 2040.02 292.03C2046.13 292.978 2058.46 295.192 2075.36 298.23C2156.25 312.761 2342.6 346.238 2440.23 348.027C2474.6 348.658 2497.56 345.223 2499.83 335.323L2506.76 335.445C2504.16 346.759 2478.37 350.692 2439.8 349.985C2340.36 348.163 2152.98 314.5 2071.64 299.888C2054.79 296.86 2042.51 294.654 2036.68 293.747L2036.62 293.735C1995.89 287.096 1954.86 281.367 1920.9 278.419C1893.24 276.018 1870.54 275.469 1857.06 277.814C1805.61 287.162 1310.35 509.636 989.392 653.813C864.627 709.858 766.175 754.083 730.306 769.38L724.521 768.298L724.524 768.299Z" fill="url(#paint10_linear_174_753)" fill-opacity="0.2"/>
<path d="M750.553 768.88C786.93 753.452 886.851 708.654 1012.51 652.316C1324.55 512.411 1795.26 301.37 1847.79 291.488L1847.85 291.48C1863.32 288.681 1887.65 289.112 1916.75 291.639C1950.54 294.574 1991.08 300.338 2031.6 307.103C2038.14 308.142 2052.54 310.854 2072.47 314.607C2159.72 331.032 2353.58 367.53 2449.69 369.669C2480.41 370.352 2500.68 367.382 2503.07 358.797L2509.95 358.95C2507.17 368.928 2484.09 372.391 2449.15 371.614C2351.27 369.436 2156.38 332.744 2068.67 316.232C2048.89 312.508 2034.59 309.816 2028.23 308.804L2028.16 308.792C1988.02 302.09 1947.95 296.386 1914.73 293.501C1887.53 291.139 1865.16 290.667 1851.59 293.112C1800.29 302.765 1330.06 513.591 1018.33 653.355C892.679 709.689 792.766 754.485 756.268 769.964L750.551 768.881L750.553 768.88Z" fill="url(#paint11_linear_174_753)" fill-opacity="0.2"/>
<path d="M778.006 769.499C814.888 753.951 916.069 708.683 1042.28 652.216C1344.32 517.086 1789.64 317.851 1841.96 307.658L1842.02 307.646C1857.59 304.729 1881.57 305.073 1910.21 307.563C1943.25 310.434 1982.81 316.175 2022.72 323.011C2029.72 324.152 2046.23 327.407 2069.21 331.939C2162.83 350.403 2364.52 390.179 2458.9 392.715C2486.2 393.449 2504.04 390.926 2506.51 383.565L2513.31 383.747C2510.37 392.477 2489.76 395.484 2458.26 394.637C2362.09 392.054 2159.39 352.077 2065.3 333.521C2042.46 329.016 2026.05 325.779 2019.32 324.684L2019.25 324.672C1979.77 317.908 1940.7 312.234 1908.21 309.409C1881.49 307.087 1859.47 306.699 1845.81 309.255C1794.46 319.31 1349.72 518.282 1048.06 653.245C921.852 709.712 820.67 754.979 783.678 770.573L778.006 769.499Z" fill="url(#paint12_linear_174_753)" fill-opacity="0.2"/>
<path d="M807.057 770.149C844.429 754.5 946.599 708.898 1072.94 652.505C1364.14 522.538 1783.68 335.285 1835.81 324.765L1835.86 324.754C1851.52 321.713 1875.14 321.964 1903.26 324.411C1935.58 327.223 1974.14 332.942 2013.39 339.854C2020.72 341.083 2039.41 344.942 2065.53 350.334C2165.59 370.995 2375.37 414.311 2467.89 417.309C2491.98 418.09 2507.6 415.997 2510.12 409.774L2516.86 409.992C2513.79 417.566 2495.41 420.132 2467.12 419.215C2372.86 416.161 2162.08 372.64 2061.54 351.881C2035.59 346.522 2017.03 342.69 2009.87 341.494L2009.8 341.483C1970.98 334.646 1932.95 328.998 1901.27 326.242C1875.1 323.965 1853.47 323.666 1839.71 326.332C1788.59 336.678 1369.54 523.712 1078.67 653.533C952.317 709.93 850.136 755.537 812.678 771.221L807.052 770.148L807.057 770.149Z" fill="url(#paint13_linear_174_753)" fill-opacity="0.2"/>
<path d="M837.918 770.843C875.539 755.204 978.479 709.384 1104.6 653.246C1384.05 528.855 1777.35 353.787 1829.27 342.934L1829.32 342.923C1846.4 339.483 1872.26 339.951 1902.95 342.959C1932.93 345.896 1967.7 351.257 2003.41 357.73C2011.21 359.076 2032.12 363.595 2061.44 369.928C2168.05 392.962 2386.18 440.088 2476.68 443.634C2497.82 444.461 2511.44 442.781 2513.98 437.602L2520.64 437.863C2517.45 444.367 2501.07 446.507 2475.76 445.515C2383.51 441.901 2164.44 394.571 2057.36 371.437C2028.06 365.106 2007.17 360.594 1999.86 359.34L1999.78 359.329C1964.45 352.924 1930.15 347.63 1900.77 344.751C1872.11 341.944 1848.33 341.434 1833.24 344.464C1782.28 355.145 1389.43 530.011 1110.28 654.265C984.36 710.315 881.58 756.064 843.469 771.907L837.921 770.843H837.918Z" fill="url(#paint14_linear_174_753)" fill-opacity="0.2"/>
<path d="M870.803 771.58C909.182 755.755 1012.28 710.006 1137.34 654.513C1404.09 536.146 1770.65 373.493 1822.31 362.298L1822.35 362.292C1839.51 358.706 1864.75 359.05 1894.66 361.993C1923.81 364.862 1957.6 370.211 1992.69 376.772C2000.64 378.176 2024.02 383.459 2056.91 390.887C2170.21 416.485 2396.83 467.682 2485.25 471.897C2503.71 472.777 2515.57 471.489 2518.09 467.265L2524.65 467.574C2521.36 473.101 2506.74 474.829 2484.15 473.753C2394.02 469.456 2166.51 418.058 2052.76 392.361C2020.05 384.971 1996.79 379.715 1989.17 378.37L1989.09 378.355C1954.38 371.865 1921.05 366.581 1892.47 363.768C1864.64 361.029 1841.49 360.637 1826.35 363.794C1775.59 374.791 1409.42 537.277 1142.93 655.523C1017.73 711.083 914.499 756.888 876.295 772.642L870.803 771.583V771.58Z" fill="url(#paint15_linear_174_753)" fill-opacity="0.2"/>
<path d="M906.023 772.369C944.733 756.55 1047.69 711.033 1171.23 656.412C1424.2 544.567 1763.43 394.586 1814.86 383.032L1814.91 383.021C1832.13 379.284 1856.69 379.494 1885.76 382.37C1914.08 385.171 1946.86 390.514 1981.32 397.178C1989.53 398.677 2015.44 404.795 2051.91 413.405C2172.02 441.764 2407.18 497.285 2493.57 502.352H2493.59C2509.69 503.296 2520.03 502.383 2522.5 499.016L2528.94 499.387C2525.53 504.029 2512.43 505.356 2492.25 504.172C2404.19 499.002 2168.21 443.289 2047.68 414.832C2011.34 406.252 1985.54 400.16 1977.74 398.737L1977.66 398.722C1943.6 392.137 1911.32 386.866 1883.6 384.124C1856.64 381.458 1834.18 381.194 1818.95 384.489C1768.34 395.863 1429.47 545.683 1176.77 657.409C1053.13 712.072 950.094 757.625 911.429 773.425L906.023 772.369Z" fill="url(#paint16_linear_174_753)" fill-opacity="0.2"/>
<path d="M943.921 773.221C982.836 757.481 1085.13 712.448 1206.45 659.041C1444.45 554.274 1755.64 417.282 1806.85 405.343L1806.89 405.332C1824.19 401.431 1848.02 401.497 1876.19 404.298C1903.62 407.027 1935.31 412.367 1969.12 419.142C1977.52 420.74 2006.13 427.796 2046.4 437.727C2173.39 469.045 2416.8 529.075 2501.55 535.299C2515.74 536.342 2524.86 535.787 2527.27 533.173L2533.54 533.633C2530.01 537.483 2518.11 538.411 2499.92 537.075C2413.7 530.741 2169.52 470.524 2042.14 439.108C2001.94 429.195 1973.41 422.16 1965.43 420.652L1965.35 420.637C1932.01 413.953 1900.84 408.695 1874.06 406.03C1848.01 403.439 1826.25 403.316 1810.93 406.77C1760.42 418.577 1449.63 555.393 1211.92 660.033C1090.66 713.412 988.419 758.42 949.236 774.27L943.924 773.221H943.921Z" fill="url(#paint17_linear_174_753)" fill-opacity="0.2"/>
<path d="M984.925 774.142C1024.27 758.411 1125.08 714.264 1243.12 662.574C1464.82 565.494 1747.25 441.82 1798.18 429.487L1798.22 429.48C1815.61 425.399 1838.66 425.307 1865.85 428.029C1892.27 430.675 1922.74 436 1955.77 442.885C1964.19 444.537 1995.8 452.678 2040.36 464.15C2174.07 498.579 2424.72 563.12 2508.76 571.069C2521.74 572.296 2530.09 572.11 2532.44 570.127L2538.5 570.701C2534.75 573.871 2523.59 574.377 2506.73 572.783C2421.4 564.711 2170.1 500.006 2036.05 465.488C1991.69 454.068 1960.22 445.963 1952.11 444.371L1952.05 444.356C1919.46 437.561 1889.5 432.316 1863.72 429.735C1838.7 427.23 1817.73 427.253 1802.34 430.859C1752.12 443.018 1469.98 566.568 1248.51 663.55C1130.41 715.265 1029.55 759.432 990.159 775.182L984.925 774.14V774.142Z" fill="url(#paint18_linear_174_753)" fill-opacity="0.2"/>
<path d="M1029.62 775.143C1069.33 759.477 1167.79 716.644 1281.45 667.196C1485.35 578.498 1738.12 468.537 1788.74 455.795L1788.78 455.788C1806.25 451.515 1828.45 451.254 1854.57 453.89C1879.91 456.447 1909.07 461.763 1941.3 468.776C1949.77 470.513 1984.64 479.884 2033.74 493.08C2173.16 530.55 2427.68 598.954 2513.78 609.915C2527.12 611.614 2535.71 611.898 2538.12 610.382L2543.86 611.112C2539.66 613.752 2528.21 613.703 2511.19 611.536C2424.14 600.453 2169.11 531.912 2029.41 494.368C1980.52 481.227 1945.79 471.893 1937.61 470.216L1937.53 470.198C1905.79 463.289 1877.16 458.06 1852.45 455.568C1828.53 453.155 1808.43 453.34 1792.93 457.123C1742.9 469.717 1490.4 579.56 1286.72 668.164C1172.9 717.68 1074.3 760.571 1034.74 776.181L1029.62 775.143Z" fill="url(#paint19_linear_174_753)" fill-opacity="0.2"/>
<path d="M1078.73 776.247C1118.4 760.839 1213.52 719.812 1321.61 673.191C1505.95 593.678 1728.03 497.889 1778.4 484.696L1778.42 484.687C1795.97 480.206 1817.21 479.76 1842.17 482.301C1866.38 484.766 1894.12 490.073 1925.44 497.224C1934 499.074 1972.47 509.865 2026.54 525.03C2166.08 564.166 2409.72 632.5 2507.52 650.607C2527.98 654.393 2541.22 655.978 2544.47 654.572L2549.63 655.527C2544.01 657.953 2527.87 656.458 2504.15 652.067C2405.87 633.871 2161.92 565.451 2022.2 526.264C1968.25 511.131 1929.87 500.367 1921.67 498.601L1921.61 498.588C1890.75 491.541 1863.56 486.326 1840.1 483.938C1817.37 481.624 1798.18 481.993 1782.55 485.983C1732.75 499.039 1510.91 594.72 1326.77 674.146C1218.76 720.732 1123.72 761.728 1083.7 777.271L1078.73 776.248L1078.73 776.247Z" fill="url(#paint20_linear_174_753)" fill-opacity="0.2"/>
<path d="M1133.2 777.471C1173.1 762.258 1263.24 723.828 1363.86 680.929C1526.68 611.513 1716.94 530.399 1766.92 516.753L1766.94 516.746C1784.6 512.032 1804.78 511.38 1828.42 513.815C1851.3 516.17 1877.43 521.463 1907.77 528.769C1916.23 530.694 1958.94 543.197 2018.84 560.729C2196.92 612.853 2527.67 709.664 2551.79 703.561L2555.78 704.824C2527.37 712.017 2194 614.441 2014.52 561.906C1954.78 544.42 1912.18 531.951 1904.02 530.09L1903.96 530.073C1874.12 522.886 1848.53 517.691 1826.38 515.41C1804.99 513.208 1786.82 513.774 1771.06 517.982C1721.53 531.515 1531.5 612.531 1368.87 681.867C1268.22 724.775 1178.06 763.214 1138.02 778.481L1133.2 777.471Z" fill="url(#paint21_linear_174_753)" fill-opacity="0.2"/>
<path d="M1194.36 778.848C1234.21 763.998 1317.43 729.115 1408.45 690.964C1547.38 632.73 1704.47 566.883 1754.05 552.746L1754.06 552.743C1771.83 547.769 1790.81 546.885 1812.98 549.199C1834.4 551.436 1858.74 556.716 1887.97 564.196C1896.28 566.221 1944.13 580.842 2010.93 601.251C2197.84 658.36 2533.64 760.961 2560.47 758.583L2562.2 760.15C2531.89 762.836 2194.49 659.745 2006.69 602.363C1940.05 582.003 1892.31 567.416 1884.18 565.435L1884.13 565.422C1855.42 558.072 1831.62 552.897 1810.98 550.741C1791.09 548.663 1774.06 549.452 1758.16 553.904C1709 567.923 1552.06 633.706 1413.27 691.883C1322.31 730.009 1239.14 764.871 1198.98 779.838L1194.37 778.848H1194.36Z" fill="url(#paint22_linear_174_753)" fill-opacity="0.2"/>
<path d="M1264.11 780.421C1303.95 765.995 1377.34 736.066 1455.71 704.11C1567.93 658.343 1690.35 608.422 1739.41 593.778L1739.42 593.775C1757.29 588.512 1774.9 587.365 1795.38 589.545C1815.14 591.647 1837.43 596.908 1865.37 604.582C1873.55 606.741 1928.32 624.222 2004.15 648.42C2201.11 711.278 2540.39 819.557 2570.55 821.501L2569.34 823.022C2537.44 820.967 2197.41 712.45 2000.02 649.453C1924.34 625.299 1869.66 607.849 1861.61 605.725L1861.57 605.713C1834.12 598.175 1812.36 593.019 1793.44 591.006C1775.24 589.07 1759.5 590.115 1743.41 594.854C1694.63 609.415 1572.35 659.282 1460.24 704.997C1381.85 736.967 1308.42 766.911 1268.45 781.382L1264.11 780.423V780.421Z" fill="url(#paint23_linear_174_753)" fill-opacity="0.2"/>
<path fill-rule="evenodd" clip-rule="evenodd" d="M1073 -23.6348H994.389L951.866 19.0936H1030.46V232.723H746V309.654H788.536V275.464H1073V-23.6348ZM746 147.279V190.011H988.018V61.826H788.536V19.0936H916.272L958.796 -23.6348H746V104.55H945.482V147.279H746Z" fill="#C01818" fill-opacity="0.2"/>
</g>
<path d="M0 1H1920V-1H0V1Z" fill="#444444" mask="url(#path-1-inside-1_174_753)"/>
<defs>
<linearGradient id="paint0_linear_174_753" x1="879.378" y1="196.922" x2="1068.17" y2="1028.71" gradientUnits="userSpaceOnUse">
<stop stop-color="#EB1D23"/>
<stop offset="1" stop-color="#A30003"/>
</linearGradient>
<linearGradient id="paint1_linear_174_753" x1="893.156" y1="210.657" x2="1074.92" y2="1024.46" gradientUnits="userSpaceOnUse">
<stop stop-color="#EB1D23"/>
<stop offset="1" stop-color="#A30003"/>
</linearGradient>
<linearGradient id="paint2_linear_174_753" x1="907.396" y1="223.755" x2="1082.65" y2="1020.34" gradientUnits="userSpaceOnUse">
<stop stop-color="#EB1D23"/>
<stop offset="1" stop-color="#A30003"/>
</linearGradient>
<linearGradient id="paint3_linear_174_753" x1="937.427" y1="233.185" x2="1104.01" y2="1004.12" gradientUnits="userSpaceOnUse">
<stop stop-color="#EB1D23"/>
<stop offset="1" stop-color="#A30003"/>
</linearGradient>
<linearGradient id="paint4_linear_174_753" x1="953.301" y1="243.451" x2="1115.34" y2="1000.8" gradientUnits="userSpaceOnUse">
<stop stop-color="#EB1D23"/>
<stop offset="1" stop-color="#A30003"/>
</linearGradient>
<linearGradient id="paint5_linear_174_753" x1="969.813" y1="254.124" x2="1127.17" y2="997.348" gradientUnits="userSpaceOnUse">
<stop stop-color="#EB1D23"/>
<stop offset="1" stop-color="#A30003"/>
</linearGradient>
<linearGradient id="paint6_linear_174_753" x1="986.998" y1="265.233" x2="1139.49" y2="993.715" gradientUnits="userSpaceOnUse">
<stop stop-color="#EB1D23"/>
<stop offset="1" stop-color="#A30003"/>
</linearGradient>
<linearGradient id="paint7_linear_174_753" x1="1004.93" y1="276.821" x2="1152.39" y2="989.911" gradientUnits="userSpaceOnUse">
<stop stop-color="#EB1D23"/>
<stop offset="1" stop-color="#A30003"/>
</linearGradient>
<linearGradient id="paint8_linear_174_753" x1="1023.66" y1="288.928" x2="1165.9" y2="985.903" gradientUnits="userSpaceOnUse">
<stop stop-color="#EB1D23"/>
<stop offset="1" stop-color="#A30003"/>
</linearGradient>
<linearGradient id="paint9_linear_174_753" x1="1043.3" y1="301.604" x2="1180.13" y2="981.674" gradientUnits="userSpaceOnUse">
<stop stop-color="#EB1D23"/>
<stop offset="1" stop-color="#A30003"/>
</linearGradient>
<linearGradient id="paint10_linear_174_753" x1="1063.89" y1="314.905" x2="1195.09" y2="977.21" gradientUnits="userSpaceOnUse">
<stop stop-color="#EB1D23"/>
<stop offset="1" stop-color="#A30003"/>
</linearGradient>
<linearGradient id="paint11_linear_174_753" x1="1085.57" y1="328.897" x2="1210.9" y2="972.477" gradientUnits="userSpaceOnUse">
<stop stop-color="#EB1D23"/>
<stop offset="1" stop-color="#A30003"/>
</linearGradient>
<linearGradient id="paint12_linear_174_753" x1="1108.44" y1="343.655" x2="1227.65" y2="967.431" gradientUnits="userSpaceOnUse">
<stop stop-color="#EB1D23"/>
<stop offset="1" stop-color="#A30003"/>
</linearGradient>
<linearGradient id="paint13_linear_174_753" x1="1132.63" y1="359.269" x2="1245.45" y2="962.048" gradientUnits="userSpaceOnUse">
<stop stop-color="#EB1D23"/>
<stop offset="1" stop-color="#A30003"/>
</linearGradient>
<linearGradient id="paint14_linear_174_753" x1="1158.34" y1="375.846" x2="1264.46" y2="956.269" gradientUnits="userSpaceOnUse">
<stop stop-color="#EB1D23"/>
<stop offset="1" stop-color="#A30003"/>
</linearGradient>
<linearGradient id="paint15_linear_174_753" x1="1185.72" y1="393.511" x2="1284.83" y2="950.049" gradientUnits="userSpaceOnUse">
<stop stop-color="#EB1D23"/>
<stop offset="1" stop-color="#A30003"/>
</linearGradient>
<linearGradient id="paint16_linear_174_753" x1="1215.05" y1="412.414" x2="1306.79" y2="943.307" gradientUnits="userSpaceOnUse">
<stop stop-color="#EB1D23"/>
<stop offset="1" stop-color="#A30003"/>
</linearGradient>
<linearGradient id="paint17_linear_174_753" x1="1246.61" y1="432.751" x2="1330.59" y2="935.959" gradientUnits="userSpaceOnUse">
<stop stop-color="#EB1D23"/>
<stop offset="1" stop-color="#A30003"/>
</linearGradient>
<linearGradient id="paint18_linear_174_753" x1="1280.75" y1="454.751" x2="1356.56" y2="927.891" gradientUnits="userSpaceOnUse">
<stop stop-color="#EB1D23"/>
<stop offset="1" stop-color="#A30003"/>
</linearGradient>
<linearGradient id="paint19_linear_174_753" x1="1317.96" y1="478.717" x2="1385.14" y2="918.968" gradientUnits="userSpaceOnUse">
<stop stop-color="#EB1D23"/>
<stop offset="1" stop-color="#A30003"/>
</linearGradient>
<linearGradient id="paint20_linear_174_753" x1="1358.81" y1="505.035" x2="1416.89" y2="908.981" gradientUnits="userSpaceOnUse">
<stop stop-color="#EB1D23"/>
<stop offset="1" stop-color="#A30003"/>
</linearGradient>
<linearGradient id="paint21_linear_174_753" x1="1404.08" y1="534.217" x2="1452.56" y2="897.684" gradientUnits="userSpaceOnUse">
<stop stop-color="#EB1D23"/>
<stop offset="1" stop-color="#A30003"/>
</linearGradient>
<linearGradient id="paint22_linear_174_753" x1="1454.82" y1="566.969" x2="1493.23" y2="884.711" gradientUnits="userSpaceOnUse">
<stop stop-color="#EB1D23"/>
<stop offset="1" stop-color="#A30003"/>
</linearGradient>
<linearGradient id="paint23_linear_174_753" x1="1512.88" y1="607.705" x2="1553.95" y2="928.54" gradientUnits="userSpaceOnUse">
<stop stop-color="#EB1D23"/>
<stop offset="1" stop-color="#A30003"/>
</linearGradient>
<clipPath id="clip0_174_753">
<path d="M0 0H1920V609H0V0Z" fill="white"/>
</clipPath>
</defs>
</svg>
