<svg width="1920" height="609" fill="none" xmlns="http://www.w3.org/2000/svg"><g clip-path="url(#clip0_174_753)"><mask id="a" fill="#fff"><path d="M0 0h1920v609H0V0z"/></mask><path d="M0 0h1920v609H0V0z" fill="#000"/><path d="M503.003 773.331c29.094-12.936 101.952-46.106 200.08-90.78C1084.05 509.108 1845.43 162.479 1900.45 155.715l.03-.004c16.31-1.963 48.42-.22 87.01 3.431 37.93 3.588 82.43 9.024 124.21 14.558 26.13 3.409 120.1 12.5 205.87 12.182 30.44-.112 59.81-1.416 84.63-4.592 24.53-3.139 44.63-8.126 56.88-15.632 8.76-5.364 13.56-12.024 13.18-20.224l7.32-.025c.39 8.53-4.65 15.487-13.84 21.117-13.07 8.005-34.45 13.317-60.53 16.654-25.79 3.3-56.16 4.654-87.56 4.77-87.09.324-182.49-8.907-209.02-12.371l-.02-.004c-41.54-5.503-85.78-10.906-123.45-14.471-37-3.5-67.34-5.226-81.8-3.489-52.97 6.537-813.5 352.777-1194.054 526.03-98.289 44.748-171.268 77.973-200.11 90.797L503 773.331h.003z" fill="url(#paint0_linear_174_753)" fill-opacity=".2"/><path d="M519.546 773.703c29.266-12.977 105.122-47.48 206.876-93.765C1104.85 507.803 1842.13 172.44 1896.92 165.449l.03-.004c14.53-1.809 41.16-.694 73.62 2.109 40.14 3.466 89.57 9.503 135.8 15.722 27.35 3.617 132.35 14.652 223.6 14.421 28.82-.073 56.22-1.274 79.23-4.199 22.74-2.889 41.23-7.476 52.6-14.348 8.23-4.979 12.76-11.171 12.52-18.797l7.29-.016c.25 7.949-4.53 14.436-13.21 19.686-12.18 7.364-31.95 12.273-56.23 15.359-24 3.049-52.38 4.301-82.15 4.377-92.59.234-199.06-10.953-226.76-14.615h-.01c-46.02-6.191-95.13-12.193-134.8-15.618-30.86-2.664-55.78-3.777-68.53-2.192-52.82 6.757-789.28 341.748-1167.299 513.695-101.295 46.076-176.812 80.426-206.933 93.782l-6.145-1.108h.003z" fill="url(#paint1_linear_174_753)" fill-opacity=".2"/><path d="M536.64 774.087c30.001-13.263 108.539-48.955 213.435-96.625C1125.39 506.9 1838.69 182.745 1893.28 175.519l.03-.004c14.62-1.883 41.12-.814 73.37 1.971 39.65 3.425 88.36 9.436 134.13 15.693 28.47 3.812 145.16 17.08 241.42 16.958 27.12-.034 52.57-1.134 73.85-3.817 21-2.648 37.97-6.855 48.47-13.127 7.73-4.611 12.01-10.348 11.9-17.411l7.26-.007c.11 7.39-4.41 13.42-12.58 18.296-11.32 6.757-29.55 11.282-52.09 14.125-22.27 2.807-48.71 3.958-76.78 3.994-97.68.123-215.76-13.295-244.55-17.151l-.03-.005c-45.53-6.225-93.91-12.199-133.1-15.583-30.65-2.647-55.42-3.717-68.23-2.071-52.65 6.982-765.18 330.788-1140.097 501.169-104.474 47.479-182.698 83.027-213.494 96.641l-6.119-1.102v-.001z" fill="url(#paint2_linear_174_753)" fill-opacity=".2"/><path d="M572.694 764.894c31.681-13.918 115.262-51.824 225.836-101.974 367.44-166.648 1032.9-468.461 1087.06-476.164l.04-.008c14.77-2.036 40.99-1.067 72.8 1.683 38.61 3.338 85.87 9.3 130.72 15.641v-.003c21.95 3.023 101.65 13.529 183.73 19.234 44.54 3.095 89.74 4.776 126.63 3.069 36.12-1.671 64.26-6.626 75.72-16.773 3.63-3.212 5.62-6.95 5.71-11.271l7.19.008c-.09 4.535-2.2 8.475-6.04 11.878-12.44 11.014-42.67 16.377-81.42 18.17-37.97 1.756-84.15.05-129.51-3.102-82.82-5.755-163.07-16.334-185.17-19.377l-.03-.008c-44.54-6.299-91.44-12.218-129.62-15.518-30.14-2.606-54.58-3.581-67.54-1.796-52.57 7.556-717.16 308.971-1084.146 475.415-110.528 50.129-194.072 88.019-225.892 101.998l-6.068-1.102z" fill="url(#paint3_linear_174_753)" fill-opacity=".2"/><path d="M591.751 765.323c32.32-14.149 118.386-53.141 231.661-104.459C1186.07 496.562 1827.59 205.927 1881.53 197.977l.05-.004c14.86-2.118 40.9-1.205 72.46 1.524 38.14 3.299 84.65 9.236 128.99 15.618l.49.071c32.49 4.543 186.49 26.073 294.09 26.427 59.67.197 104.88-6.233 105.7-26.086l7.17.016c-.88 21.379-49.19 28.305-112.92 28.095-109.28-.36-264.47-22.056-297.21-26.634l-.58-.078c-44.08-6.346-90.22-12.24-127.81-15.491-29.84-2.581-54.07-3.506-67.11-1.657-52.21 7.697-693.05 298.028-1055.333 462.158-113.214 51.29-199.231 90.26-231.718 104.482l-6.037-1.096-.011.001z" fill="url(#paint4_linear_174_753)" fill-opacity=".2"/><path d="M611.577 765.765c32.831-14.32 121.307-54.356 237.118-106.763C1205.99 497.318 1823.57 217.854 1877.32 209.648l.04-.004c14.95-2.204 40.81-1.348 72.08 1.358 37.57 3.25 83.32 9.165 127.16 15.595l6.92.989c44.53 6.403 200.62 28.854 305.3 29.39 55.14.283 95.8-5.633 96.95-23.568l7.13.032c-1.25 19.442-44.95 25.857-104.2 25.553-106.38-.546-263.58-23.155-308.42-29.604l-6.95-.996c-43.55-6.388-88.9-12.254-125.96-15.461-29.54-2.557-53.57-3.428-66.67-1.505-52.07 7.951-669.01 287.126-1025.938 448.643-115.633 52.325-203.97 92.3-237.204 106.796l-5.981-1.099v-.002z" fill="url(#paint5_linear_174_753)" fill-opacity=".2"/><path d="M632.208 766.228c33.466-14.54 124.195-55.545 242.272-108.911 351.35-158.793 944.89-427.049 998.45-435.516l.04-.008c15.03-2.291 40.69-1.496 71.66 1.187 37 3.202 81.93 9.089 125.26 15.566 2.71.389 7.24 1.068 12.94 1.918 53.37 7.982 213.92 31.993 316.88 32.731 50.7.363 87.18-5.042 88.63-21.168l7.09.047c-1.58 17.613-41.05 23.519-95.89 23.125-104.65-.75-266.29-24.922-320.02-32.958-5.27-.788-9.46-1.415-12.85-1.904l-.05-.009c-43.03-6.433-87.57-12.273-124.04-15.43-29.24-2.531-53.06-3.344-66.23-1.337-52.11 8.296-644.91 276.213-995.835 434.818-117.924 53.297-208.535 94.248-242.355 108.942l-5.952-1.093z" fill="url(#paint6_linear_174_753)" fill-opacity=".2"/><path d="M653.73 766.709c34.632-14.984 127.273-56.798 247.105-110.883 344.805-155.628 914.185-412.618 967.505-421.347l.06-.008c15.11-2.384 40.55-1.653 71.2 1.002 36.42 3.155 80.56 9.021 123.37 15.551 4.09.601 10.41 1.588 18.64 2.874 60.94 9.521 227.07 35.475 328.68 36.435 46.38.439 79.03-4.46 80.73-18.881l7.05.063c-1.88 15.889-37.45 21.29-88.01 20.813-103.33-.977-270.52-27.097-331.85-36.678-8.29-1.294-14.64-2.287-18.53-2.858l-.05-.008c-42.49-6.482-86.2-12.295-122.07-15.402-28.86-2.5-52.42-3.253-65.67-1.175-51.84 8.487-620.63 265.21-965.076 420.675-120.306 54.299-213.315 96.278-247.162 110.923l-5.919-1.096h-.003z" fill="url(#paint7_linear_174_753)" fill-opacity=".2"/><path d="M676.225 767.216c34.976-15.066 129.74-57.776 251.532-112.667 337.623-152.165 882.663-397.814 935.813-406.821l.05-.008c15.21-2.481 40.4-1.819 70.72.809 35.79 3.102 79.08 8.944 121.35 15.529 4.83.723 13.15 2.085 24.25 3.901 67.87 11.1 240.26 39.296 340.61 40.503 42.21.508 71.34-3.892 73.27-16.708l7.01.077c-2.15 14.268-34.17 19.172-80.56 18.614-102.1-1.228-275.56-29.599-343.85-40.768-11.07-1.81-19.35-3.166-24.06-3.869l-.05-.007c-41.93-6.532-84.78-12.318-120.04-15.375-28.49-2.469-51.78-3.159-65.1-.996-51.7 8.762-596.19 254.164-933.475 406.177-122.001 54.984-216.93 97.769-251.589 112.698l-5.887-1.089h.006z" fill="url(#paint8_linear_174_753)" fill-opacity=".2"/><path d="M699.798 767.746c35.255-15.113 132.001-58.647 255.492-114.216 329.79-148.402 850.33-382.635 903.28-391.926l.04-.008c15.3-2.583 40.24-1.992 70.18.604 35.16 3.05 77.58 8.867 119.29 15.509 5.35.817 15.72 2.594 29.77 5.003 74.46 12.762 253.61 43.468 352.69 44.95 38.2.572 64.1-3.339 66.22-14.651l6.97.1c-2.39 12.744-31.15 17.156-73.55 16.522-100.8-1.508-281.04-32.399-355.94-45.237-13.83-2.372-24.03-4.12-29.52-4.957l-.06-.007c-41.35-6.587-83.31-12.346-117.92-15.347-28.11-2.438-51.13-3.059-64.53-.801-51.68 9.108-571.59 243.062-901.014 391.295-123.402 55.529-220.081 99.032-255.573 114.247l-5.823-1.082-.002.002z" fill="url(#paint9_linear_174_753)" fill-opacity=".2"/><path d="M724.524 768.299c35.965-15.338 134.34-59.529 259.005-115.53 321.291-144.323 817.051-367.023 869.781-376.603l.05-.008c15.39-2.688 40.04-2.175 69.58.388 34.45 2.989 75.94 8.78 117.08 15.484 6.11.948 18.44 3.162 35.34 6.2 80.89 14.531 267.24 48.008 364.87 49.797 34.37.631 57.33-2.804 59.6-12.704l6.93.122c-2.6 11.314-28.39 15.247-66.96 14.54-99.44-1.822-286.82-35.485-368.16-50.097-16.85-3.028-29.13-5.234-34.96-6.141l-.06-.012c-40.73-6.639-81.76-12.368-115.72-15.316-27.66-2.401-50.36-2.95-63.84-.605-51.45 9.348-546.71 231.822-867.668 375.999-124.765 56.045-223.217 100.27-259.086 115.567l-5.785-1.082.003.001z" fill="url(#paint10_linear_174_753)" fill-opacity=".2"/><path d="M750.553 768.88c36.377-15.428 136.298-60.226 261.957-116.564 312.04-139.905 782.75-350.946 835.28-360.828l.06-.008c15.47-2.799 39.8-2.368 68.9.159 33.79 2.935 74.33 8.699 114.85 15.464 6.54 1.039 20.94 3.751 40.87 7.504 87.25 16.425 281.11 52.923 377.22 55.062 30.72.683 50.99-2.287 53.38-10.872l6.88.153c-2.78 9.978-25.86 13.441-60.8 12.664-97.88-2.178-292.77-38.87-380.48-55.382-19.78-3.724-34.08-6.416-40.44-7.428l-.07-.012c-40.14-6.702-80.21-12.406-113.43-15.291-27.2-2.362-49.57-2.834-63.14-.389-51.3 9.653-521.53 220.479-833.26 360.243-125.651 56.334-225.564 101.13-262.062 116.609l-5.717-1.083.002-.001z" fill="url(#paint11_linear_174_753)" fill-opacity=".2"/><path d="M778.006 769.499c36.882-15.548 138.063-60.816 264.274-117.283 302.04-135.13 747.36-334.365 799.68-344.558l.06-.012c15.57-2.917 39.55-2.573 68.19-.083 33.04 2.871 72.6 8.612 112.51 15.448 7 1.141 23.51 4.396 46.49 8.928 93.62 18.464 295.31 58.24 389.69 60.776 27.3.734 45.14-1.789 47.61-9.15l6.8.182c-2.94 8.73-23.55 11.737-55.05 10.89-96.17-2.583-298.87-42.56-392.96-61.116-22.84-4.505-39.25-7.742-45.98-8.837l-.07-.012c-39.48-6.764-78.55-12.438-111.04-15.263-26.72-2.322-48.74-2.71-62.4-.154-51.35 10.055-496.09 209.027-797.75 343.99-126.208 56.467-227.39 101.734-264.382 117.328l-5.672-1.074z" fill="url(#paint12_linear_174_753)" fill-opacity=".2"/><path d="M807.057 770.149c37.372-15.649 139.542-61.251 265.883-117.644 291.2-129.967 710.74-317.22 762.87-327.74l.05-.011c15.66-3.041 39.28-2.79 67.4-.343 32.32 2.812 70.88 8.531 110.13 15.443 7.33 1.229 26.02 5.088 52.14 10.48 100.06 20.661 309.84 63.977 402.36 66.975 24.09.781 39.71-1.312 42.23-7.535l6.74.218c-3.07 7.574-21.45 10.14-49.74 9.223-94.26-3.054-305.04-46.575-405.58-67.334-25.95-5.359-44.51-9.191-51.67-10.387l-.07-.011c-38.82-6.837-76.85-12.485-108.53-15.241-26.17-2.277-47.8-2.576-61.56.09-51.12 10.346-470.17 197.38-761.04 327.201-126.353 56.397-228.534 102.004-265.992 117.688l-5.626-1.073.005.001z" fill="url(#paint13_linear_174_753)" fill-opacity=".2"/><path d="M837.918 770.843c37.621-15.639 140.561-61.459 266.682-117.597 279.45-124.391 672.75-299.459 724.67-310.312l.05-.011c17.08-3.44 42.94-2.972 73.63.036 29.98 2.937 64.75 8.298 100.46 14.771 7.8 1.346 28.71 5.865 58.03 12.198 106.61 23.034 324.74 70.16 415.24 73.706 21.14.827 34.76-.853 37.3-6.032l6.66.261c-3.19 6.504-19.57 8.644-44.88 7.652-92.25-3.614-311.32-50.944-418.4-74.078-29.3-6.331-50.19-10.843-57.5-12.097l-.08-.011c-35.33-6.405-69.63-11.699-99.01-14.578-28.66-2.807-52.44-3.317-67.53-.287-50.96 10.681-443.81 185.547-722.96 309.801-125.92 56.05-228.7 101.799-266.811 117.642l-5.548-1.064h-.003z" fill="url(#paint14_linear_174_753)" fill-opacity=".2"/><path d="M870.803 771.58c38.379-15.825 141.477-61.574 266.537-117.067 266.75-118.367 633.31-281.02 684.97-292.215l.04-.006c17.16-3.586 42.4-3.242 72.31-.299 29.15 2.869 62.94 8.218 98.03 14.779 7.95 1.404 31.33 6.687 64.22 14.115 113.3 25.598 339.92 76.795 428.34 81.01 18.46.88 30.32-.408 32.84-4.632l6.56.309c-3.29 5.527-17.91 7.255-40.5 6.179-90.13-4.297-317.64-55.695-431.39-81.392-32.71-7.39-55.97-12.646-63.59-13.991l-.08-.015c-34.71-6.49-68.04-11.774-96.62-14.587-27.83-2.739-50.98-3.131-66.12.026-50.76 10.997-416.93 173.483-683.42 291.729-125.2 55.56-228.431 101.365-266.635 117.119l-5.492-1.059v-.003z" fill="url(#paint15_linear_174_753)" fill-opacity=".2"/><path d="M906.023 772.369c38.71-15.819 141.667-61.336 265.207-115.957 252.97-111.845 592.2-261.826 643.63-273.38l.05-.011c17.22-3.737 41.78-3.527 70.85-.651 28.32 2.801 61.1 8.144 95.56 14.808 8.21 1.499 34.12 7.617 70.59 16.227 120.11 28.359 355.27 83.88 441.66 88.947h.02c16.1.944 26.44.031 28.91-3.336l6.44.371c-3.41 4.642-16.51 5.969-36.69 4.785-88.06-5.17-324.04-60.883-444.57-89.34-36.34-8.58-62.14-14.672-69.94-16.095l-.08-.015c-34.06-6.585-66.34-11.856-94.06-14.598-26.96-2.666-49.42-2.93-64.65.365-50.61 11.374-389.48 161.194-642.18 272.92-123.64 54.663-226.676 100.216-265.341 116.016l-5.406-1.056z" fill="url(#paint16_linear_174_753)" fill-opacity=".2"/><path d="M943.921 773.221c38.915-15.74 141.209-60.773 262.529-114.18 238-104.767 549.19-241.759 600.4-253.698l.04-.011c17.3-3.901 41.13-3.835 69.3-1.034 27.43 2.729 59.12 8.069 92.93 14.844 8.4 1.598 37.01 8.654 77.28 18.585 126.99 31.318 370.4 91.348 455.15 97.572 14.19 1.043 23.31.488 25.72-2.126l6.27.46c-3.53 3.85-15.43 4.778-33.62 3.442-86.22-6.334-330.4-66.551-457.78-97.967-40.2-9.913-68.73-16.948-76.71-18.456l-.08-.015c-33.34-6.684-64.51-11.942-91.29-14.607-26.05-2.591-47.81-2.714-63.13.74-50.51 11.807-361.3 148.623-599.01 253.263-121.26 53.379-223.501 98.387-262.684 114.237l-5.312-1.049h-.003z" fill="url(#paint17_linear_174_753)" fill-opacity=".2"/><path d="M984.925 774.142c39.345-15.731 140.155-59.878 258.195-111.568 221.7-97.08 504.13-220.754 555.06-233.087l.04-.007c17.39-4.081 40.44-4.173 67.63-1.451 26.42 2.646 56.89 7.971 89.92 14.856 8.42 1.652 40.03 9.793 84.59 21.265 133.71 34.429 384.36 98.97 468.4 106.919 12.98 1.227 21.33 1.041 23.68-.942l6.06.574c-3.75 3.17-14.91 3.676-31.77 2.082-85.33-8.072-336.63-72.777-470.68-107.295-44.36-11.42-75.83-19.525-83.94-21.117l-.06-.015c-32.59-6.795-62.55-12.04-88.33-14.621-25.02-2.505-45.99-2.482-61.38 1.124-50.22 12.159-332.36 135.709-553.83 232.691-118.1 51.715-218.96 95.882-258.351 111.632l-5.234-1.042v.002z" fill="url(#paint18_linear_174_753)" fill-opacity=".2"/><path d="M1029.62 775.143c39.71-15.666 138.17-58.499 251.83-107.947 203.9-88.698 456.67-198.659 507.29-211.401l.04-.007c17.47-4.273 39.67-4.534 65.79-1.898 25.34 2.557 54.5 7.873 86.73 14.886 8.47 1.737 43.34 11.108 92.44 24.304 139.42 37.47 393.94 105.874 480.04 116.835 13.34 1.699 21.93 1.983 24.34.467l5.74.73c-4.2 2.64-15.65 2.591-32.67.424-87.05-11.083-342.08-79.624-481.78-117.168-48.89-13.141-83.62-22.475-91.8-24.152l-.08-.018c-31.74-6.909-60.37-12.138-85.08-14.63-23.92-2.413-44.02-2.228-59.52 1.555-50.03 12.594-302.53 122.437-506.21 211.041-113.82 49.516-212.42 92.407-251.98 108.017l-5.12-1.038z" fill="url(#paint19_linear_174_753)" fill-opacity=".2"/><path d="M1078.73 776.247c39.67-15.408 134.79-56.435 242.88-103.056 184.34-79.513 406.42-175.302 456.79-188.495l.02-.009c17.55-4.481 38.79-4.927 63.75-2.386 24.21 2.465 51.95 7.772 83.27 14.923 8.56 1.85 47.03 12.641 101.1 27.806 139.54 39.136 383.18 107.47 480.98 125.577 20.46 3.786 33.7 5.371 36.95 3.965l5.16.955c-5.62 2.426-21.76.931-45.48-3.46-98.28-18.196-342.23-86.616-481.95-125.803-53.95-15.133-92.33-25.897-100.53-27.663l-.06-.013c-30.86-7.047-58.05-12.262-81.51-14.65-22.73-2.314-41.92-1.945-57.55 2.045-49.8 13.056-271.64 108.737-455.78 188.163-108.01 46.586-203.05 87.582-243.07 103.125l-4.97-1.023v-.001z" fill="url(#paint20_linear_174_753)" fill-opacity=".2"/><path d="M1133.2 777.471c39.9-15.213 130.04-53.643 230.66-96.542 162.82-69.416 353.08-150.53 403.06-164.176l.02-.007c17.66-4.714 37.84-5.366 61.48-2.931 22.88 2.355 49.01 7.648 79.35 14.954 8.46 1.925 51.17 14.428 111.07 31.96 178.08 52.124 508.83 148.935 532.95 142.832l3.99 1.263c-28.41 7.193-361.78-90.383-541.26-142.918-59.74-17.486-102.34-29.955-110.5-31.816l-.06-.017c-29.84-7.187-55.43-12.382-77.58-14.663-21.39-2.202-39.56-1.636-55.32 2.572-49.53 13.533-239.56 94.549-402.19 163.885-100.65 42.908-190.81 81.347-230.85 96.614l-4.82-1.01z" fill="url(#paint21_linear_174_753)" fill-opacity=".2"/><path d="M1194.36 778.848c39.85-14.85 123.07-49.733 214.09-87.884 138.93-58.234 296.02-124.081 345.6-138.218l.01-.003c17.77-4.974 36.75-5.858 58.92-3.544 21.42 2.237 45.76 7.517 74.99 14.997 8.31 2.025 56.16 16.646 122.96 37.055 186.91 57.109 522.71 159.71 549.54 157.332l1.73 1.567c-30.31 2.686-367.71-100.405-555.51-157.787-66.64-20.36-114.38-34.947-122.51-36.928l-.05-.013c-28.71-7.35-52.51-12.525-73.15-14.681-19.89-2.078-36.92-1.289-52.82 3.163-49.16 14.019-206.1 79.802-344.89 137.979-90.96 38.126-174.13 72.988-214.29 87.955l-4.61-.99h-.01z" fill="url(#paint22_linear_174_753)" fill-opacity=".2"/><path d="M1264.11 780.421c39.84-14.426 113.23-44.355 191.6-76.311 112.22-45.767 234.64-95.688 283.7-110.332l.01-.003c17.87-5.263 35.48-6.41 55.96-4.23 19.76 2.102 42.05 7.363 69.99 15.037 8.18 2.159 62.95 19.64 138.78 43.838 196.96 62.858 536.24 171.137 566.4 173.081l-1.21 1.521c-31.9-2.055-371.93-110.572-569.32-173.569-75.68-24.154-130.36-41.604-138.41-43.728l-.04-.012c-27.45-7.538-49.21-12.694-68.13-14.707-18.2-1.936-33.94-.891-50.03 3.848-48.78 14.561-171.06 64.428-283.17 110.143-78.39 31.97-151.82 61.914-191.79 76.385l-4.34-.959v-.002z" fill="url(#paint23_linear_174_753)" fill-opacity=".2"/><path fill-rule="evenodd" clip-rule="evenodd" d="M1073-23.635h-78.611l-42.523 42.729h78.594v213.629H746v76.931h42.536v-34.19H1073V-23.635zM746 147.28v42.732h242.018V61.826H788.536V19.094h127.736l42.524-42.729H746V104.55h199.482v42.729H746z" fill="#C01818" fill-opacity=".2"/></g><path d="M0 1h1920v-2H0v2z" fill="#444" mask="url(#a)"/><defs><linearGradient id="paint0_linear_174_753" x1="879.378" y1="196.922" x2="1068.17" y2="1028.71" gradientUnits="userSpaceOnUse"><stop stop-color="#EB1D23"/><stop offset="1" stop-color="#A30003"/></linearGradient><linearGradient id="paint1_linear_174_753" x1="893.156" y1="210.657" x2="1074.92" y2="1024.46" gradientUnits="userSpaceOnUse"><stop stop-color="#EB1D23"/><stop offset="1" stop-color="#A30003"/></linearGradient><linearGradient id="paint2_linear_174_753" x1="907.396" y1="223.755" x2="1082.65" y2="1020.34" gradientUnits="userSpaceOnUse"><stop stop-color="#EB1D23"/><stop offset="1" stop-color="#A30003"/></linearGradient><linearGradient id="paint3_linear_174_753" x1="937.427" y1="233.185" x2="1104.01" y2="1004.12" gradientUnits="userSpaceOnUse"><stop stop-color="#EB1D23"/><stop offset="1" stop-color="#A30003"/></linearGradient><linearGradient id="paint4_linear_174_753" x1="953.301" y1="243.451" x2="1115.34" y2="1000.8" gradientUnits="userSpaceOnUse"><stop stop-color="#EB1D23"/><stop offset="1" stop-color="#A30003"/></linearGradient><linearGradient id="paint5_linear_174_753" x1="969.813" y1="254.124" x2="1127.17" y2="997.348" gradientUnits="userSpaceOnUse"><stop stop-color="#EB1D23"/><stop offset="1" stop-color="#A30003"/></linearGradient><linearGradient id="paint6_linear_174_753" x1="986.998" y1="265.233" x2="1139.49" y2="993.715" gradientUnits="userSpaceOnUse"><stop stop-color="#EB1D23"/><stop offset="1" stop-color="#A30003"/></linearGradient><linearGradient id="paint7_linear_174_753" x1="1004.93" y1="276.821" x2="1152.39" y2="989.911" gradientUnits="userSpaceOnUse"><stop stop-color="#EB1D23"/><stop offset="1" stop-color="#A30003"/></linearGradient><linearGradient id="paint8_linear_174_753" x1="1023.66" y1="288.928" x2="1165.9" y2="985.903" gradientUnits="userSpaceOnUse"><stop stop-color="#EB1D23"/><stop offset="1" stop-color="#A30003"/></linearGradient><linearGradient id="paint9_linear_174_753" x1="1043.3" y1="301.604" x2="1180.13" y2="981.674" gradientUnits="userSpaceOnUse"><stop stop-color="#EB1D23"/><stop offset="1" stop-color="#A30003"/></linearGradient><linearGradient id="paint10_linear_174_753" x1="1063.89" y1="314.905" x2="1195.09" y2="977.21" gradientUnits="userSpaceOnUse"><stop stop-color="#EB1D23"/><stop offset="1" stop-color="#A30003"/></linearGradient><linearGradient id="paint11_linear_174_753" x1="1085.57" y1="328.897" x2="1210.9" y2="972.477" gradientUnits="userSpaceOnUse"><stop stop-color="#EB1D23"/><stop offset="1" stop-color="#A30003"/></linearGradient><linearGradient id="paint12_linear_174_753" x1="1108.44" y1="343.655" x2="1227.65" y2="967.431" gradientUnits="userSpaceOnUse"><stop stop-color="#EB1D23"/><stop offset="1" stop-color="#A30003"/></linearGradient><linearGradient id="paint13_linear_174_753" x1="1132.63" y1="359.269" x2="1245.45" y2="962.048" gradientUnits="userSpaceOnUse"><stop stop-color="#EB1D23"/><stop offset="1" stop-color="#A30003"/></linearGradient><linearGradient id="paint14_linear_174_753" x1="1158.34" y1="375.846" x2="1264.46" y2="956.269" gradientUnits="userSpaceOnUse"><stop stop-color="#EB1D23"/><stop offset="1" stop-color="#A30003"/></linearGradient><linearGradient id="paint15_linear_174_753" x1="1185.72" y1="393.511" x2="1284.83" y2="950.049" gradientUnits="userSpaceOnUse"><stop stop-color="#EB1D23"/><stop offset="1" stop-color="#A30003"/></linearGradient><linearGradient id="paint16_linear_174_753" x1="1215.05" y1="412.414" x2="1306.79" y2="943.307" gradientUnits="userSpaceOnUse"><stop stop-color="#EB1D23"/><stop offset="1" stop-color="#A30003"/></linearGradient><linearGradient id="paint17_linear_174_753" x1="1246.61" y1="432.751" x2="1330.59" y2="935.959" gradientUnits="userSpaceOnUse"><stop stop-color="#EB1D23"/><stop offset="1" stop-color="#A30003"/></linearGradient><linearGradient id="paint18_linear_174_753" x1="1280.75" y1="454.751" x2="1356.56" y2="927.891" gradientUnits="userSpaceOnUse"><stop stop-color="#EB1D23"/><stop offset="1" stop-color="#A30003"/></linearGradient><linearGradient id="paint19_linear_174_753" x1="1317.96" y1="478.717" x2="1385.14" y2="918.968" gradientUnits="userSpaceOnUse"><stop stop-color="#EB1D23"/><stop offset="1" stop-color="#A30003"/></linearGradient><linearGradient id="paint20_linear_174_753" x1="1358.81" y1="505.035" x2="1416.89" y2="908.981" gradientUnits="userSpaceOnUse"><stop stop-color="#EB1D23"/><stop offset="1" stop-color="#A30003"/></linearGradient><linearGradient id="paint21_linear_174_753" x1="1404.08" y1="534.217" x2="1452.56" y2="897.684" gradientUnits="userSpaceOnUse"><stop stop-color="#EB1D23"/><stop offset="1" stop-color="#A30003"/></linearGradient><linearGradient id="paint22_linear_174_753" x1="1454.82" y1="566.969" x2="1493.23" y2="884.711" gradientUnits="userSpaceOnUse"><stop stop-color="#EB1D23"/><stop offset="1" stop-color="#A30003"/></linearGradient><linearGradient id="paint23_linear_174_753" x1="1512.88" y1="607.705" x2="1553.95" y2="928.54" gradientUnits="userSpaceOnUse"><stop stop-color="#EB1D23"/><stop offset="1" stop-color="#A30003"/></linearGradient><clipPath id="clip0_174_753"><path d="M0 0h1920v609H0V0z" fill="#fff"/></clipPath></defs></svg>