<svg width="375" height="828" viewBox="0 0 375 828" fill="none" xmlns="http://www.w3.org/2000/svg">
<g clip-path="url(#clip0_159_890)">
<rect width="375" height="828" fill="black"/>
<path d="M-173.999 837.089C-158.613 830.248 -120.084 812.707 -68.1915 789.082C133.274 697.362 535.909 514.056 565.003 510.479L565.019 510.477C573.644 509.439 590.626 510.361 611.033 512.291C631.09 514.189 654.625 517.064 676.717 519.99C690.535 521.793 740.228 526.6 785.585 526.432C801.686 526.373 817.218 525.683 830.34 524.004C843.314 522.344 853.942 519.707 860.423 515.737C865.054 512.901 867.593 509.379 867.393 505.042L871.259 505.029C871.468 509.54 868.803 513.219 863.941 516.197C857.029 520.43 845.722 523.239 831.933 525.003C818.295 526.749 802.236 527.465 785.629 527.526C739.574 527.697 689.122 522.815 675.094 520.984L675.086 520.982C653.119 518.072 629.722 515.214 609.802 513.329C590.236 511.478 574.188 510.566 566.544 511.484C538.529 514.941 136.345 698.041 -64.9005 789.661C-116.878 813.325 -155.471 830.895 -170.723 837.676L-174 837.089H-173.999Z" fill="#CA1217" fill-opacity="0.2"/>
<path d="M-165.25 837.286C-149.773 830.423 -109.659 812.177 -55.8492 787.7C144.273 696.672 534.164 519.324 563.14 515.627L563.155 515.625C570.836 514.668 584.92 515.258 602.084 516.74C623.312 518.573 649.453 521.766 673.898 525.054C688.361 526.967 743.891 532.803 792.144 532.68C807.384 532.642 821.874 532.007 834.045 530.46C846.069 528.932 855.848 526.506 861.857 522.872C866.212 520.239 868.608 516.965 868.48 512.932L872.334 512.923C872.467 517.127 869.939 520.558 865.347 523.334C858.907 527.228 848.454 529.824 835.615 531.456C822.923 533.069 807.912 533.731 792.173 533.771C743.206 533.894 686.906 527.979 672.256 526.042H672.248C647.914 522.768 621.944 519.594 600.964 517.783C584.644 516.374 571.469 515.786 564.722 516.624C536.794 520.197 147.334 697.348 -52.571 788.278C-106.138 812.644 -146.073 830.808 -162.002 837.871L-165.251 837.286H-165.25Z" fill="#CA1217" fill-opacity="0.2"/>
<path d="M-156.21 837.489C-140.345 830.475 -98.8121 811.6 -43.3405 786.391C155.137 696.194 532.344 524.773 561.214 520.952L561.229 520.95C568.959 519.954 582.975 520.519 600.03 521.992C620.994 523.803 646.758 526.982 670.962 530.291C686.013 532.307 747.724 539.323 798.63 539.259C812.971 539.24 826.429 538.659 837.679 537.24C848.785 535.84 857.759 533.615 863.316 530.298C867.402 527.86 869.663 524.826 869.605 521.091L873.443 521.087C873.505 524.995 871.112 528.184 866.793 530.762C860.807 534.336 851.164 536.729 839.244 538.232C827.469 539.717 813.487 540.325 798.644 540.344C746.991 540.409 684.543 533.313 669.321 531.274L669.307 531.272C645.228 527.98 619.641 524.821 598.916 523.031C582.711 521.631 569.612 521.065 562.836 521.936C534.994 525.628 158.192 696.864 -40.0737 786.966C-95.3221 812.074 -136.689 830.872 -152.974 838.072L-156.21 837.489V837.489Z" fill="#CA1217" fill-opacity="0.2"/>
<path d="M-132.384 831.041C-115.631 823.681 -71.431 803.635 -12.957 777.115C181.354 688.987 533.265 529.382 561.905 525.308L561.927 525.304C569.737 524.227 583.604 524.74 600.424 526.194C620.841 527.959 645.835 531.112 669.551 534.465L669.554 534.464C681.158 536.062 723.305 541.618 766.715 544.635C790.266 546.272 814.169 547.16 833.68 546.258C852.782 545.374 867.662 542.754 873.72 537.388C875.638 535.689 876.692 533.713 876.738 531.428L880.544 531.432C880.494 533.83 879.378 535.914 877.347 537.713C870.772 543.537 854.782 546.374 834.293 547.322C814.211 548.251 789.793 547.349 765.805 545.682C722.006 542.638 679.566 537.044 667.884 535.434L667.868 535.43C644.311 532.099 619.51 528.969 599.319 527.224C583.379 525.846 570.455 525.33 563.602 526.274C535.803 530.27 184.353 689.665 -9.71863 777.685C-68.1685 804.194 -112.348 824.231 -129.176 831.623L-132.384 831.041Z" fill="#CA1217" fill-opacity="0.2"/>
<path d="M-122.308 831.268C-105.216 823.785 -59.7025 803.166 0.200249 776.027C191.985 689.14 531.233 535.446 559.76 531.242L559.783 531.24C567.641 530.119 581.415 530.603 598.1 532.046C618.269 533.79 642.869 536.93 666.313 540.305L666.574 540.342C683.755 542.745 765.195 554.131 822.098 554.318C853.65 554.422 877.561 551.021 877.994 540.523L881.783 540.531C881.317 551.837 855.774 555.5 822.068 555.389C764.278 555.198 682.209 543.725 664.896 541.304L664.593 541.263C641.281 537.907 616.881 534.79 597.004 533.07C581.222 531.706 568.407 531.216 561.516 532.194C533.906 536.264 195.011 689.798 3.42866 776.594C-56.4414 803.718 -101.929 824.326 -119.109 831.847L-122.302 831.267L-122.308 831.268Z" fill="#CA1217" fill-opacity="0.2"/>
<path d="M-111.823 831.502C-94.461 823.929 -47.6723 802.757 13.5709 775.042C202.518 689.54 529.108 541.753 557.531 537.414L557.554 537.412C565.46 536.246 579.135 536.699 595.671 538.13C615.538 539.849 639.73 542.976 662.918 546.377L666.574 546.9C690.121 550.286 772.668 562.158 828.023 562.442C857.184 562.592 878.687 559.463 879.296 549.979L883.066 549.996C882.406 560.277 859.297 563.669 827.964 563.509C771.707 563.22 688.573 551.264 664.86 547.853L661.189 547.326C638.155 543.949 614.174 540.846 594.578 539.151C578.952 537.799 566.246 537.338 559.318 538.354C531.784 542.559 205.53 690.194 16.7794 775.608C-44.37 803.278 -91.0847 824.418 -108.66 832.084L-111.823 831.502V831.502Z" fill="#CA1217" fill-opacity="0.2"/>
<path d="M-100.912 831.746C-83.2148 824.057 -35.2349 802.373 27.2067 774.152C213.008 690.178 526.889 548.318 555.211 543.841L555.233 543.837C563.178 542.625 576.747 543.045 593.129 544.464C612.693 546.158 636.455 549.27 659.367 552.696C660.799 552.901 663.198 553.26 666.209 553.71C694.436 557.931 779.337 570.628 833.784 571.019C860.596 571.211 879.888 568.353 880.653 559.825L884.403 559.85C883.569 569.164 862.697 572.287 833.695 572.079C778.35 571.682 692.876 558.899 664.459 554.65C661.671 554.233 659.459 553.902 657.662 553.643L657.639 553.638C634.883 550.236 611.33 547.148 592.042 545.478C576.579 544.14 563.985 543.71 557.018 544.771C529.462 549.159 215.977 690.839 30.3981 774.713C-31.9625 802.898 -79.8798 824.554 -97.7647 832.324L-100.912 831.746Z" fill="#CA1217" fill-opacity="0.2"/>
<path d="M-89.5308 832.001C-71.2165 824.077 -22.2258 801.965 41.1441 773.363C223.485 691.063 524.588 555.161 552.785 550.545L552.815 550.541C560.807 549.28 574.259 549.667 590.468 551.071C609.728 552.739 633.068 555.841 655.709 559.294C657.871 559.612 661.212 560.134 665.565 560.814C697.792 565.849 785.645 579.574 839.376 580.082C863.907 580.314 881.169 577.723 882.071 570.097L885.801 570.13C884.807 578.533 865.993 581.389 839.26 581.137C784.613 580.62 696.2 566.807 663.768 561.741C659.385 561.056 656.026 560.531 653.971 560.229L653.942 560.225C631.471 556.797 608.359 553.723 589.389 552.08C574.126 550.758 561.67 550.36 554.66 551.459C527.246 555.947 226.456 691.708 44.3057 773.921C-19.3145 802.636 -68.4998 824.836 -86.399 832.58L-89.5293 832.001H-89.5308Z" fill="#CA1217" fill-opacity="0.2"/>
<path d="M-77.6358 832.269C-59.1396 824.302 -9.02592 801.716 55.3804 772.688C233.923 692.219 522.155 562.315 550.258 557.551L550.286 557.547C558.328 556.235 571.653 556.585 587.683 557.975C606.611 559.615 629.503 562.705 651.86 566.187C654.41 566.569 658.813 567.289 664.683 568.25C700.572 574.12 791.735 589.031 844.803 589.669C867.126 589.937 882.53 587.611 883.55 580.833L887.259 580.874C886.123 588.42 869.19 591.013 844.657 590.718C790.661 590.068 698.933 575.065 662.82 569.159C656.968 568.202 652.585 567.484 650.099 567.113L650.07 567.109C627.898 563.654 605.239 560.595 586.591 558.978C571.525 557.673 559.21 557.308 552.161 558.452C524.826 563.085 236.885 692.859 58.5206 773.247C-5.99655 802.324 -56.1969 824.95 -74.5254 832.844L-77.6387 832.269H-77.6358Z" fill="#CA1217" fill-opacity="0.2"/>
<path d="M-65.1699 832.549C-46.5259 824.557 4.63552 801.535 69.9402 772.149C244.343 693.67 519.614 569.803 547.617 564.889L547.638 564.885C555.728 563.519 568.915 563.831 584.748 565.205C603.344 566.817 625.774 569.894 647.833 573.406C650.66 573.838 656.145 574.778 663.577 576.052C702.95 582.801 797.693 599.039 850.086 599.823C870.286 600.125 883.985 598.057 885.105 592.075L888.791 592.128C887.53 598.867 872.319 601.2 849.898 600.864C796.589 600.067 701.279 583.731 661.669 576.942C654.352 575.688 648.958 574.764 646.056 574.321L646.027 574.317C624.156 570.834 601.967 567.789 583.665 566.201C568.8 564.912 556.627 564.584 549.542 565.778C522.213 570.594 247.269 694.314 73.0635 772.704C7.80569 802.069 -43.3202 825.074 -62.0894 833.12L-65.1685 832.548L-65.1699 832.549Z" fill="#CA1217" fill-opacity="0.2"/>
<path d="M-52.0933 832.841C-33.0739 824.73 18.9489 801.361 84.8749 771.747C254.778 695.425 516.95 577.656 544.836 572.59L544.864 572.586C553.001 571.164 566.034 571.435 581.655 572.791C599.874 574.372 621.814 577.434 643.57 580.979C646.804 581.481 653.321 582.652 662.263 584.258C705.037 591.942 803.581 609.646 855.214 610.592C873.389 610.925 885.531 609.109 886.731 603.873L890.393 603.938C889.021 609.921 875.384 612.001 854.984 611.627C802.398 610.664 703.305 592.862 660.294 585.135C651.382 583.534 644.887 582.367 641.805 581.887L641.776 581.881C620.233 578.37 598.536 575.34 580.577 573.781C565.952 572.512 553.948 572.222 546.816 573.462C519.612 578.405 257.707 696.054 87.9754 772.298C21.9968 801.936 -30.0673 825.324 -49.0355 833.413L-52.0947 832.841L-52.0933 832.841Z" fill="#CA1217" fill-opacity="0.2"/>
<path d="M-38.3286 833.149C-19.0917 824.99 33.7485 801.3 100.198 771.507C265.215 697.522 514.136 585.919 541.918 580.693L541.946 580.689C550.129 579.208 562.996 579.436 578.386 580.773C596.252 582.325 617.693 585.373 639.119 588.95C642.575 589.5 650.193 590.934 660.732 592.918C706.871 601.605 809.39 620.906 860.212 622.036C876.461 622.398 887.179 620.827 888.443 616.287L892.08 616.368C890.611 621.645 878.405 623.476 859.926 623.065C808.168 621.913 705.104 602.51 658.721 593.778C648.261 591.809 640.701 590.385 637.335 589.85L637.299 589.844C616.075 586.299 594.882 583.283 577.314 581.757C562.933 580.508 551.103 580.259 543.925 581.551C516.796 586.656 268.128 698.146 103.277 772.056C36.8305 801.847 -16.0055 825.536 -35.3064 833.722L-38.3301 833.149L-38.3286 833.149Z" fill="#CA1217" fill-opacity="0.2"/>
<path d="M-23.811 833.476C-4.3069 825.254 49.2001 801.315 115.943 771.454C275.667 699.994 511.164 594.634 538.835 589.244L538.863 589.238C547.096 587.695 559.782 587.877 574.926 589.193C592.396 590.712 613.319 593.748 634.422 597.363C638.125 597.966 646.855 599.688 659.007 602.084C708.516 611.848 815.174 632.883 865.084 634.224C879.523 634.612 888.954 633.278 890.262 629.385L893.856 629.481C892.305 634.098 881.405 635.688 864.744 635.241C813.891 633.874 706.698 612.734 656.94 602.921C644.859 600.538 636.182 598.827 632.622 598.247L632.587 598.241C611.711 594.664 591.05 591.663 573.865 590.17C559.739 588.942 548.091 588.737 540.866 590.089C513.713 595.406 278.527 700.627 119.001 771.998C52.2579 801.859 -1.24913 825.798 -20.8115 834.044L-23.811 833.476Z" fill="#CA1217" fill-opacity="0.2"/>
<path d="M-8.44735 833.82C11.3155 825.544 65.3456 801.429 132.16 771.607C286.149 702.877 508.011 603.853 535.581 598.29L535.61 598.284C543.891 596.676 556.378 596.809 571.252 598.103C588.344 599.59 608.732 602.614 629.487 606.27C633.365 606.92 643.251 608.96 657.06 611.812C709.976 622.738 820.913 645.644 869.839 647.23C882.58 647.643 890.839 646.536 892.173 643.245L895.737 643.36C894.113 647.366 884.393 648.723 869.43 648.238C819.584 646.622 708.121 623.608 654.953 612.63C641.228 609.796 631.413 607.769 627.626 607.137L627.591 607.131C607.06 603.516 586.95 600.529 570.198 599.071C556.361 597.868 544.92 597.709 537.643 599.119C510.609 604.59 289.005 703.498 135.189 772.15C68.3693 801.974 14.3336 826.092 -5.4748 834.387L-8.4502 833.819L-8.44735 833.82Z" fill="#CA1217" fill-opacity="0.2"/>
<path d="M7.87158 834.187C27.7666 825.917 82.2034 801.686 148.897 771.999C296.681 706.218 504.667 613.638 532.122 607.899L532.149 607.893C541.183 606.074 554.854 606.321 571.085 607.912C586.938 609.465 605.329 612.3 624.209 615.723C628.335 616.435 639.396 618.825 654.897 622.174C711.278 634.355 826.63 659.276 874.486 661.151C885.664 661.589 892.872 660.7 894.214 657.961L897.732 658.099C896.047 661.539 887.383 662.67 874 662.146C825.217 660.235 709.368 635.205 652.742 622.972C637.245 619.624 626.198 617.237 622.333 616.574L622.292 616.568C603.608 613.181 585.467 610.382 569.93 608.859C554.778 607.375 542.199 607.105 534.223 608.708C507.27 614.356 299.522 706.829 151.902 772.537C85.3138 802.178 30.9609 826.371 10.8071 834.749L7.87304 834.187H7.87158Z" fill="#CA1217" fill-opacity="0.2"/>
<path d="M25.2622 834.577C45.5582 826.208 100.08 802.014 166.214 772.669C307.279 710.073 501.122 624.059 528.443 618.139L528.464 618.135C537.54 616.239 550.883 616.421 566.699 617.977C582.116 619.495 599.986 622.323 618.542 625.793C622.745 626.535 635.112 629.329 652.502 633.257C712.419 646.794 832.263 673.868 879.02 676.097C888.779 676.562 895.055 675.881 896.387 673.648L899.856 673.811C898.113 676.734 890.384 677.648 878.44 677.078C830.776 674.807 710.464 647.626 650.311 634.036C633.012 630.128 620.711 627.349 616.682 626.638L616.641 626.63C598.286 623.198 580.659 620.404 565.542 618.916C550.826 617.468 538.586 617.26 530.575 618.929C503.737 624.745 310.094 710.671 169.172 773.203C102.959 802.584 48.3701 826.807 28.1665 835.138L25.2622 834.578V834.577Z" fill="#CA1217" fill-opacity="0.2"/>
<path d="M43.8877 834.994C64.3585 826.629 118.804 802.558 184.135 773.673C317.914 714.527 497.306 635.214 524.5 629.104L524.527 629.098C533.635 627.121 546.622 627.232 561.995 628.753C576.973 630.234 594.305 633.06 612.53 636.584C616.871 637.377 630.573 640.612 649.858 645.165C713.377 660.162 837.733 689.523 883.421 692.202H883.428C891.942 692.702 897.414 692.219 898.719 690.439L902.122 690.635C900.322 693.089 893.392 693.791 882.72 693.165C836.151 690.431 711.364 660.969 647.624 645.92C628.407 641.383 614.762 638.161 610.636 637.408L610.595 637.401C592.585 633.918 575.51 631.131 560.852 629.681C546.598 628.271 534.718 628.132 526.663 629.874C499.901 635.888 320.7 715.117 187.063 774.201C121.68 803.108 67.1931 827.197 46.7465 835.552L43.8877 834.994Z" fill="#CA1217" fill-opacity="0.2"/>
<path d="M63.9292 835.444C84.508 827.121 138.605 803.306 202.762 775.063C328.618 719.66 493.186 647.216 520.268 640.902L520.288 640.896C529.437 638.833 542.039 638.868 556.936 640.349C571.442 641.792 588.201 644.616 606.076 648.199C610.523 649.044 625.652 652.776 646.948 658.027C714.103 674.589 842.824 706.334 887.64 709.626C895.142 710.177 899.968 709.884 901.239 708.501L904.559 708.745C902.689 710.78 896.396 711.271 886.779 710.565C841.18 707.215 712.056 675.371 644.69 658.757C623.433 653.515 608.349 649.795 604.127 648.998L604.087 648.99C586.454 645.455 569.972 642.674 555.807 641.265C542.032 639.895 530.526 639.83 522.426 641.656C495.714 647.9 331.358 720.252 205.654 775.588C141.531 803.816 87.4607 827.617 66.7397 835.999L63.9307 835.444H63.9292Z" fill="#CA1217" fill-opacity="0.2"/>
<path d="M85.6128 835.931C106.418 827.612 159.731 804.267 222.154 776.932C339.392 725.593 488.745 660.192 515.683 653.67L515.703 653.666C524.899 651.508 537.088 651.459 551.464 652.899C565.44 654.298 581.551 657.114 599.016 660.755C603.469 661.629 620.189 665.934 643.749 672C714.459 690.207 847.01 724.338 891.452 728.541C898.315 729.191 902.734 729.092 903.975 728.043L907.18 728.347C905.197 730.023 899.293 730.291 890.378 729.448C845.253 725.179 712.362 690.962 641.472 672.708C618.016 666.669 601.371 662.383 597.083 661.541L597.05 661.533C579.816 657.94 563.974 655.166 550.339 653.801C537.106 652.476 526.021 652.488 517.879 654.395C491.326 660.825 342.122 726.161 225.002 777.448C162.549 804.796 109.211 828.152 88.3806 836.481L85.6128 835.93V835.931Z" fill="#CA1217" fill-opacity="0.2"/>
<path d="M109.248 836.461C130.246 828.176 182.315 805.525 242.425 779.376C350.249 732.47 483.921 674.32 510.691 667.582L510.71 667.579C519.951 665.319 531.687 665.181 545.501 666.575C558.902 667.927 574.323 670.738 591.365 674.447C595.846 675.365 614.287 680.321 640.252 687.299C713.98 707.114 848.577 743.288 894.106 749.084C901.164 749.983 905.703 750.133 906.98 749.331L910.013 749.717C907.791 751.113 901.74 751.088 892.74 749.942C846.702 744.08 711.836 707.835 637.962 687.98C612.105 681.031 593.741 676.095 589.415 675.208L589.375 675.199C572.588 671.545 557.445 668.78 544.382 667.462C531.733 666.186 521.099 666.284 512.904 668.284C486.447 674.944 352.92 733.032 245.211 779.888C185.018 806.073 132.879 828.755 111.958 837.009L109.248 836.461Z" fill="#CA1217" fill-opacity="0.2"/>
<path d="M135.218 837.045C156.197 828.896 206.498 807.2 263.657 782.546C361.144 740.498 478.585 689.842 505.218 682.866L505.231 682.861C514.514 680.491 525.744 680.255 538.942 681.599C551.747 682.902 566.415 685.709 582.98 689.491C587.504 690.469 607.849 696.176 636.443 704.195C710.236 724.891 839.079 761.028 890.799 770.603C901.614 772.606 908.615 773.444 910.337 772.7L913.066 773.205C910.095 774.488 901.557 773.697 889.015 771.375C837.04 761.753 708.034 725.571 634.149 704.848C605.616 696.845 585.322 691.153 580.987 690.219L580.956 690.212C564.635 686.486 550.254 683.728 537.848 682.465C525.83 681.241 515.68 681.436 507.415 683.546C481.078 690.451 363.768 741.049 266.388 783.051C209.27 807.687 159.009 829.366 137.847 837.586L135.22 837.045L135.218 837.045Z" fill="#CA1217" fill-opacity="0.2"/>
<path d="M164.021 837.692C185.123 829.647 232.792 809.324 286.003 786.638C372.107 749.929 472.72 707.034 499.15 699.818L499.163 699.814C508.498 697.322 519.17 696.977 531.674 698.264C543.772 699.51 557.591 702.309 573.635 706.172C578.106 707.19 600.697 713.802 632.371 723.073C726.542 750.638 901.454 801.834 914.206 798.607L916.319 799.274C901.293 803.078 725.001 751.478 630.085 723.696C598.494 714.449 575.965 707.855 571.649 706.871L571.618 706.862C555.839 703.061 542.306 700.314 530.594 699.108C519.283 697.943 509.674 698.243 501.338 700.468C475.147 707.624 374.653 750.468 288.65 787.134C235.428 809.825 187.748 830.152 166.57 838.226L164.021 837.692Z" fill="#CA1217" fill-opacity="0.2"/>
<path d="M196.367 838.42C217.441 830.567 261.45 812.12 309.582 791.945C383.05 761.15 466.124 726.328 492.342 718.852L492.348 718.85C501.743 716.22 511.781 715.752 523.506 716.976C534.834 718.159 547.706 720.951 563.161 724.907C567.557 725.978 592.863 733.71 628.188 744.503C727.03 774.703 904.606 828.961 918.796 827.703L919.71 828.532C903.683 829.952 725.258 775.435 625.943 745.09C590.705 734.324 565.46 726.61 561.158 725.562L561.134 725.555C545.95 721.669 533.366 718.932 522.452 717.792C511.929 716.693 502.926 717.11 494.516 719.464C468.52 726.878 385.526 761.665 312.13 792.431C264.029 812.593 220.047 831.029 198.808 838.943L196.369 838.42H196.367Z" fill="#CA1217" fill-opacity="0.2"/>
<path d="M233.25 839.252C254.32 831.623 293.132 815.796 334.572 798.897C393.921 774.694 458.658 748.295 484.602 740.551L484.608 740.549C494.056 737.766 503.367 737.16 514.201 738.312C524.651 739.423 536.436 742.206 551.21 746.264C555.538 747.406 584.504 756.65 624.6 769.446C728.758 802.687 908.176 859.948 924.127 860.976L923.488 861.78C906.619 860.693 726.804 803.307 622.418 769.993C582.394 757.22 553.479 747.992 549.223 746.868L549.2 746.862C534.687 742.876 523.18 740.149 513.173 739.085C503.548 738.061 495.227 738.613 486.716 741.12C460.92 748.82 396.254 775.191 336.972 799.366C295.513 816.272 256.684 832.107 235.548 839.76L233.25 839.253V839.252Z" fill="#CA1217" fill-opacity="0.2"/>
<path d="M276.168 840.226C297.088 832.933 328.534 820.777 361.148 808.17C404.549 791.393 450.02 773.816 475.631 765.788L475.637 765.786C485.138 762.829 493.581 762.063 503.362 763.129C512.778 764.156 523.294 766.928 537.282 771.107C541.631 772.373 577.158 784.228 625.27 800.283C735.674 837.125 912.394 896.098 929.889 899.746L928.313 900.354C910.557 896.652 733.714 837.639 623.232 800.771C575.145 784.724 539.635 772.874 535.371 771.632L535.362 771.627C521.629 767.525 511.365 764.81 502.399 763.832C493.797 762.894 486.251 763.604 477.613 766.292C452.074 774.297 406.651 791.856 363.296 808.615C330.671 821.227 299.214 833.387 278.234 840.701L276.167 840.225L276.168 840.226Z" fill="#CA1217" fill-opacity="0.2"/>
<path d="M327.772 841.472L465.267 796.014C474.687 792.899 481.945 791.952 490.248 792.892C498.348 793.81 507.302 796.557 520.299 800.863C527.926 803.39 666.724 851.95 782.199 892.349C858.575 919.07 924.752 942.222 936 946.117L934.854 946.38C923.501 942.449 857.369 919.313 781.047 892.611C665.586 852.216 526.803 803.663 519.176 801.135C506.323 796.877 497.498 794.164 489.699 793.28C482.102 792.42 475.327 793.331 466.39 796.286L328.895 841.744L327.772 841.472Z" fill="#CA1217" fill-opacity="0.2"/>
<path fill-rule="evenodd" clip-rule="evenodd" d="M445 112H387.304L356.094 142.769H413.781V296.603H205V352H236.219V327.38H445V112ZM205 235.074V265.846H382.628V173.54H236.219V142.769H329.971L361.181 112H205V204.306H351.409V235.074H205Z" fill="#CA1217" fill-opacity="0.2"/>
</g>
<defs>
<clipPath id="clip0_159_890">
<rect width="375" height="828" fill="white"/>
</clipPath>
</defs>
</svg>
