<svg width="375" height="828" fill="none" xmlns="http://www.w3.org/2000/svg"><g clip-path="url(#clip0_159_890)"><path fill="#000" d="M0 0h375v828H0z"/><path d="M-173.999 837.089c15.386-6.841 53.915-24.382 105.807-48.007 201.466-91.72 604.101-275.026 633.195-278.603l.016-.002c8.625-1.038 25.607-.116 46.014 1.814 20.057 1.898 43.592 4.773 65.684 7.699 13.818 1.803 63.511 6.61 108.868 6.442 16.101-.059 31.633-.749 44.755-2.428 12.974-1.66 23.602-4.297 30.083-8.267 4.631-2.836 7.17-6.358 6.97-10.695l3.866-.013c.209 4.511-2.456 8.19-7.318 11.168-6.912 4.233-18.219 7.042-32.008 8.806-13.638 1.746-29.697 2.462-46.304 2.523-46.055.171-96.507-4.711-110.535-6.542l-.008-.002c-21.967-2.91-45.364-5.768-65.284-7.653-19.566-1.851-35.614-2.763-43.258-1.845-28.015 3.457-430.199 186.557-631.444 278.177-51.978 23.664-90.571 41.234-105.823 48.015l-3.277-.587h.001z" fill="#CA1217" fill-opacity=".2"/><path d="M-165.25 837.286c15.477-6.863 55.591-25.109 109.4-49.586 200.123-91.028 590.014-268.376 618.99-272.073l.015-.002c7.681-.957 21.765-.367 38.929 1.115 21.228 1.833 47.369 5.026 71.814 8.314 14.463 1.913 69.993 7.749 118.246 7.626 15.24-.038 29.73-.673 41.901-2.22 12.024-1.528 21.803-3.954 27.812-7.588 4.355-2.633 6.751-5.907 6.623-9.94l3.854-.009c.133 4.204-2.395 7.635-6.987 10.411-6.44 3.894-16.893 6.49-29.732 8.122-12.692 1.613-27.703 2.275-43.442 2.315-48.967.123-105.267-5.792-119.917-7.729h-.008c-24.334-3.274-50.304-6.448-71.284-8.259-16.32-1.409-29.495-1.997-36.242-1.159-27.928 3.573-417.388 180.724-617.293 271.654-53.567 24.366-93.502 42.53-109.431 49.593l-3.249-.585h.001z" fill="#CA1217" fill-opacity=".2"/><path d="M-156.21 837.489c15.865-7.014 57.398-25.889 112.87-51.098 198.477-90.197 575.684-261.618 604.554-265.439l.015-.002c7.73-.996 21.746-.431 38.801 1.042 20.964 1.811 46.728 4.99 70.932 8.299 15.051 2.016 76.762 9.032 127.668 8.968 14.341-.019 27.799-.6 39.049-2.019 11.106-1.4 20.08-3.625 25.637-6.942 4.086-2.438 6.347-5.472 6.289-9.207l3.838-.004c.062 3.908-2.331 7.097-6.65 9.675-5.986 3.574-15.629 5.967-27.549 7.47-11.775 1.485-25.757 2.093-40.6 2.112-51.653.065-114.101-7.031-129.323-9.07l-.014-.002c-24.079-3.292-49.666-6.451-70.391-8.241-16.205-1.4-29.304-1.966-36.08-1.095-27.842 3.692-404.644 174.928-602.91 265.03-55.248 25.108-96.615 43.906-112.9 51.106l-3.236-.583z" fill="#CA1217" fill-opacity=".2"/><path d="M-132.384 831.041c16.753-7.36 60.953-27.406 119.427-53.926 194.311-88.128 546.222-247.733 574.862-251.807l.022-.004c7.81-1.077 21.677-.564 38.497.89 20.417 1.765 45.411 4.918 69.127 8.271l.003-.001c11.604 1.598 53.751 7.154 97.161 10.171 23.551 1.637 47.454 2.525 66.965 1.623 19.102-.884 33.982-3.504 40.04-8.87 1.918-1.699 2.972-3.675 3.018-5.96l3.806.004c-.05 2.398-1.166 4.482-3.197 6.281-6.575 5.824-22.565 8.661-43.054 9.609-20.082.929-44.5.027-68.488-1.64-43.799-3.044-86.239-8.638-97.921-10.248l-.016-.004c-23.557-3.331-48.358-6.461-68.549-8.206-15.94-1.378-28.864-1.894-35.717-.95-27.799 3.996-379.249 163.391-573.32 251.411-58.45 26.509-102.63 46.546-119.458 53.938l-3.208-.582z" fill="#CA1217" fill-opacity=".2"/><path d="M-122.308 831.268c17.092-7.483 62.606-28.102 122.508-55.241 191.785-86.887 531.033-240.581 559.56-244.785l.023-.002c7.858-1.121 21.632-.637 38.317.806 20.169 1.744 44.769 4.884 68.213 8.259l.261.037c17.181 2.403 98.621 13.789 155.524 13.976 31.552.104 55.463-3.297 55.896-13.795l3.789.008c-.466 11.306-26.009 14.969-59.715 14.858-57.79-.191-139.859-11.664-157.172-14.085l-.303-.041c-23.312-3.356-47.712-6.473-67.589-8.193-15.782-1.364-28.597-1.854-35.488-.876-27.61 4.07-366.505 157.604-558.087 244.4-59.87 27.124-105.358 47.732-122.538 55.253l-3.193-.58-.006.001z" fill="#CA1217" fill-opacity=".2"/><path d="M-111.823 831.502c17.362-7.573 64.15-28.745 125.394-56.46 188.947-85.502 515.537-233.289 543.96-237.628l.023-.002c7.906-1.166 21.581-.713 38.117.718 19.867 1.719 44.059 4.846 67.247 8.247l3.656.523c23.547 3.386 106.094 15.258 161.449 15.542 29.161.15 50.664-2.979 51.273-12.463l3.77.017c-.66 10.281-23.769 13.673-55.102 13.513-56.257-.289-139.391-12.245-163.104-15.656l-3.671-.527c-23.034-3.377-47.015-6.48-66.611-8.175-15.626-1.352-28.332-1.813-35.26-.797-27.534 4.205-353.788 151.84-542.539 237.254-61.149 27.67-107.864 48.81-125.439 56.476l-3.163-.582z" fill="#CA1217" fill-opacity=".2"/><path d="M-100.912 831.746c17.697-7.689 65.677-29.373 128.119-57.594 185.801-83.974 499.682-225.834 528.004-230.311l.022-.004c7.945-1.212 21.514-.792 37.896.627 19.564 1.694 43.326 4.806 66.238 8.232 1.432.205 3.831.564 6.842 1.014 28.227 4.221 113.128 16.918 167.575 17.309 26.812.192 46.104-2.666 46.869-11.194l3.75.025c-.834 9.314-21.706 12.437-50.708 12.229-55.345-.397-140.819-13.18-169.236-17.429-2.788-.417-5-.748-6.797-1.007l-.023-.005c-22.756-3.402-46.309-6.49-65.597-8.16-15.463-1.338-28.057-1.768-35.024-.707-27.556 4.388-341.041 146.068-526.62 229.942-62.36 28.185-110.278 49.841-128.163 57.611l-3.147-.578z" fill="#CA1217" fill-opacity=".2"/><path d="M-89.53 832.001c18.314-7.924 67.304-30.036 130.674-58.638 182.341-82.3 483.444-218.202 511.641-222.818l.03-.004c7.992-1.261 21.444-.874 37.653.53 19.26 1.668 42.6 4.77 65.241 8.223 2.162.318 5.503.84 9.856 1.52 32.227 5.035 120.08 18.76 173.811 19.268 24.531.232 41.793-2.359 42.695-9.985l3.73.033c-.994 8.403-19.808 11.259-46.541 11.007-54.647-.517-143.06-14.33-175.492-19.396-4.383-.685-7.742-1.21-9.797-1.512l-.029-.004c-22.471-3.428-45.583-6.502-64.553-8.145-15.263-1.322-27.719-1.72-34.729-.621-27.414 4.488-328.204 140.249-510.354 222.462C-19.314 802.636-68.5 824.836-86.4 832.58l-3.13-.579h-.002z" fill="#CA1217" fill-opacity=".2"/><path d="M-77.636 832.269c18.496-7.967 68.61-30.553 133.016-59.581 178.543-80.469 466.775-210.373 494.878-215.137l.028-.004c8.042-1.312 21.367-.962 37.397.428 18.928 1.64 41.82 4.73 64.177 8.212 2.55.382 6.953 1.102 12.823 2.063 35.889 5.87 127.052 20.781 180.12 21.419 22.323.268 37.727-2.058 38.747-8.836l3.709.041c-1.136 7.546-18.069 10.139-42.602 9.844-53.996-.65-145.724-15.653-181.837-21.559-5.852-.957-10.235-1.675-12.721-2.046l-.029-.004c-22.172-3.455-44.831-6.514-63.479-8.131-15.066-1.305-27.381-1.67-34.43-.526-27.335 4.633-315.276 134.407-493.64 214.795-64.518 29.077-114.718 51.703-133.046 59.597l-3.114-.575h.003z" fill="#CA1217" fill-opacity=".2"/><path d="M-65.17 832.549c18.644-7.992 69.806-31.014 135.11-60.4 174.403-78.479 449.674-202.346 477.677-207.26l.021-.004c8.09-1.366 21.277-1.054 37.11.32 18.596 1.612 41.026 4.689 63.085 8.201 2.827.432 8.312 1.372 15.744 2.646 39.373 6.749 134.116 22.987 186.509 23.771 20.2.302 33.899-1.766 35.019-7.748l3.686.053c-1.261 6.739-16.472 9.072-38.893 8.736-53.309-.797-148.619-17.133-188.229-23.922-7.317-1.254-12.711-2.178-15.613-2.621l-.029-.004c-21.871-3.483-44.06-6.528-62.362-8.116-14.865-1.289-27.038-1.617-34.123-.423-27.329 4.816-302.273 128.536-476.479 206.926C7.806 802.069-43.32 825.074-62.089 833.12l-3.08-.572v.001z" fill="#CA1217" fill-opacity=".2"/><path d="M-52.093 832.841c19.02-8.111 71.042-31.48 136.968-61.094C254.778 695.425 516.95 577.656 544.836 572.59l.028-.004c8.137-1.422 21.17-1.151 36.791.205 18.219 1.581 40.159 4.643 61.915 8.188 3.234.502 9.751 1.673 18.693 3.279 42.774 7.684 141.318 25.388 192.951 26.334 18.175.333 30.317-1.483 31.517-6.719l3.662.065c-1.372 5.983-15.009 8.063-35.409 7.689-52.586-.963-151.679-18.765-194.69-26.492-8.912-1.601-15.407-2.768-18.489-3.248l-.029-.006c-21.543-3.511-43.24-6.541-61.199-8.1-14.625-1.269-26.629-1.559-33.761-.319-27.204 4.943-289.109 122.592-458.84 198.836-65.98 29.638-118.043 53.026-137.012 61.115l-3.059-.572h.002z" fill="#CA1217" fill-opacity=".2"/><path d="M-38.329 833.149c19.237-8.159 72.078-31.849 138.527-61.642 165.017-73.985 413.938-185.588 441.72-190.814l.028-.004c8.183-1.481 21.05-1.253 36.44.084 17.866 1.552 39.307 4.6 60.733 8.177 3.456.55 11.074 1.984 21.613 3.968 46.139 8.687 148.658 27.988 199.48 29.118 16.249.362 26.967-1.209 28.231-5.749l3.637.081c-1.469 5.277-13.675 7.108-32.154 6.697-51.758-1.152-154.822-20.555-201.205-29.287-10.46-1.969-18.02-3.393-21.386-3.928l-.036-.006c-21.224-3.545-42.417-6.561-59.985-8.087-14.381-1.249-26.211-1.498-33.389-.206-27.129 5.105-275.797 116.595-440.648 190.505-66.447 29.791-119.282 53.48-138.583 61.666l-3.024-.573h.001zm14.518.327c19.504-8.222 73.011-32.161 139.754-62.022 159.724-71.46 395.221-176.82 422.892-182.21l.028-.006c8.233-1.543 20.919-1.361 36.063-.045 17.47 1.519 38.393 4.555 59.496 8.17 3.703.603 12.433 2.325 24.585 4.721 49.509 9.764 156.167 30.799 206.077 32.14 14.439.388 23.87-.946 25.178-4.839l3.594.096c-1.551 4.617-12.451 6.207-29.112 5.76-50.853-1.367-158.046-22.507-207.804-32.32-12.081-2.383-20.758-4.094-24.318-4.674l-.035-.006c-20.876-3.577-41.537-6.578-58.722-8.071-14.126-1.228-25.774-1.433-32.999-.081-27.153 5.317-262.339 110.538-421.865 181.909-66.743 29.861-120.25 53.8-139.813 62.046l-2.999-.568z" fill="#CA1217" fill-opacity=".2"/><path d="M-8.447 833.82c19.762-8.276 73.793-32.391 140.607-62.213 153.989-68.73 375.851-167.754 403.421-173.317l.029-.006c8.281-1.608 20.768-1.475 35.642-.181 17.092 1.487 37.48 4.511 58.235 8.167 3.878.65 13.764 2.69 27.573 5.542 52.916 10.926 163.853 33.832 212.779 35.418 12.741.413 21-.694 22.334-3.985l3.564.115c-1.624 4.006-11.344 5.363-26.307 4.878-49.846-1.616-161.309-24.63-214.477-35.608-13.725-2.834-23.54-4.861-27.327-5.493l-.035-.006c-20.531-3.615-40.641-6.602-57.393-8.06-13.837-1.203-25.278-1.362-32.555.048-27.034 5.471-248.638 104.379-402.454 173.031-66.82 29.824-120.855 53.942-140.664 62.237l-2.975-.568.003.001z" fill="#CA1217" fill-opacity=".2"/><path d="M7.872 834.187c19.895-8.27 74.331-32.501 141.025-62.188 147.784-65.781 355.77-158.361 383.225-164.1l.027-.006c9.034-1.819 22.705-1.572 38.936.019 15.853 1.553 34.244 4.388 53.124 7.811 4.126.712 15.187 3.102 30.688 6.451 56.381 12.181 171.733 37.102 219.589 38.977 11.178.438 18.386-.451 19.728-3.19l3.518.138c-1.685 3.44-10.349 4.571-23.732 4.047-48.783-1.911-164.632-26.941-221.258-39.174-15.497-3.348-26.544-5.735-30.409-6.398l-.041-.006c-18.684-3.387-36.825-6.186-52.362-7.709-15.152-1.484-27.731-1.754-35.707-.151-26.953 5.648-234.701 98.121-382.321 163.829-66.588 29.641-120.941 53.834-141.095 62.212l-2.934-.562h-.001z" fill="#CA1217" fill-opacity=".2"/><path d="M25.262 834.577c20.296-8.369 74.818-32.563 140.952-61.908 141.065-62.596 334.908-148.61 362.229-154.53l.021-.004c9.076-1.896 22.419-1.714 38.235-.158 15.417 1.518 33.287 4.346 51.843 7.816 4.203.742 16.57 3.536 33.96 7.464 59.917 13.537 179.761 40.611 226.518 42.84 9.759.465 16.035-.216 17.367-2.449l3.469.163c-1.743 2.923-9.472 3.837-21.416 3.267-47.664-2.271-167.976-29.452-228.129-43.042-17.299-3.908-29.6-6.687-33.629-7.398l-.041-.008c-18.355-3.432-35.982-6.226-51.099-7.714-14.716-1.448-26.956-1.656-34.967.013-26.838 5.816-220.481 91.742-361.403 154.274-66.213 29.381-120.802 53.604-141.006 61.935l-2.904-.56v-.001z" fill="#CA1217" fill-opacity=".2"/><path d="M43.888 834.994c20.47-8.365 74.916-32.436 140.247-61.321C317.914 714.527 497.306 635.214 524.5 629.104l.027-.006c9.108-1.977 22.095-1.866 37.468-.345 14.978 1.481 32.31 4.307 50.535 7.831 4.341.793 18.043 4.028 37.328 8.581 63.519 14.997 187.875 44.358 233.563 47.037h.007c8.514.5 13.986.017 15.291-1.763l3.403.196c-1.8 2.454-8.73 3.156-19.402 2.53-46.569-2.734-171.356-32.196-235.096-47.245-19.217-4.537-32.862-7.759-36.988-8.512l-.041-.007c-18.01-3.483-35.085-6.27-49.743-7.72-14.254-1.41-26.134-1.549-34.189.193-26.762 6.014-205.963 85.243-339.6 144.327-65.383 28.907-119.87 52.996-140.316 61.351l-2.86-.558z" fill="#CA1217" fill-opacity=".2"/><path d="M63.93 835.444c20.578-8.323 74.675-32.138 138.832-60.381 125.856-55.403 290.424-127.847 317.506-134.161l.02-.006c9.149-2.063 21.751-2.028 36.648-.547 14.506 1.443 31.265 4.267 49.14 7.85 4.447.845 19.576 4.577 40.872 9.828 67.155 16.562 195.876 48.307 240.692 51.599 7.502.551 12.328.258 13.599-1.125l3.32.244c-1.87 2.035-8.163 2.526-17.78 1.82-45.599-3.35-174.723-35.194-242.089-51.808-21.257-5.242-36.341-8.962-40.563-9.759l-.04-.008c-17.633-3.535-34.115-6.316-48.28-7.725-13.775-1.37-25.281-1.435-33.381.391-26.712 6.244-191.068 78.596-316.772 133.932-64.123 28.228-118.193 52.029-138.914 60.411l-2.81-.555z" fill="#CA1217" fill-opacity=".2"/><path d="M85.613 835.931c20.805-8.319 74.118-31.664 136.541-58.999 117.238-51.339 266.591-116.74 293.529-123.262l.02-.004c9.196-2.158 21.385-2.207 35.761-.767 13.976 1.399 30.087 4.215 47.552 7.856 4.453.874 21.173 5.179 44.733 11.245 70.71 18.207 203.261 52.338 247.703 56.541 6.863.65 11.282.551 12.523-.498l3.205.304c-1.983 1.676-7.887 1.944-16.802 1.101-45.125-4.269-178.016-38.486-248.906-56.74-23.456-6.039-40.101-10.325-44.389-11.167l-.033-.008c-17.234-3.593-33.076-6.367-46.711-7.732-13.233-1.325-24.318-1.313-32.46.594-26.553 6.43-175.757 71.766-292.877 123.053-62.453 27.348-115.791 50.704-136.621 59.033l-2.768-.551v.001z" fill="#CA1217" fill-opacity=".2"/><path d="M109.248 836.461c20.998-8.285 73.067-30.936 133.177-57.085C350.249 732.47 483.921 674.32 510.691 667.582l.019-.003c9.241-2.26 20.977-2.398 34.791-1.004 13.401 1.352 28.822 4.163 45.864 7.872 4.481.918 22.922 5.874 48.887 12.852 73.728 19.815 208.325 55.989 253.854 61.785 7.058.899 11.597 1.049 12.874.247l3.033.386c-2.222 1.396-8.273 1.371-17.273.225-46.038-5.862-180.904-42.107-254.778-61.962-25.857-6.949-44.221-11.885-48.547-12.772l-.04-.009c-16.787-3.654-31.93-6.419-44.993-7.737-12.649-1.276-23.283-1.178-31.478.822-26.457 6.66-159.984 64.748-267.693 111.604-60.193 26.185-112.332 48.867-133.253 57.121l-2.71-.548z" fill="#CA1217" fill-opacity=".2"/><path d="M135.218 837.045c20.979-8.149 71.28-29.845 128.439-54.499 97.487-42.048 214.928-92.704 241.561-99.68l.013-.005c9.283-2.37 20.513-2.606 33.711-1.262 12.805 1.303 27.473 4.11 44.038 7.892 4.524.978 24.869 6.685 53.463 14.704 73.793 20.696 202.636 56.833 254.356 66.408 10.815 2.003 17.816 2.841 19.538 2.097l2.729.505c-2.971 1.283-11.509.492-24.051-1.83-51.975-9.622-180.981-45.804-254.866-66.527-28.533-8.003-48.827-13.695-53.162-14.629l-.031-.007c-16.321-3.726-30.702-6.484-43.108-7.747-12.018-1.224-22.168-1.029-30.433 1.081-26.337 6.905-143.647 57.503-241.027 99.505-57.118 24.636-107.379 46.315-128.541 54.535l-2.627-.541h-.002z" fill="#CA1217" fill-opacity=".2"/><path d="M164.021 837.692c21.102-8.045 68.771-28.368 121.982-51.054 86.104-36.709 186.717-79.604 213.147-86.82l.013-.004c9.335-2.492 20.007-2.837 32.511-1.55 12.098 1.246 25.917 4.045 41.961 7.908 4.471 1.018 27.062 7.63 58.736 16.901 94.171 27.565 269.083 78.761 281.835 75.534l2.113.667c-15.026 3.804-191.318-47.796-286.234-75.578-31.591-9.247-54.12-15.841-58.436-16.825l-.031-.009c-15.779-3.801-29.312-6.548-41.024-7.754-11.311-1.165-20.92-.865-29.256 1.36-26.191 7.156-126.685 50-212.688 86.666-53.222 22.691-100.902 43.018-122.08 51.092l-2.549-.534z" fill="#CA1217" fill-opacity=".2"/><path d="M196.367 838.42c21.074-7.853 65.083-26.3 113.215-46.475 73.468-30.795 156.542-65.617 182.76-73.093l.006-.002c9.395-2.63 19.433-3.098 31.158-1.874 11.328 1.183 24.2 3.975 39.655 7.931 4.396 1.071 29.702 8.803 65.027 19.596 98.842 30.2 276.418 84.458 290.608 83.2l.914.829c-16.027 1.42-194.452-53.097-293.767-83.442-35.238-10.766-60.483-18.48-64.785-19.528l-.024-.007c-15.184-3.886-27.768-6.623-38.682-7.763-10.523-1.099-19.526-.682-27.936 1.672-25.996 7.414-108.99 42.201-182.386 72.967-48.101 20.162-92.083 38.598-113.322 46.512l-2.439-.523h-.002z" fill="#CA1217" fill-opacity=".2"/><path d="M233.25 839.252c21.07-7.629 59.882-23.456 101.322-40.355 59.349-24.203 124.086-50.602 150.03-58.346l.006-.002c9.448-2.783 18.759-3.389 29.593-2.237 10.45 1.111 22.235 3.894 37.009 7.952 4.328 1.142 33.294 10.386 73.39 23.182 104.158 33.241 283.576 90.502 299.527 91.53l-.639.804c-16.869-1.087-196.684-58.473-301.07-91.787-40.024-12.773-68.939-22.001-73.195-23.125l-.023-.006c-14.513-3.986-26.02-6.713-36.027-7.777-9.625-1.024-17.946-.472-26.457 2.035-25.796 7.7-90.462 34.071-149.744 58.246-41.459 16.906-80.288 32.741-101.424 40.394l-2.298-.507v-.001z" fill="#CA1217" fill-opacity=".2"/><path d="M276.168 840.226c20.92-7.293 52.366-19.449 84.98-32.056 43.401-16.777 88.872-34.354 114.483-42.382l.006-.002c9.501-2.957 17.944-3.723 27.725-2.657 9.416 1.027 19.932 3.799 33.92 7.978 4.349 1.266 39.876 13.121 87.988 29.176 110.404 36.842 287.124 95.815 304.619 99.463l-1.576.608c-17.756-3.702-194.599-62.715-305.081-99.583-48.087-16.047-83.597-27.897-87.861-29.139l-.009-.005c-13.733-4.102-23.997-6.817-32.963-7.795-8.602-.938-16.148-.228-24.786 2.46-25.539 8.005-70.962 25.564-114.317 42.323-32.625 12.612-64.082 24.772-85.062 32.086l-2.067-.476.001.001z" fill="#CA1217" fill-opacity=".2"/><path d="M327.772 841.472l137.495-45.458c9.42-3.115 16.678-4.062 24.981-3.122 8.1.918 17.054 3.665 30.051 7.971 7.627 2.527 146.425 51.087 261.9 91.486C858.575 919.07 924.752 942.222 936 946.117l-1.146.263c-11.353-3.931-77.485-27.067-153.807-53.769-115.461-40.395-254.244-88.948-261.871-91.476-12.853-4.258-21.678-6.971-29.477-7.855-7.597-.86-14.372.051-23.309 3.006l-137.495 45.458-1.123-.272z" fill="#CA1217" fill-opacity=".2"/><path fill-rule="evenodd" clip-rule="evenodd" d="M445 112h-57.696l-31.21 30.769h57.687v153.834H205V352h31.219v-24.62H445V112zM205 235.074v30.772h177.628V173.54H236.219v-30.771h93.752L361.181 112H205v92.306h146.409v30.768H205z" fill="#CA1217" fill-opacity=".2"/></g><defs><clipPath id="clip0_159_890"><path fill="#fff" d="M0 0h375v828H0z"/></clipPath></defs></svg>