<svg width="1920" height="800" viewBox="0 0 1920 800" fill="none" xmlns="http://www.w3.org/2000/svg">
<g clip-path="url(#clip0_159_1348)">
<rect width="1920" height="800" fill="#13191D"/>
<path d="M94.0027 826.331C123.097 813.395 195.955 780.225 294.083 735.551C675.052 562.108 1436.43 215.479 1491.45 208.715L1491.48 208.711C1507.79 206.748 1539.9 208.491 1578.49 212.142C1616.42 215.73 1660.92 221.166 1702.7 226.7C1728.83 230.109 1822.8 239.2 1908.57 238.882C1939.01 238.77 1968.38 237.466 1993.2 234.29C2017.73 231.151 2037.83 226.164 2050.08 218.658C2058.84 213.294 2063.64 206.634 2063.26 198.434L2070.58 198.409C2070.97 206.939 2065.93 213.896 2056.74 219.526C2043.67 227.531 2022.29 232.843 1996.21 236.18C1970.42 239.48 1940.05 240.834 1908.65 240.95C1821.56 241.274 1726.16 232.043 1699.63 228.579L1699.61 228.575C1658.07 223.072 1613.83 217.669 1576.16 214.104C1539.16 210.604 1508.82 208.878 1494.36 210.615C1441.39 217.152 680.859 563.392 300.306 736.645C202.017 781.393 129.038 814.618 100.196 827.442L94 826.331H94.0027Z" fill="#CA1217" fill-opacity="0.2"/>
<path d="M110.546 826.703C139.812 813.726 215.668 779.223 317.422 732.938C695.851 560.803 1433.13 225.44 1487.92 218.449L1487.95 218.445C1502.48 216.636 1529.11 217.751 1561.57 220.554C1601.71 224.02 1651.14 230.057 1697.37 236.276C1724.72 239.893 1829.72 250.928 1920.97 250.697C1949.79 250.624 1977.19 249.423 2000.2 246.498C2022.94 243.609 2041.43 239.022 2052.8 232.15C2061.03 227.171 2065.56 220.979 2065.32 213.353L2072.61 213.337C2072.86 221.286 2068.08 227.773 2059.4 233.023C2047.22 240.387 2027.45 245.296 2003.17 248.382C1979.17 251.431 1950.79 252.683 1921.02 252.759C1828.43 252.993 1721.96 241.806 1694.26 238.144H1694.25C1648.23 231.953 1599.12 225.951 1559.45 222.526C1528.59 219.862 1503.67 218.749 1490.92 220.334C1438.1 227.091 701.638 562.082 323.621 734.029C222.327 780.105 146.809 814.455 116.688 827.811L110.543 826.703H110.546Z" fill="#CA1217" fill-opacity="0.2"/>
<path d="M127.641 827.087C157.641 813.823 236.179 778.132 341.076 730.462C716.395 559.899 1429.69 235.744 1484.28 228.519L1484.31 228.515C1498.93 226.631 1525.43 227.7 1557.68 230.486C1597.33 233.91 1646.05 239.921 1691.81 246.179C1720.28 249.991 1836.97 263.258 1933.23 263.136C1960.35 263.102 1985.8 262.002 2007.08 259.319C2028.08 256.672 2045.05 252.464 2055.56 246.192C2063.28 241.581 2067.56 235.845 2067.45 228.782L2074.71 228.774C2074.82 236.164 2070.3 242.195 2062.13 247.07C2050.81 253.827 2032.58 258.353 2010.04 261.195C1987.77 264.003 1961.33 265.154 1933.26 265.19C1835.58 265.313 1717.5 251.894 1688.71 248.038L1688.69 248.033C1643.15 241.809 1594.77 235.835 1555.58 232.45C1524.93 229.803 1500.16 228.733 1487.35 230.379C1434.7 237.361 722.172 561.167 347.253 731.549C242.779 779.027 164.555 814.575 133.759 828.19L127.641 827.088V827.087Z" fill="#CA1217" fill-opacity="0.2"/>
<path d="M172.694 814.894C204.375 800.976 287.956 763.07 398.53 712.92C765.97 546.272 1431.43 244.459 1485.59 236.756L1485.63 236.748C1500.4 234.712 1526.62 235.681 1558.43 238.431C1597.04 241.769 1644.3 247.731 1689.15 254.072L1689.15 254.069C1711.1 257.092 1790.8 267.598 1872.88 273.303C1917.42 276.398 1962.62 278.079 1999.51 276.372C2035.63 274.701 2063.77 269.746 2075.23 259.599C2078.86 256.387 2080.85 252.649 2080.94 248.328L2088.13 248.336C2088.04 252.871 2085.93 256.811 2082.09 260.214C2069.65 271.228 2039.42 276.591 2000.67 278.384C1962.7 280.14 1916.52 278.434 1871.16 275.282C1788.34 269.527 1708.09 258.948 1685.99 255.905L1685.96 255.897C1641.42 249.598 1594.52 243.679 1556.34 240.379C1526.2 237.773 1501.76 236.798 1488.8 238.583C1436.23 246.139 771.642 547.554 404.654 713.998C294.126 764.127 210.582 802.017 178.762 815.996L172.694 814.894Z" fill="#CA1217" fill-opacity="0.2"/>
<path d="M191.751 815.323C224.071 801.174 310.137 762.182 423.412 710.864C786.075 546.562 1427.59 255.927 1481.53 247.977L1481.58 247.973C1496.44 245.855 1522.48 246.768 1554.04 249.497C1592.18 252.796 1638.69 258.733 1683.03 265.115L1683.52 265.186C1716.01 269.729 1870.01 291.259 1977.61 291.613C2037.28 291.81 2082.49 285.38 2083.31 265.527L2090.48 265.543C2089.59 286.922 2041.29 293.848 1977.56 293.638C1868.28 293.278 1713.09 271.582 1680.35 267.004L1679.77 266.926C1635.69 260.58 1589.55 254.686 1551.96 251.435C1522.12 248.854 1497.89 247.929 1484.85 249.778C1432.64 257.475 791.798 547.806 429.517 711.936C316.303 763.226 230.286 802.196 197.799 816.418L191.761 815.322L191.751 815.323Z" fill="#CA1217" fill-opacity="0.2"/>
<path d="M211.577 815.765C244.408 801.445 332.885 761.409 448.695 709.002C805.992 547.318 1423.57 267.854 1477.32 259.648L1477.36 259.644C1492.31 257.44 1518.17 258.296 1549.44 261.002C1587.01 264.252 1632.76 270.167 1676.6 276.597L1683.52 277.586C1728.05 283.989 1884.14 306.44 1988.82 306.976C2043.96 307.259 2084.62 301.343 2085.77 283.408L2092.9 283.44C2091.65 302.882 2047.95 309.297 1988.7 308.993C1882.32 308.447 1725.12 285.838 1680.28 279.389L1673.33 278.393C1629.78 272.005 1584.43 266.139 1547.37 262.932C1517.83 260.375 1493.8 259.504 1480.7 261.427C1428.63 269.378 811.688 548.553 454.762 710.07C339.129 762.395 250.792 802.37 217.558 816.866L211.577 815.767V815.765Z" fill="#CA1217" fill-opacity="0.2"/>
<path d="M232.208 816.228C265.674 801.688 356.403 760.683 474.48 707.317C825.828 548.524 1419.37 280.268 1472.93 271.801L1472.97 271.793C1488 269.502 1513.66 270.297 1544.63 272.98C1581.63 276.182 1626.56 282.069 1669.89 288.546C1672.6 288.935 1677.13 289.614 1682.83 290.464C1736.2 298.446 1896.75 322.457 1999.71 323.195C2050.41 323.558 2086.89 318.153 2088.34 302.027L2095.43 302.074C2093.85 319.687 2054.38 325.593 1999.54 325.199C1894.89 324.449 1733.25 300.277 1679.52 292.241C1674.25 291.453 1670.06 290.826 1666.67 290.337L1666.62 290.328C1623.59 283.895 1579.05 278.055 1542.58 274.898C1513.34 272.367 1489.52 271.554 1476.35 273.561C1424.24 281.857 831.443 549.774 480.515 708.379C362.591 761.676 271.98 802.627 238.16 817.321L232.208 816.228Z" fill="#CA1217" fill-opacity="0.2"/>
<path d="M253.73 816.709C288.362 801.725 381.003 759.911 500.835 705.826C845.64 550.198 1415.02 293.208 1468.34 284.479L1468.4 284.471C1483.51 282.087 1508.95 282.818 1539.6 285.473C1576.02 288.628 1620.16 294.494 1662.97 301.024C1667.06 301.625 1673.38 302.612 1681.61 303.898C1742.55 313.419 1908.68 339.373 2010.29 340.333C2056.67 340.772 2089.32 335.873 2091.02 321.452L2098.07 321.515C2096.19 337.404 2060.62 342.805 2010.06 342.328C1906.73 341.351 1739.54 315.231 1678.21 305.65C1669.92 304.356 1663.57 303.363 1659.68 302.792L1659.63 302.784C1617.14 296.302 1573.43 290.489 1537.56 287.382C1508.7 284.882 1485.14 284.129 1471.89 286.207C1420.05 294.694 851.258 551.417 506.814 706.882C386.509 761.181 293.5 803.16 259.652 817.805L253.733 816.709H253.73Z" fill="#CA1217" fill-opacity="0.2"/>
<path d="M276.225 817.216C311.201 802.15 405.965 759.44 527.757 704.549C865.379 552.384 1410.42 306.735 1463.57 297.728L1463.62 297.72C1478.83 295.239 1504.02 295.901 1534.34 298.529C1570.13 301.631 1613.42 307.473 1655.69 314.058C1660.52 314.781 1668.84 316.143 1679.94 317.959C1747.81 329.059 1920.2 357.255 2020.55 358.462C2062.76 358.97 2091.89 354.57 2093.82 341.754L2100.83 341.831C2098.68 356.099 2066.66 361.003 2020.27 360.445C1918.17 359.217 1744.71 330.846 1676.42 319.677C1665.35 317.867 1657.07 316.511 1652.36 315.808L1652.31 315.801C1610.38 309.269 1567.53 303.483 1532.27 300.426C1503.78 297.957 1480.49 297.267 1467.17 299.43C1415.47 308.192 870.981 553.594 533.695 705.607C411.694 760.591 316.765 803.376 282.106 818.305L276.219 817.216H276.225Z" fill="#CA1217" fill-opacity="0.2"/>
<path d="M299.798 817.746C335.053 802.633 431.799 759.099 555.29 703.53C885.084 555.128 1405.62 320.895 1458.57 311.604L1458.61 311.596C1473.91 309.013 1498.85 309.604 1528.79 312.2C1563.95 315.25 1606.37 321.067 1648.08 327.709C1653.43 328.526 1663.8 330.303 1677.85 332.712C1752.31 345.474 1931.46 376.18 2030.54 377.662C2068.74 378.234 2094.64 374.323 2096.76 363.011L2103.73 363.111C2101.34 375.855 2072.58 380.267 2030.18 379.633C1929.38 378.125 1749.14 347.234 1674.24 334.396C1660.41 332.024 1650.21 330.276 1644.72 329.439L1644.67 329.432C1603.31 322.845 1561.35 317.086 1526.74 314.085C1498.63 311.647 1475.61 311.026 1462.21 313.284C1410.53 322.392 890.616 556.346 561.196 704.579C437.794 760.108 341.115 803.611 305.623 818.826L299.8 817.744L299.798 817.746Z" fill="#CA1217" fill-opacity="0.2"/>
<path d="M324.524 818.299C360.489 802.961 458.864 758.77 583.529 702.769C904.815 558.446 1400.58 335.746 1453.31 326.166L1453.36 326.158C1468.75 323.47 1493.4 323.983 1522.94 326.546C1557.39 329.535 1598.88 335.326 1640.02 342.03C1646.13 342.978 1658.46 345.192 1675.36 348.23C1756.25 362.761 1942.6 396.238 2040.23 398.027C2074.6 398.658 2097.56 395.223 2099.83 385.323L2106.76 385.445C2104.16 396.759 2078.37 400.692 2039.8 399.985C1940.36 398.163 1752.98 364.5 1671.64 349.888C1654.79 346.86 1642.51 344.654 1636.68 343.747L1636.62 343.735C1595.89 337.096 1554.86 331.367 1520.9 328.419C1493.24 326.018 1470.54 325.469 1457.06 327.814C1405.61 337.162 910.353 559.636 589.392 703.813C464.627 759.858 366.175 804.083 330.306 819.38L324.521 818.298L324.524 818.299Z" fill="#CA1217" fill-opacity="0.2"/>
<path d="M350.554 818.88C386.93 803.452 486.851 758.654 612.505 702.316C924.552 562.411 1395.26 351.37 1447.79 341.488L1447.85 341.48C1463.32 338.681 1487.65 339.112 1516.75 341.639C1550.54 344.574 1591.08 350.338 1631.6 357.103C1638.14 358.142 1652.54 360.854 1672.47 364.607C1759.72 381.032 1953.58 417.53 2049.69 419.669C2080.41 420.352 2100.68 417.382 2103.07 408.797L2109.95 408.95C2107.17 418.928 2084.09 422.391 2049.15 421.614C1951.27 419.436 1756.38 382.744 1668.67 366.232C1648.89 362.508 1634.59 359.816 1628.23 358.804L1628.16 358.792C1588.02 352.09 1547.95 346.386 1514.73 343.501C1487.53 341.139 1465.16 340.667 1451.59 343.112C1400.29 352.765 930.06 563.591 618.328 703.355C492.679 759.689 392.766 804.485 356.269 819.964L350.551 818.881L350.554 818.88Z" fill="#CA1217" fill-opacity="0.2"/>
<path d="M378.006 819.499C414.888 803.951 516.069 758.683 642.28 702.216C944.316 567.086 1389.64 367.851 1441.96 357.658L1442.02 357.646C1457.59 354.729 1481.57 355.073 1510.21 357.563C1543.25 360.434 1582.81 366.175 1622.72 373.011C1629.72 374.152 1646.23 377.407 1669.21 381.939C1762.83 400.403 1964.52 440.179 2058.9 442.715C2086.2 443.449 2104.04 440.926 2106.51 433.565L2113.31 433.747C2110.37 442.477 2089.76 445.484 2058.26 444.637C1962.09 442.054 1759.39 402.077 1665.3 383.521C1642.46 379.016 1626.05 375.779 1619.32 374.684L1619.25 374.672C1579.77 367.908 1540.7 362.234 1508.21 359.409C1481.49 357.087 1459.47 356.699 1445.81 359.255C1394.46 369.31 949.725 568.282 648.063 703.245C521.851 759.712 420.67 804.979 383.678 820.573L378.006 819.499Z" fill="#CA1217" fill-opacity="0.2"/>
<path d="M407.057 820.149C444.429 804.5 546.599 758.898 672.945 702.505C964.136 572.538 1383.68 385.285 1435.81 374.765L1435.86 374.754C1451.52 371.713 1475.14 371.964 1503.26 374.411C1535.58 377.223 1574.14 382.942 1613.39 389.854C1620.72 391.083 1639.41 394.942 1665.53 400.334C1765.59 420.995 1975.37 464.311 2067.89 467.309C2091.98 468.09 2107.6 465.997 2110.12 459.774L2116.86 459.992C2113.79 467.566 2095.41 470.132 2067.12 469.215C1972.86 466.161 1762.08 422.64 1661.54 401.881C1635.59 396.522 1617.03 392.69 1609.87 391.494L1609.8 391.483C1570.98 384.646 1532.95 378.998 1501.27 376.242C1475.1 373.965 1453.47 373.666 1439.71 376.332C1388.59 386.678 969.537 573.712 678.673 703.533C552.317 759.93 450.136 805.537 412.678 821.221L407.052 820.148L407.057 820.149Z" fill="#CA1217" fill-opacity="0.2"/>
<path d="M437.918 820.843C475.539 805.204 578.479 759.384 704.596 703.246C984.053 578.855 1377.35 403.787 1429.27 392.934L1429.32 392.923C1446.4 389.483 1472.26 389.951 1502.95 392.959C1532.93 395.896 1567.7 401.257 1603.41 407.73C1611.21 409.076 1632.12 413.595 1661.44 419.928C1768.05 442.962 1986.18 490.088 2076.68 493.634C2097.82 494.461 2111.44 492.781 2113.98 487.602L2120.64 487.863C2117.45 494.367 2101.07 496.507 2075.76 495.515C1983.51 491.901 1764.44 444.571 1657.36 421.437C1628.06 415.106 1607.17 410.594 1599.86 409.34L1599.78 409.329C1564.45 402.924 1530.15 397.63 1500.77 394.751C1472.11 391.944 1448.33 391.434 1433.24 394.464C1382.28 405.145 989.427 580.011 710.278 704.265C584.36 760.315 481.579 806.064 443.469 821.907L437.92 820.843H437.918Z" fill="#CA1217" fill-opacity="0.2"/>
<path d="M470.802 821.58C509.182 805.755 612.283 760.006 737.34 704.513C1004.09 586.146 1370.65 423.493 1422.31 412.298L1422.35 412.292C1439.51 408.706 1464.75 409.05 1494.66 411.993C1523.81 414.862 1557.6 420.211 1592.69 426.772C1600.64 428.176 1624.02 433.459 1656.91 440.887C1770.21 466.485 1996.83 517.682 2085.25 521.897C2103.71 522.777 2115.57 521.489 2118.09 517.265L2124.65 517.574C2121.36 523.101 2106.74 524.829 2084.15 523.753C1994.02 519.456 1766.51 468.058 1652.76 442.361C1620.05 434.971 1596.79 429.715 1589.17 428.37L1589.09 428.355C1554.38 421.865 1521.05 416.581 1492.47 413.768C1464.64 411.029 1441.49 410.637 1426.35 413.794C1375.59 424.791 1009.42 587.277 742.935 705.523C617.726 761.083 514.499 806.888 476.295 822.642L470.802 821.583V821.58Z" fill="#CA1217" fill-opacity="0.2"/>
<path d="M506.023 822.369C544.733 806.55 647.689 761.033 771.231 706.412C1024.2 594.567 1363.43 444.586 1414.86 433.032L1414.91 433.021C1432.13 429.284 1456.69 429.494 1485.76 432.37C1514.08 435.171 1546.86 440.514 1581.32 447.178C1589.53 448.677 1615.44 454.795 1651.91 463.405C1772.02 491.764 2007.18 547.285 2093.57 552.352H2093.59C2109.69 553.296 2120.03 552.383 2122.5 549.016L2128.94 549.387C2125.53 554.029 2112.43 555.356 2092.25 554.172C2004.19 549.002 1768.21 493.289 1647.68 464.832C1611.34 456.252 1585.54 450.16 1577.74 448.737L1577.66 448.722C1543.6 442.137 1511.32 436.866 1483.6 434.124C1456.64 431.458 1434.18 431.194 1418.95 434.489C1368.34 445.863 1029.47 595.683 776.766 707.409C653.127 762.072 550.094 807.625 511.429 823.425L506.023 822.369Z" fill="#CA1217" fill-opacity="0.2"/>
<path d="M543.921 823.221C582.836 807.481 685.132 762.448 806.454 709.041C1044.45 604.274 1355.64 467.282 1406.85 455.343L1406.89 455.332C1424.19 451.431 1448.02 451.497 1476.19 454.298C1503.62 457.027 1535.31 462.367 1569.12 469.142C1577.52 470.74 1606.13 477.796 1646.4 487.727C1773.39 519.045 2016.8 579.075 2101.55 585.299C2115.74 586.342 2124.86 585.787 2127.27 583.173L2133.54 583.633C2130.01 587.483 2118.11 588.411 2099.92 587.075C2013.7 580.741 1769.52 520.524 1642.14 489.108C1601.94 479.195 1573.41 472.16 1565.43 470.652L1565.35 470.637C1532.01 463.953 1500.84 458.695 1474.06 456.03C1448.01 453.439 1426.25 453.316 1410.93 456.77C1360.42 468.577 1049.63 605.393 811.922 710.033C690.665 763.412 588.419 808.42 549.236 824.27L543.924 823.221H543.921Z" fill="#CA1217" fill-opacity="0.2"/>
<path d="M584.925 824.142C624.267 808.411 725.082 764.264 843.124 712.574C1064.82 615.494 1347.25 491.82 1398.18 479.487L1398.22 479.48C1415.61 475.399 1438.66 475.307 1465.85 478.029C1492.27 480.675 1522.74 486 1555.77 492.885C1564.19 494.537 1595.8 502.678 1640.36 514.15C1774.07 548.579 2024.72 613.12 2108.76 621.069C2121.74 622.296 2130.09 622.11 2132.44 620.127L2138.5 620.701C2134.75 623.871 2123.59 624.377 2106.73 622.783C2021.4 614.711 1770.1 550.006 1636.05 515.488C1591.69 504.068 1560.22 495.963 1552.11 494.371L1552.05 494.356C1519.46 487.561 1489.5 482.316 1463.72 479.735C1438.7 477.23 1417.73 477.253 1402.34 480.859C1352.12 493.018 1069.98 616.568 848.508 713.55C730.41 765.265 629.549 809.432 590.159 825.182L584.925 824.14V824.142Z" fill="#CA1217" fill-opacity="0.2"/>
<path d="M629.619 825.143C669.326 809.477 767.787 766.644 881.455 717.196C1085.35 628.498 1338.12 518.537 1388.74 505.795L1388.78 505.788C1406.25 501.515 1428.45 501.254 1454.57 503.89C1479.91 506.447 1509.07 511.763 1541.3 518.776C1549.77 520.513 1584.64 529.884 1633.74 543.08C1773.16 580.55 2027.68 648.954 2113.78 659.915C2127.12 661.614 2135.71 661.898 2138.12 660.382L2143.86 661.112C2139.66 663.752 2128.21 663.703 2111.19 661.536C2024.14 650.453 1769.11 581.912 1629.41 544.368C1580.52 531.227 1545.79 521.893 1537.61 520.216L1537.53 520.198C1505.79 513.289 1477.16 508.06 1452.45 505.568C1428.53 503.155 1408.43 503.34 1392.93 507.123C1342.9 519.717 1090.4 629.56 886.724 718.164C772.9 767.68 674.305 810.571 634.743 826.181L629.619 825.143Z" fill="#CA1217" fill-opacity="0.2"/>
<path d="M678.729 826.247C718.399 810.839 813.518 769.812 921.605 723.191C1105.95 643.678 1328.03 547.889 1378.4 534.696L1378.42 534.687C1395.97 530.206 1417.21 529.76 1442.17 532.301C1466.38 534.766 1494.12 540.073 1525.44 547.224C1534 549.074 1572.47 559.865 1626.54 575.03C1766.08 614.166 2009.72 682.5 2107.52 700.607C2127.98 704.393 2141.22 705.978 2144.47 704.572L2149.63 705.527C2144.01 707.953 2127.87 706.458 2104.15 702.067C2005.87 683.871 1761.92 615.451 1622.2 576.264C1568.25 561.131 1529.87 550.367 1521.67 548.601L1521.61 548.588C1490.75 541.541 1463.56 536.326 1440.1 533.938C1417.37 531.624 1398.18 531.993 1382.55 535.983C1332.75 549.039 1110.91 644.72 926.769 724.146C818.76 770.732 723.716 811.728 683.7 827.271L678.732 826.248L678.729 826.247Z" fill="#CA1217" fill-opacity="0.2"/>
<path d="M733.195 827.471C773.099 812.258 863.24 773.828 963.862 730.929C1126.68 661.513 1316.94 580.399 1366.92 566.753L1366.94 566.746C1384.6 562.032 1404.78 561.38 1428.42 563.815C1451.3 566.17 1477.43 571.463 1507.77 578.769C1516.23 580.694 1558.94 593.197 1618.84 610.729C1796.92 662.853 2127.67 759.664 2151.79 753.561L2155.78 754.824C2127.37 762.017 1794 664.441 1614.52 611.906C1554.78 594.42 1512.18 581.951 1504.02 580.09L1503.96 580.073C1474.12 572.886 1448.53 567.691 1426.38 565.41C1404.99 563.208 1386.82 563.774 1371.06 567.982C1321.53 581.515 1131.5 662.531 968.867 731.867C868.224 774.775 778.061 813.214 738.015 828.481L733.195 827.471Z" fill="#CA1217" fill-opacity="0.2"/>
<path d="M794.362 828.848C834.212 813.998 917.434 779.115 1008.45 740.964C1147.38 682.73 1304.47 616.883 1354.05 602.746L1354.06 602.743C1371.83 597.769 1390.81 596.885 1412.98 599.199C1434.4 601.436 1458.74 606.716 1487.97 614.196C1496.28 616.221 1544.13 630.842 1610.93 651.251C1797.84 708.36 2133.64 810.961 2160.47 808.583L2162.2 810.15C2131.89 812.836 1794.49 709.745 1606.69 652.363C1540.05 632.003 1492.31 617.416 1484.18 615.435L1484.13 615.422C1455.42 608.072 1431.62 602.897 1410.98 600.741C1391.09 598.663 1374.06 599.452 1358.16 603.904C1309 617.923 1152.06 683.706 1013.27 741.883C922.31 780.009 839.14 814.871 798.978 829.838L794.365 828.848H794.362Z" fill="#CA1217" fill-opacity="0.2"/>
<path d="M864.108 830.421C903.95 815.995 977.343 786.066 1055.71 754.11C1167.93 708.343 1290.35 658.422 1339.41 643.778L1339.42 643.775C1357.29 638.512 1374.9 637.365 1395.38 639.545C1415.14 641.647 1437.43 646.908 1465.37 654.582C1473.55 656.741 1528.32 674.222 1604.15 698.42C1801.11 761.278 2140.39 869.557 2170.55 871.501L2169.34 873.022C2137.44 870.967 1797.41 762.45 1600.02 699.453C1524.34 675.299 1469.66 657.849 1461.61 655.725L1461.57 655.713C1434.12 648.175 1412.36 643.019 1393.44 641.006C1375.24 639.07 1359.5 640.115 1343.41 644.854C1294.63 659.415 1172.35 709.282 1060.24 754.997C981.846 786.967 908.42 816.911 868.452 831.382L864.108 830.423V830.421Z" fill="#CA1217" fill-opacity="0.2"/>
<path d="M945.265 832.263C984.824 818.472 1044.29 795.485 1105.96 771.645C1188.03 739.921 1274.02 706.682 1322.45 691.501L1322.46 691.498C1340.43 685.905 1356.39 684.457 1374.89 686.474C1392.69 688.416 1412.58 693.658 1439.03 701.559C1447.25 703.953 1514.43 726.372 1605.41 756.732C1814.19 826.4 2148.36 937.916 2181.45 944.815L2178.46 945.965C2144.89 938.964 1810.48 827.37 1601.56 757.654C1510.63 727.309 1443.48 704.902 1435.42 702.552L1435.4 702.544C1409.43 694.786 1390.02 689.652 1373.07 687.803C1356.8 686.029 1342.53 687.372 1326.19 692.455C1277.9 707.593 1192.01 740.796 1110.02 772.488C1048.33 796.336 988.843 819.331 949.171 833.161L945.262 832.262L945.265 832.263Z" fill="#CA1217" fill-opacity="0.2"/>
<path d="M1042.85 834.62L1302.85 748.659C1320.66 742.769 1334.39 740.978 1350.09 742.756C1365.4 744.491 1382.33 749.685 1406.91 757.829C1421.34 762.607 1683.8 854.432 1902.16 930.828C2046.59 981.356 2171.73 1025.14 2193 1032.5L2190.83 1033C2169.37 1025.57 2044.31 981.815 1899.99 931.323C1681.65 854.936 1419.21 763.122 1404.79 758.342C1380.49 750.29 1363.8 745.159 1349.05 743.489C1334.68 741.863 1321.87 743.585 1304.97 749.173L1044.97 835.133L1042.85 834.62Z" fill="#CA1217" fill-opacity="0.2"/>
</g>
<defs>
<clipPath id="clip0_159_1348">
<rect width="1920" height="800" fill="white"/>
</clipPath>
</defs>
</svg>
